<?xml version="1.0" standalone="no"?>
<!DOCTYPE svg PUBLIC "-//W3C//DTD SVG 1.1//EN" "http://www.w3.org/Graphics/SVG/1.1/DTD/svg11.dtd" >
<svg xmlns="http://www.w3.org/2000/svg">
<metadata></metadata>
<defs>
<font id="nissanag_lightregular" horiz-adv-x="1067" >
<font-face units-per-em="2048" ascent="1638" descent="-410" />
<missing-glyph horiz-adv-x="528" />
<glyph horiz-adv-x="2048" />
<glyph horiz-adv-x="2048" />
<glyph unicode="&#xd;" horiz-adv-x="2048" />
<glyph unicode=" "  horiz-adv-x="528" />
<glyph unicode="&#x09;" horiz-adv-x="528" />
<glyph unicode="&#xa0;" horiz-adv-x="528" />
<glyph unicode="!" horiz-adv-x="425" d="M176 0v238h156v-238h-156zM188 629v829h131v-829q0 -14 -1 -28.5t-2.5 -32.5t-2.5 -29l-12 -179h-96l-10 179q-1 9 -4 40.5t-3 49.5z" />
<glyph unicode="&#x22;" horiz-adv-x="731" d="M104 1522h170l-53 -596h-61zM457 1522h170l-54 -596h-61z" />
<glyph unicode="#" horiz-adv-x="1366" d="M86 530v111h358l27 199h-342v116h356l66 494h129l-70 -494h205l64 494h122l-67 -494h344v-116h-358l-27 -199h344v-111h-358l-72 -530h-127l78 530h-207l-78 -530h-119l74 530h-342zM565 641h207l27 199h-205z" />
<glyph unicode="$" horiz-adv-x="1236" d="M53 365l146 14q113 -219 344 -252v582q-48 15 -83.5 27t-80.5 32t-76.5 40t-64.5 49t-53 61.5t-33 75.5t-13 93q0 87 32.5 153.5t91 108t127.5 65t153 32.5v127h119v-127q158 -12 256.5 -95.5t146.5 -238.5l-137 -14q-80 200 -266 219v-506q56 -15 90 -25.5t89 -31 t90 -39.5t76.5 -49.5t65.5 -63.5t40.5 -79t16.5 -99q0 -140 -76 -240.5t-210 -148.5q-100 -35 -182 -35v-188h-119v188q-178 20 -296 109.5t-194 255.5zM274 1092q0 -52 27 -99q28 -48 106 -93.5t136 -51.5v473q-108 0 -188.5 -62.5t-80.5 -166.5zM662 123q85 0 158.5 31 t122 96.5t48.5 152.5q0 49 -22.5 90.5t-53 67t-81 49t-85 34.5t-87.5 26v-547z" />
<glyph unicode="%" horiz-adv-x="1792" d="M63 991q0 84 16 162t51 150t101 115.5t156 43.5q75 0 133 -31t92.5 -79t56 -114.5t29 -129t7.5 -131.5q0 -80 -18 -156t-54.5 -144t-102 -109.5t-151.5 -41.5q-70 0 -126 29.5t-91 76.5t-58 109.5t-32 124t-9 125.5zM168 995q0 -50 4.5 -95.5t18.5 -99t36.5 -92t64 -64.5 t95.5 -26q65 0 110 37t66 98t29 117.5t8 118.5q0 59 -9 118t-30.5 122.5t-67 103t-108.5 39.5q-51 0 -91 -26.5t-63 -66.5t-38 -93t-20 -99t-5 -92zM502 -43l719 1577l86 -39l-723 -1575zM1087 453q0 66 9 128.5t32.5 125t59 109t93 75.5t130.5 29q75 0 133 -31t92.5 -79 t56 -115t29 -129.5t7.5 -131.5q0 -63 -10.5 -124t-35 -121t-60.5 -105t-92.5 -72.5t-125.5 -27.5q-71 0 -128 30t-91.5 77t-57.5 110.5t-32 125t-9 126.5zM1192 449q0 -49 4.5 -94.5t18.5 -98t37 -91t64 -64t95 -25.5q44 0 79.5 17.5t58 48t38 67t23.5 80.5t11 81t3 76 q0 60 -9 119.5t-30.5 123t-67 103t-108.5 39.5q-52 0 -92 -27t-63 -67.5t-37.5 -94.5t-19.5 -100t-5 -93z" />
<glyph unicode="&#x26;" horiz-adv-x="1323" d="M113 393q0 231 237 404q23 17 65.5 44.5t59.5 39.5q-60 88 -88.5 156.5t-28.5 156.5q0 126 81.5 202.5t207.5 76.5q122 0 201.5 -67.5t79.5 -186.5q0 -89 -49 -169.5t-127 -140.5q-18 -13 -53.5 -35.5t-51.5 -33.5q57 -96 164 -250q13 -18 36 -52t37.5 -55.5t36 -49.5 t40.5 -50q51 162 51 264h129q0 -175 -103 -366q23 -34 47 -60q34 -42 53 -61t52.5 -34.5t79.5 -19.5v-124q-22 0 -43 3t-37.5 6.5t-35.5 12.5t-31 14.5t-30 20.5t-26.5 21.5t-27 25.5t-25 25.5t-27 29t-26.5 29.5q-68 -92 -174 -139t-226 -47q-122 0 -223 48.5t-163 143 t-62 217.5zM254 391q0 -127 92 -208t221 -81q92 0 177.5 43t146.5 117q-19 28 -60 85t-61 85q-73 105 -225 342q-61 -36 -107 -71t-91 -82.5t-69 -106t-24 -123.5zM483 1190q0 -16 3 -33.5t6 -31t11.5 -33t12.5 -29.5t16 -32t16 -28.5t18 -30t16 -26.5q8 3 16 8 q90 52 146.5 112.5t56.5 143.5q0 67 -42.5 107.5t-109.5 40.5q-76 0 -121 -45.5t-45 -122.5z" />
<glyph unicode="'" horiz-adv-x="378" d="M104 1522h170l-53 -596h-61z" />
<glyph unicode="(" horiz-adv-x="630" d="M88 666q0 205 68 409q76 228 233 395q46 47 82.5 78.5t108.5 83.5l49 -67q-75 -65 -111 -102t-76 -91q-98 -132 -151 -313.5t-53 -384.5q0 -332 145 -619q56 -110 125 -190q56 -67 129 -121l-51 -76q-243 184 -370.5 440.5t-127.5 557.5z" />
<glyph unicode=")" horiz-adv-x="641" d="M16 1565l52 75q241 -186 368 -441t127 -554q0 -207 -69 -414q-75 -223 -236 -395q-70 -73 -190 -160l-50 66q80 70 114.5 105t72.5 87q100 133 153.5 316t53.5 387q0 331 -144 616q-56 107 -123 191q-32 38 -56.5 61t-72.5 60z" />
<glyph unicode="*" horiz-adv-x="731" d="M68 1202l28 88l217 -57v223h99v-227l221 74l31 -84l-226 -80l137 -187l-75 -55l-140 184l-124 -184l-78 55l127 189z" />
<glyph unicode="+" horiz-adv-x="1482" d="M193 539v123h487v485h123v-485h487v-123h-487v-488h-123v488h-487z" />
<glyph unicode="," horiz-adv-x="342" d="M90 0v238h162v-201q0 -125 -17 -198.5t-77 -162.5l-68 48q47 76 62.5 131t15.5 145h-78z" />
<glyph unicode="-" horiz-adv-x="698" d="M78 541v123h543v-123h-543z" />
<glyph unicode="." horiz-adv-x="342" d="M90 0v238h162v-238h-162z" />
<glyph unicode="/" horiz-adv-x="980" d="M20 0l789 1446h152l-785 -1446h-156z" />
<glyph unicode="0" horiz-adv-x="1193" d="M90 721q0 86 10.5 169t33 170t62.5 160t94 131t134 91t176 33q87 0 160 -26t124.5 -70t91 -107t64 -131t39.5 -147.5t21 -151.5t6 -148q0 -100 -16.5 -197.5t-55.5 -193.5t-96.5 -168.5t-147.5 -117t-200 -44.5q-81 0 -150 25t-119.5 68t-90.5 102.5t-66 125.5t-43 141 t-24 145t-7 141zM227 725q0 -57 4 -112t14.5 -120t27.5 -121t46 -109.5t66.5 -91t92 -60.5t120.5 -23q67 0 122 22.5t92.5 59.5t66.5 90t45.5 108t27 120t14 119t3.5 112q0 55 -4 110.5t-15 120.5t-28.5 122t-47 111.5t-67 93t-91.5 62t-118 23.5t-117.5 -23t-90.5 -61.5 t-66.5 -92t-47.5 -110.5t-29 -121t-15.5 -119t-4.5 -110z" />
<glyph unicode="1" horiz-adv-x="1193" d="M328 1116v111h14q62 0 122 21t93 63q35 46 35 135h125v-1446h-125v1176q-62 -60 -264 -60z" />
<glyph unicode="2" horiz-adv-x="1193" d="M121 1059q0 99 38.5 179.5t104.5 131t151 78t181 27.5q217 0 353 -123t136 -338q0 -101 -42 -203t-102.5 -182t-153 -165t-165.5 -140.5t-169 -120.5q-108 -71 -142 -90h725v-113h-913v113q561 362 713 579q114 161 114 328q0 160 -96.5 253t-257.5 93q-112 0 -197 -47 t-129 -145q-30 -68 -30 -132q0 -129 100 -247l-168 20q-51 117 -51 244z" />
<glyph unicode="3" horiz-adv-x="1193" d="M88 414l137 47q0 -178 94.5 -274.5t272.5 -96.5q97 0 173 31t123.5 100t47.5 168q0 305 -336 305h-43h-201v113q26 0 76 -1t76 -1q55 0 98 3.5t93 12.5t85.5 28t66 48t46.5 74.5t16 105.5q0 132 -92.5 210.5t-226.5 78.5q-145 0 -240.5 -89t-95.5 -233l-143 39 q95 392 477 392q197 0 323.5 -104.5t126.5 -297.5q0 -150 -80.5 -224.5t-234.5 -92.5q158 -1 252 -99t94 -256q0 -136 -66.5 -234.5t-173.5 -146t-241 -47.5q-213 0 -347 115.5t-157 325.5z" />
<glyph unicode="4" horiz-adv-x="1193" d="M115 362v105l635 979h135v-971h225v-113h-225v-362h-125v362h-645zM256 475h504v768z" />
<glyph unicode="5" horiz-adv-x="1193" d="M109 381l133 39q0 -151 93 -242.5t245 -91.5q116 0 198.5 55t121 144.5t38.5 203.5q0 110 -36 199.5t-115 147t-191 57.5q-117 0 -205.5 -80t-107.5 -197l-105 13l25 817h764v-121h-645l-29 -498q39 87 129 130.5t194 43.5q143 0 248.5 -70t157 -183.5t51.5 -253.5 q0 -147 -56.5 -264.5t-168 -187t-260.5 -69.5q-199 0 -329 106.5t-150 301.5z" />
<glyph unicode="6" horiz-adv-x="1193" d="M117 676q0 82 6.5 158t23.5 157.5t43.5 150.5t69.5 131.5t98.5 106.5t133 69.5t170.5 25.5q161 0 277.5 -83t156.5 -237l-135 -49q-12 127 -90 190.5t-209 63.5q-78 0 -140.5 -24t-104.5 -63.5t-73.5 -98t-49.5 -119.5t-30 -135q-13 -82 -16 -150q57 97 164.5 148 t228.5 51q220 0 344.5 -139.5t124.5 -362.5q0 -226 -135 -360t-361 -134q-175 0 -297 99q-200 159 -200 604zM254 512q0 -64 25 -152q41 -131 129 -202.5t221 -71.5q164 0 255 108.5t91 276.5q0 174 -90.5 280.5t-261.5 106.5q-150 0 -259.5 -98.5t-109.5 -247.5z" />
<glyph unicode="7" horiz-adv-x="1193" d="M129 1001v445h918v-121q-82 -111 -132 -188q-166 -257 -252 -530.5t-122 -606.5h-138q15 152 19 178q40 300 170.5 579.5t337.5 567.5h-684v-324h-117z" />
<glyph unicode="8" horiz-adv-x="1193" d="M92 406q0 128 85.5 231t211.5 133q-108 38 -175 124.5t-67 199.5q0 93 38 167t102 120t144.5 70t168.5 24q92 0 173 -23t146.5 -68t103.5 -119.5t38 -170.5q0 -118 -68 -205.5t-182 -118.5q127 -31 209 -138.5t82 -238.5q0 -94 -41 -174q-62 -128 -185.5 -187t-279.5 -59 q-102 0 -191.5 27.5t-160 79.5t-111.5 136t-41 190zM229 399q0 -102 56.5 -174t140 -103.5t182.5 -31.5q94 0 174 34t132.5 105t52.5 166q0 102 -54.5 175t-137.5 106t-183 33q-71 0 -135.5 -20t-115.5 -57.5t-81.5 -98t-30.5 -134.5zM276 1087q0 -122 95 -194t221 -72 q53 0 101.5 9.5t92 30.5t75.5 52.5t50.5 77.5t18.5 103q0 131 -94.5 199.5t-231.5 68.5q-138 0 -233 -71t-95 -204z" />
<glyph unicode="9" horiz-adv-x="1193" d="M82 977q0 218 131 358t348 140q518 0 518 -713q0 -85 -6 -161t-23 -157.5t-43 -148.5t-69 -128t-98.5 -103t-134 -66.5t-173.5 -24.5q-169 0 -272 78.5t-158 241.5l142 53q15 -133 89.5 -196.5t209.5 -63.5q73 0 132.5 20.5t100 53.5t71 84.5t48 101.5t29.5 117.5 t16.5 120t7.5 121.5q-56 -114 -161.5 -170t-239.5 -56q-143 0 -249.5 65.5t-161 178t-54.5 254.5zM219 979q0 -179 85 -282t261 -103q162 0 267.5 94.5t105.5 255.5q0 109 -43.5 205t-130 157.5t-197.5 61.5q-170 0 -259 -107.5t-89 -281.5z" />
<glyph unicode=":" horiz-adv-x="425" d="M176 0v238h162v-238h-162zM176 721v237h162v-237h-162z" />
<glyph unicode=";" horiz-adv-x="425" d="M176 0v238h162v-236q0 -104 -20 -172.5t-76 -153.5l-66 48q47 77 62.5 131t15.5 145h-78zM176 721v237h162v-237h-162z" />
<glyph unicode="&#x3c;" horiz-adv-x="1482" d="M233 524v140l955 489v-131l-838 -426l838 -422v-133z" />
<glyph unicode="=" horiz-adv-x="1482" d="M203 354v119h1077v-119h-1077zM203 715v121h1077v-121h-1077z" />
<glyph unicode="&#x3e;" horiz-adv-x="1482" d="M297 35v133l838 426l-838 422v131l952 -483v-138z" />
<glyph unicode="?" horiz-adv-x="980" d="M137 1083q0 179 109.5 283t290.5 104q174 0 291.5 -110t117.5 -283q0 -59 -13 -111t-30 -88.5t-53 -80t-63 -70t-80 -74.5q-10 -9 -36 -32t-32 -29t-23.5 -24t-21 -27t-13 -27t-11.5 -34.5t-4.5 -40t-2.5 -52.5v-41h-127v72q0 59 7 98t31.5 76t44.5 58t73 69 q99 94 132 133q91 109 91 219q0 121 -79 200t-201 79q-127 0 -200 -75t-73 -202q0 -111 51 -199l-153 46q-23 122 -23 163zM422 0v238h160v-238h-160z" />
<glyph unicode="@" horiz-adv-x="1835" d="M141 477q0 193 73.5 373t198.5 313.5t301 214t371 80.5q275 0 442 -158.5t167 -431.5q0 -131 -39 -268q-17 -57 -44.5 -116.5t-68 -120.5t-87.5 -108.5t-107 -77.5t-121 -30q-87 0 -126.5 51t-37.5 140q-59 -85 -137.5 -136.5t-171.5 -51.5q-67 0 -118.5 27.5t-81.5 74 t-45 103t-15 120.5q0 146 61 288t172 222q97 70 195 70q172 0 243 -195l33 148h121l-66 -299q-4 -16 -16.5 -69t-17.5 -77.5t-13 -67.5t-11 -78.5t-3 -70.5q0 -38 19.5 -69t56.5 -31q48 0 114 61q101 91 159 250.5t58 308.5q0 236 -142.5 369t-379.5 133q-174 0 -331.5 -74 t-269 -196.5t-177.5 -284.5t-66 -334q0 -200 92.5 -347t248 -220.5t352.5 -73.5q191 0 372 79t320 218l55 -65q-170 -157 -352 -240.5t-395 -83.5q-163 0 -306 51t-249.5 144t-168 231.5t-61.5 304.5zM633 483q0 -94 44.5 -158.5t133.5 -64.5q73 0 135 47.5t99 119t57 149 t20 145.5q0 93 -49 159t-139 66q-71 0 -131 -48.5t-95.5 -122t-55 -150.5t-19.5 -142z" />
<glyph unicode="A" horiz-adv-x="1323" d="M20 0l590 1446h115l575 -1446h-149l-166 436h-647l-166 -436h-152zM383 547h561l-278 739z" />
<glyph unicode="B" horiz-adv-x="1366" d="M166 0v1446h622q128 0 221 -30t158 -116q68 -89 68 -210q0 -122 -70.5 -210.5t-189.5 -101.5q149 -29 228 -126t79 -249q0 -139 -74 -241q-49 -67 -121 -104.5t-139.5 -47.5t-161.5 -10h-620zM303 125h477q50 0 84.5 2.5t77.5 11.5t78 29.5t63 52.5q62 70 62 182 q0 113 -68 193q-60 71 -144.5 95t-199.5 24h-430v-590zM303 834h440q103 0 176 19t123 81t50 153q0 89 -50 148q-47 56 -113 72t-163 16h-463v-489z" />
<glyph unicode="C" horiz-adv-x="1366" d="M102 709q0 124 20.5 234t67.5 210.5t117 172.5t176 114.5t238 42.5q349 0 502 -262q20 -38 57 -113l-139 -70v9q-22 97 -82 172q-113 143 -334 143q-106 0 -189.5 -36t-137 -96t-88.5 -143t-49.5 -170.5t-14.5 -185.5q0 -107 14.5 -198t50 -175.5t91.5 -143t145 -93.5 t203 -35q103 0 178.5 36t136.5 116q59 76 76 155l129 -78q-157 -352 -531 -352q-133 0 -240.5 38t-180.5 105t-122.5 161.5t-71.5 204.5t-22 237z" />
<glyph unicode="D" horiz-adv-x="1409" d="M166 0v1446h412q80 0 127 -1.5t120 -11.5t123 -30q92 -37 163.5 -112t112.5 -169t62 -194t21 -199q0 -103 -22 -206t-65.5 -200t-119 -173.5t-172.5 -110.5q-108 -39 -332 -39h-430zM305 123h277q233 0 327 45q67 32 118.5 96t81 142t44 157t14.5 154q0 84 -14.5 166 t-45 163t-87.5 145.5t-133 96.5q-35 15 -81 23t-75.5 9t-83.5 1h-342v-1198z" />
<glyph unicode="E" horiz-adv-x="1236" d="M166 0v1446h944v-125h-807v-516h731v-127h-731v-551h858v-127h-995z" />
<glyph unicode="F" horiz-adv-x="1150" d="M166 0v1446h946v-121h-813v-489h729v-119h-729v-717h-133z" />
<glyph unicode="G" horiz-adv-x="1449" d="M102 713q0 126 24.5 238.5t76.5 210.5t128 169t185.5 111.5t241.5 40.5q375 0 526 -367l-129 -69q-47 160 -143.5 240.5t-257.5 80.5q-122 0 -228 -59q-78 -44 -134 -111.5t-86.5 -149t-44 -165t-13.5 -174.5q0 -94 15.5 -181t52 -168.5t90 -141.5t135.5 -96t184 -36 q92 0 165.5 30.5t122 81.5t81.5 122t47 148t14 163h-532v125h651v-756h-119v242q-54 -138 -167.5 -208.5t-266.5 -70.5q-125 0 -228.5 41t-175 112t-120.5 167t-72 204t-23 226z" />
<glyph unicode="H" horiz-adv-x="1492" d="M166 0v1446h135v-645h889v645h137v-1446h-137v678h-889v-678h-135z" />
<glyph unicode="I" horiz-adv-x="468" d="M166 0v1446h137v-1446h-137z" />
<glyph unicode="J" horiz-adv-x="1024" d="M27 397l145 33q-4 -40 -4 -63q0 -145 76 -212t223 -67q50 0 89.5 10.5t66 27.5t45.5 45.5t29.5 56.5t16.5 69.5t7.5 75.5t1.5 82v991h135v-1004q0 -91 -10.5 -160t-37.5 -130.5t-71.5 -100.5t-114.5 -61.5t-165 -22.5q-213 0 -322.5 108.5t-109.5 321.5z" />
<glyph unicode="K" horiz-adv-x="1366" d="M166 0v1446h139v-807l787 807h188l-565 -574l614 -872h-168l-540 782l-316 -317v-465h-139z" />
<glyph unicode="L" horiz-adv-x="1150" d="M166 0v1446h139v-1319h799v-127h-938z" />
<glyph unicode="M" horiz-adv-x="1622" d="M166 0v1446h162l489 -1227l469 1227h170v-1446h-135l10 1229l-471 -1229h-94l-481 1229l16 -1229h-135z" />
<glyph unicode="N" horiz-adv-x="1449" d="M166 0v1446h135l858 -1237l-10 1237h135v-1446h-135l-848 1249v-1249h-135z" />
<glyph unicode="O" horiz-adv-x="1449" d="M102 727q0 121 23.5 230.5t73.5 206t123.5 167t179 111.5t233.5 41q124 0 227 -40.5t173.5 -109.5t119 -164t71 -202t22.5 -224q0 -85 -10.5 -165.5t-34 -158.5t-57.5 -145.5t-84.5 -125t-112.5 -98.5t-142.5 -64t-173.5 -23q-128 0 -233.5 42t-178 114t-123 169.5 t-73.5 208t-23 230.5zM248 723q0 -94 15 -181.5t51 -171.5t89.5 -146t135.5 -100t184 -38q103 0 186 39t136.5 103t90 150t51.5 175.5t15 183.5q0 91 -15.5 177.5t-51.5 169t-89 144t-133.5 99t-179.5 37.5q-103 0 -186.5 -37.5t-138 -100t-91.5 -146.5t-53 -173t-16 -184z " />
<glyph unicode="P" horiz-adv-x="1280" d="M166 0v1446h627q63 0 107 -3.5t98.5 -15.5t98 -39.5t77.5 -70.5q81 -104 81 -268q0 -158 -79 -258q-67 -85 -164 -113.5t-230 -28.5q-28 0 -83 1t-83 1h-319v-651h-131zM297 772q79 0 237.5 -1t237.5 -1q108 0 179.5 20t121.5 87q49 65 49 167q0 160 -80 223.5t-245 63.5 h-500v-559z" />
<glyph unicode="Q" horiz-adv-x="1449" d="M102 709q0 119 24 230.5t75 211t125 173t180 116.5t233 43q124 0 226.5 -41t173 -111.5t119.5 -166.5t71.5 -203t22.5 -224q0 -280 -123 -497l194 -181l-86 -92l-182 168q-172 -172 -428 -172q-125 0 -229 40.5t-176.5 110.5t-122.5 165.5t-73.5 203.5t-23.5 226z M246 713q0 -78 11.5 -152t35 -146t62.5 -132t90.5 -105.5t124 -71.5t157.5 -26q104 0 188 37t138.5 98.5t91 145.5t52 172.5t15.5 185.5q0 94 -15 183t-51 174t-89.5 148t-136.5 101.5t-185 38.5t-186 -39t-139.5 -103t-93 -149.5t-54 -175.5t-16.5 -184z" />
<glyph unicode="R" horiz-adv-x="1323" d="M166 0v1446h530q75 0 123.5 -3.5t112.5 -16t115.5 -42t91.5 -77.5q92 -112 92 -273q0 -185 -120 -288t-308 -105l469 -641h-172l-457 641h-338v-641h-139zM305 760h418q108 0 186.5 19.5t128.5 82.5q58 72 58 176q0 103 -49 172q-49 70 -118.5 91.5t-172.5 21.5h-451 v-563z" />
<glyph unicode="S" horiz-adv-x="1236" d="M100 365l138 71q0 -173 112 -262.5t289 -89.5q73 0 142 18t127.5 53.5t94 96.5t35.5 139q0 102 -54.5 161.5t-158.5 98.5q-53 20 -208 58t-232 77q-211 106 -211 320q0 99 40.5 174.5t110 118t152 63.5t176.5 21q114 0 210.5 -32.5t173 -105.5t112.5 -180l-127 -69 q-33 94 -61 131q-52 71 -136 107t-178 36q-64 0 -122 -14.5t-108 -43.5t-80 -80.5t-30 -119.5q0 -91 52 -146.5t147 -91.5q57 -22 206 -57t224 -72q113 -55 177.5 -142.5t64.5 -205.5q0 -113 -60 -207q-71 -116 -199.5 -171.5t-277.5 -55.5q-84 0 -159.5 16t-143 49.5 t-121 91.5t-84.5 136q-11 27 -33 109z" />
<glyph unicode="T" horiz-adv-x="1110" d="M31 1325v121h1048v-121h-456v-1325h-138v1325h-454z" />
<glyph unicode="U" horiz-adv-x="1409" d="M164 590v856h135v-893q0 -47 1.5 -79t6 -74t15 -73t27.5 -64.5t44.5 -61t63.5 -49.5q100 -62 256 -62q96 0 166.5 23t114 63t69.5 103t35.5 132t9.5 162v873h137v-864q0 -73 -2.5 -122.5t-13.5 -113.5t-31 -110.5t-57 -95t-90 -85.5q-130 -92 -353 -92q-224 0 -366 117 q-57 47 -93 105t-51.5 131t-19.5 129.5t-4 144.5z" />
<glyph unicode="V" horiz-adv-x="1236" d="M20 1446h152l444 -1258l455 1258h146l-543 -1446h-123z" />
<glyph unicode="W" horiz-adv-x="1792" d="M20 1446h148l340 -1200l344 1200h94l357 -1200l329 1200h137l-411 -1446h-111l-346 1169l-344 -1169h-108z" />
<glyph unicode="X" horiz-adv-x="1366" d="M43 0l549 778l-473 668h174l393 -584l401 584h166l-475 -668l545 -778h-170l-467 692l-485 -692h-158z" />
<glyph unicode="Y" horiz-adv-x="1280" d="M20 1446h162l447 -719l465 719h166l-566 -848v-598h-135v598z" />
<glyph unicode="Z" horiz-adv-x="1193" d="M59 0v90l891 1233h-837v123h1022v-94l-881 -1229h868v-123h-1063z" />
<glyph unicode="[" horiz-adv-x="555" d="M152 -295v1890h348v-104h-224v-1684h224v-102h-348z" />
<glyph unicode="\" horiz-adv-x="980" d="M20 1446h156l785 -1446h-152z" />
<glyph unicode="]" horiz-adv-x="555" d="M53 -190h223v1685h-223v102h348v-1890h-348v103z" />
<glyph unicode="^" horiz-adv-x="1482" d="M262 592l408 854h139l412 -854h-131l-349 737l-348 -737h-131z" />
<glyph unicode="_" horiz-adv-x="1024" d="M-20 -301h1064v-121h-1064v121z" />
<glyph unicode="`" horiz-adv-x="555" d="M47 1430h229l232 -287h-109z" />
<glyph unicode="a" horiz-adv-x="1024" d="M92 248q0 56 21 103t67.5 81t85.5 57.5t111 44.5t106 29.5t106 23.5q29 6 42 9l114 25v51q0 118 -59.5 170.5t-179.5 52.5q-126 0 -189 -56t-63 -180l-133 23q48 319 387 319q82 0 166.5 -24.5t126.5 -75.5q38 -46 49.5 -101t11.5 -134v-430q0 -84 31 -113 q29 -27 104 -27h11v-96h-17q-45 0 -76.5 3t-66.5 13.5t-56 29.5q-20 18 -34 52q-13 31 -13 74v6q-31 -66 -73 -106q-49 -46 -123 -69t-150 -23q-132 0 -219.5 70t-87.5 198zM209 252q0 -79 56 -122.5t136 -43.5q97 0 192.5 53.5t129.5 139.5q22 56 22 163v74q-7 -2 -139 -36 t-221 -62.5t-115 -50.5q-61 -51 -61 -115z" />
<glyph unicode="b" d="M154 0v1446h116v-637q104 188 297 188q82 0 151 -30.5t116 -81t80 -118t48 -141t15 -149.5q0 -80 -14 -152t-45 -136.5t-77 -111t-115.5 -73.5t-154.5 -27q-103 0 -180.5 51t-120.5 146v-174h-116zM270 481q0 -76 14.5 -142.5t47 -125.5t91.5 -93t140 -34q80 0 138 34 t88.5 92.5t44.5 124t14 140.5q0 59 -9 115t-31 111t-55 95.5t-85 65.5t-117 25q-67 0 -118 -25t-81 -64t-49 -94.5t-26 -109.5t-7 -115z" />
<glyph unicode="c" horiz-adv-x="980" d="M90 483q0 145 53 261t160.5 186.5t253.5 70.5q131 0 230.5 -62.5t142.5 -182.5l-113 -29q-30 79 -103.5 122.5t-160.5 43.5q-67 0 -122.5 -22.5t-93.5 -61t-64.5 -91t-39 -110.5t-12.5 -121q0 -80 17.5 -150t54.5 -128.5t101 -92.5t149 -34q178 0 264 164l123 -27 q-115 -244 -389 -244q-109 0 -196 40t-142 109.5t-84 161t-29 197.5z" />
<glyph unicode="d" d="M90 489q0 77 16.5 150t51 138t83.5 114t118.5 77.5t150.5 28.5q97 0 176.5 -45t108.5 -131v625h118v-1446h-118v176q-28 -90 -113.5 -144.5t-183.5 -54.5q-92 0 -176 46q-82 43 -136 121t-75 163t-21 182zM221 489q0 -75 14.5 -142t46.5 -126t91 -94t139 -35 q70 0 122.5 24t83 61t49 92.5t24.5 109t6 119.5q0 55 -4 97t-16 91.5t-38.5 89.5t-66.5 66q-65 45 -156 45q-77 0 -136 -36t-92.5 -95.5t-50 -127t-16.5 -139.5z" />
<glyph unicode="e" d="M90 498q0 100 30.5 190.5t86.5 160.5t142 111t190 41q139 0 241.5 -73.5t151.5 -188t49 -250.5h-758v-20q0 -173 83.5 -278t252.5 -105q209 0 309 205l113 -33q-63 -144 -167.5 -213.5t-260.5 -69.5q-113 0 -202.5 41t-145.5 112.5t-85.5 165.5t-29.5 204zM225 588h617 q-16 137 -92.5 221t-208.5 84q-133 0 -214.5 -84t-101.5 -221z" />
<glyph unicode="f" horiz-adv-x="641" d="M47 874v103h215v235q0 67 8.5 111.5t31 81t66.5 53.5t111 17q48 0 125 -15v-119q-52 27 -115 27q-61 0 -84.5 -37t-23.5 -102q0 -42 1 -126t1 -126h221v-103h-221v-874h-121v874h-215z" />
<glyph unicode="g" horiz-adv-x="1110" d="M90 502q0 135 45.5 245t144 180t236.5 70q107 0 202 -52.5t120 -147.5v180h116v-1016q0 -57 -3.5 -100t-14.5 -92t-30.5 -86t-54.5 -72t-83 -60q-97 -51 -246 -51q-89 0 -161.5 20t-129.5 61.5t-91.5 109t-41.5 157.5l127 25q23 -268 307 -268q120 0 194.5 48t96.5 161 q11 65 11 141q4 156 4 233q-19 -70 -71.5 -118.5t-117.5 -69t-139 -20.5q-86 0 -157 29.5t-119 79t-81 117t-48 141.5t-15 155zM213 498q0 -65 9.5 -122t32 -110.5t57.5 -92.5t89.5 -62t124.5 -23q90 0 152.5 31.5t95 89.5t46.5 125t14 153q0 67 -7.5 123t-28 110t-54 91 t-88 59.5t-126.5 22.5q-66 0 -120 -22t-90 -59t-60.5 -88t-35.5 -107.5t-11 -118.5z" />
<glyph unicode="h" d="M154 0v1446h122v-625q43 87 123.5 131.5t180.5 44.5q158 0 244.5 -95t86.5 -255v-647h-118v606q0 65 -10.5 113t-35.5 87.5t-71 60t-113 20.5q-107 0 -174 -53q-18 -14 -33.5 -31t-26.5 -33t-19.5 -38.5t-14 -38t-9.5 -42t-6 -41t-3 -44.5t-1 -42v-44.5v-41.5v-438h-122z " />
<glyph unicode="i" horiz-adv-x="425" d="M154 0v977h118v-977h-118zM154 1206v187h118v-187h-118z" />
<glyph unicode="j" horiz-adv-x="425" d="M-98 -369q77 -49 164 -49q40 0 65 25q6 7 10.5 26t7 40t3.5 51.5t1 50t-0.5 46t-0.5 29.5q0 187 1 563.5t1 563.5h118v-1020q0 -135 -2 -203q-1 -39 -2 -63.5t-5.5 -57.5t-12 -53t-22 -42t-35 -34t-51.5 -20t-70 -8q-90 0 -170 41v114zM154 1206v187h118v-187h-118z" />
<glyph unicode="k" horiz-adv-x="1024" d="M154 0v1446h118v-983l549 514h152l-408 -389l436 -588h-147l-373 506l-209 -199v-307h-118z" />
<glyph unicode="l" horiz-adv-x="425" d="M152 0v1446h122v-1446h-122z" />
<glyph unicode="m" horiz-adv-x="1579" d="M154 0v977h120v-203q28 107 104 165t187 58q116 0 188 -64t81 -179q29 118 109 180.5t202 62.5q55 0 98 -13t72 -34t50 -54.5t32.5 -66.5t18 -80t8 -84.5t1.5 -89.5v-575h-120q0 104 1 313t1 314q0 46 -3.5 80t-15.5 70t-32 58.5t-55 37t-83 14.5q-105 0 -176 -74 q-17 -18 -30.5 -37t-23 -43t-17 -41.5t-11.5 -48t-7 -44.5t-4 -49.5t-1 -45.5v-50v-46v-408h-119v600q0 50 -2.5 84t-13 76t-30 67t-55.5 42.5t-87 17.5q-103 0 -172 -72q-15 -16 -28 -35.5t-22 -36t-16.5 -42t-12 -41t-8 -46t-5 -43.5t-2.5 -47t-1 -43.5v-45.5v-42v-393 h-120z" />
<glyph unicode="n" d="M154 0v977h120v-174q36 95 118 144.5t188 49.5q335 0 335 -393q0 -100 -1 -302t-1 -302h-120v578v12q0 47 -1.5 73.5t-8.5 66t-25 68.5t-47 50q-55 41 -146 41q-119 0 -194 -72q-20 -19 -36 -42t-26 -42.5t-17.5 -49t-11 -47t-5 -52.5t-2 -50t0 -54.5t0.5 -51.5v-428 h-120z" />
<glyph unicode="o" d="M90 477q0 108 28 201.5t82.5 166t142.5 114.5t200 42q105 0 189.5 -42.5t137 -115t80 -163t27.5 -191.5q0 -102 -29.5 -193.5t-84.5 -163.5t-141 -114.5t-192 -42.5q-139 0 -241 70.5t-150.5 182.5t-48.5 249zM219 475q0 -61 10 -116.5t33.5 -106.5t58 -88.5t87.5 -59.5 t118 -22q87 0 151 34.5t100.5 94t53.5 130.5t17 153q0 79 -16.5 148t-51 128.5t-96.5 94t-145 34.5q-71 0 -127.5 -24.5t-92 -64.5t-58.5 -96t-32.5 -114.5t-9.5 -124.5z" />
<glyph unicode="p" d="M154 -518v1495h118v-160q40 89 117 134.5t178 45.5q82 0 150.5 -29t115.5 -78t80 -114.5t48.5 -138t15.5 -148.5q0 -93 -25.5 -182.5t-73.5 -164t-127 -120t-178 -45.5q-100 0 -185 49t-116 138v-682h-118zM272 459q0 -71 14 -132.5t44 -116t85.5 -86.5t131.5 -32 q79 0 140 36t96 96t52 129.5t17 144.5q0 61 -10 116t-33.5 105.5t-58 87.5t-87.5 58.5t-118 21.5q-70 0 -121 -27.5t-79.5 -68t-45.5 -101.5t-22 -113.5t-5 -117.5z" />
<glyph unicode="q" horiz-adv-x="1024" d="M90 496q0 78 15 150t47 136t79 111.5t115.5 75.5t151.5 28q100 0 181 -44t116 -132v156h116v-1495h-116v688q-29 -92 -116.5 -142.5t-189.5 -50.5q-100 0 -179 46.5t-125.5 123t-70.5 166t-24 183.5zM215 504q0 -74 17 -144.5t52 -132.5t96 -99.5t140 -37.5q67 0 118 26 t80.5 66t48 96.5t24.5 110t6 115.5q0 75 -13.5 139t-44 121t-88 90t-137.5 33q-77 0 -136 -33t-93.5 -89t-52 -122t-17.5 -139z" />
<glyph unicode="r" horiz-adv-x="641" d="M154 0v977h120v-156q38 84 109 128t164 44q39 0 80 -6v-108q-43 6 -84 6q-104 0 -170 -58q-21 -18 -37 -41t-27 -44t-18 -51.5t-10.5 -51.5t-5.5 -56.5t-2 -53.5t0.5 -56t0.5 -51v-422h-120z" />
<glyph unicode="s" horiz-adv-x="937" d="M70 238l118 43q22 -92 99.5 -143.5t175.5 -51.5q65 0 118.5 17.5t91.5 62t38 110.5q0 58 -32 95t-83 54.5t-113 30t-124 28.5t-113 41.5t-83 76.5t-32 127q0 93 52.5 156.5t128 89.5t165.5 26q83 0 151 -19.5t123.5 -71t75.5 -130.5l-114 -30q-9 41 -34 70.5t-59.5 45 t-71.5 22.5t-77 7q-41 0 -78 -8t-70.5 -25.5t-53 -50t-19.5 -76.5q0 -53 32 -86.5t82.5 -49.5t112 -27.5t123.5 -28.5t112.5 -44.5t82.5 -84t32 -138.5q0 -97 -54 -167t-134.5 -102t-175.5 -32q-138 0 -237.5 67t-155.5 196z" />
<glyph unicode="t" horiz-adv-x="598" d="M31 874v103h205v416h116v-416h215v-103h-215v-667q0 -119 80 -119q56 0 135 62v-121q-64 -47 -155 -47q-37 0 -65 7.5t-46.5 18t-31.5 32t-19.5 38t-9.5 48.5t-3.5 51.5t-0.5 57.5v5v634h-205z" />
<glyph unicode="u" d="M154 408v569h122v-559q0 -43 1.5 -72.5t6.5 -66.5t14 -62t25.5 -51t40.5 -41.5t58.5 -25t79.5 -9.5q122 0 194 72q60 58 78.5 134.5t18.5 184.5v54v442h120v-977h-120v176q-78 -199 -318 -199q-118 0 -199 66q-40 32 -66 74.5t-37.5 94t-15 94t-3.5 102.5z" />
<glyph unicode="v" horiz-adv-x="854" d="M20 977h121l271 -795l301 795h118l-374 -977h-99z" />
<glyph unicode="w" horiz-adv-x="1409" d="M43 977h117l262 -789l240 789h102l242 -789l243 789h117l-309 -977h-101l-241 805l-240 -805h-102z" />
<glyph unicode="x" horiz-adv-x="937" d="M43 0l358 508l-329 469h141l256 -373l264 373h129l-327 -469l358 -508h-137l-287 416l-297 -416h-129z" />
<glyph unicode="y" horiz-adv-x="894" d="M23 -334q73 -47 129 -47q21 0 39.5 10.5t31 25t25.5 38t20 41t17 43t14 35.5q31 75 72 188l-338 977h117l284 -832l318 832h122l-440 -1118q-43 -114 -63 -160q-19 -47 -35 -76.5t-41.5 -59.5t-61 -44.5t-81.5 -14.5q-73 0 -129 39v123z" />
<glyph unicode="z" horiz-adv-x="811" d="M57 0v76l529 796h-484v105h654v-72l-529 -796h543v-109h-713z" />
<glyph unicode="{" horiz-adv-x="548" d="M39 598v104q74 7 115 31q35 20 47 58.5t12 128.5l-2 342v10q0 117 14 172q38 160 238 160h59v-101h-35q-47 0 -72 -7t-42 -26q-18 -18 -25 -45q-10 -39 -10 -143v-356q0 -127 -33.5 -183t-132.5 -94q36 -11 54.5 -20t41.5 -29q40 -37 55 -85t15 -140v-357q0 -104 10 -143 q11 -42 43 -60t96 -18h35v-100l-59 2q-73 3 -117.5 19t-75.5 53q-34 42 -45 88q-14 63 -14 170v12l2 340q0 113 -20 149q-17 31 -52.5 46.5t-101.5 21.5z" />
<glyph unicode="|" horiz-adv-x="468" d="M170 -293v1886h125v-1886h-125z" />
<glyph unicode="}" horiz-adv-x="548" d="M25 -203h36q83 0 113 33q18 18 25 45q10 39 10 143v357q0 126 33.5 182t132.5 94q-37 11 -55 20t-39 29q-41 37 -56.5 85.5t-15.5 140.5v354q0 106 -10 145q-11 41 -43 59.5t-95 18.5h-36v101l59 -2q73 -3 117 -19t75 -53q33 -36 46 -88q14 -52 14 -170v-12l-2 -340 q0 -114 20 -150q18 -31 53.5 -47.5t100.5 -20.5v-104q-74 -7 -115 -31q-34 -20 -46.5 -59t-12.5 -127l2 -342v-10q0 -117 -14 -172q-42 -160 -238 -160h-59v100z" />
<glyph unicode="~" horiz-adv-x="1482" d="M154 545q36 51 57 75.5t51 51.5q93 80 213 80q33 0 86 -11q58 -14 197 -75l84 -37q72 -31 102.5 -41t59.5 -10q72 0 135 47q47 34 110 110l82 -84q-47 -58 -76.5 -86.5t-70.5 -56.5q-91 -59 -191 -59q-66 0 -133 28q-61 23 -110 47l-74 37q-124 62 -213 62q-35 0 -68 -13 q-14 -5 -25 -11.5t-25 -20t-22.5 -22.5t-30.5 -33.5t-36 -39.5l-20 -22z" />
<glyph unicode="&#xa1;" horiz-adv-x="425" d="M96 1221v237h154v-237h-154zM106 0v829q0 18 3 50.5t4 40.5l12 178h96l12 -178q1 -8 4 -40.5t3 -50.5v-829h-134z" />
<glyph unicode="&#xa2;" horiz-adv-x="980" d="M90 483q0 130 43.5 238t136 183.5t222.5 92.5v191h102v-189q112 0 206.5 -68.5t129.5 -174.5l-113 -29q-52 137 -223 164v-805q136 21 213 160l123 -27q-44 -107 -131.5 -169t-204.5 -73v-208h-102v208q-195 21 -298.5 162t-103.5 344zM221 487q0 -98 32.5 -193.5 t98.5 -148.5q52 -42 140 -59v801q-93 -20 -156 -82t-89 -142t-26 -176z" />
<glyph unicode="&#xa3;" horiz-adv-x="1236" d="M86 154q0 76 60.5 115.5t140.5 39.5q122 0 225 -57q39 92 39 147q0 103 -82 179h-270v106h190q-41 29 -106 102q-67 78 -102.5 145t-35.5 148q0 69 26.5 129t71.5 103t103.5 74t122.5 46t129 15q199 0 325 -97t146 -290l-135 -29q0 138 -96.5 215.5t-237.5 77.5 q-78 0 -147 -25t-117.5 -82t-48.5 -137q0 -39 12.5 -76t40 -73.5t48 -60t60.5 -62.5t54 -53q12 -12 33 -35.5t32 -34.5h312v-106h-248q55 -90 55 -187q0 -115 -55 -178q187 -98 264 -98q26 0 47 10t34 24t22.5 38.5t14 44t7 50t2.5 47v45.5v3.5v3.5v4l135 -14 q0 -377 -276 -377q-76 0 -150 28.5t-164 79.5q-112 -112 -260 -112q-41 0 -78.5 8.5t-70.5 27t-52.5 51.5t-19.5 77zM193 147q0 -30 30.5 -43.5t65.5 -13.5q121 0 180 62q-73 51 -184 51q-92 0 -92 -56z" />
<glyph unicode="&#xa5;" horiz-adv-x="1280" d="M20 1446h162l447 -713l465 713h166l-420 -629h321v-115h-397l-70 -108h467v-115h-467v-479h-135v479h-440v115h440l-65 108h-375v115h301z" />
<glyph unicode="&#xa6;" horiz-adv-x="468" d="M172 -293v811h125v-811h-125zM172 784v809h125v-809h-125z" />
<glyph unicode="&#xa7;" d="M80 33l96 94q72 -74 173.5 -120t201.5 -46q95 0 165 49t70 140q0 26 -8 49t-25.5 42.5t-33 33t-45 29t-44.5 23t-48.5 21t-42.5 17.5q-123 54 -195 94q-55 29 -92.5 55.5t-74.5 63.5t-56 84.5t-19 105.5q0 108 66 195.5t170 121.5q-70 47 -106.5 101t-36.5 131 q0 48 24 108q38 89 117 134t180 45q109 0 199.5 -45.5t189.5 -131.5l-94 -92q-84 71 -151.5 107.5t-151.5 36.5q-78 0 -128 -42.5t-50 -119.5q0 -48 35.5 -87t92 -67t124.5 -55.5t136.5 -60.5t125 -73.5t92 -103t35.5 -141.5q0 -212 -213 -321q83 -47 124.5 -106t41.5 -148 q0 -102 -56.5 -177t-141.5 -110t-185 -35q-129 0 -249 53t-212 148zM236 772q0 -60 45 -108q38 -42 170 -108.5t208 -90.5q68 37 124.5 110t56.5 142q0 73 -56 135q-66 71 -342 170q-85 -37 -145.5 -102t-60.5 -148z" />
<glyph unicode="&#xa8;" horiz-adv-x="555" d="M39 1192v188h125v-188h-125zM391 1192v188h125v-188h-125z" />
<glyph unicode="&#xa9;" horiz-adv-x="1705" d="M125 723q0 152 56.5 287.5t154 232t233 153t287.5 56.5q148 0 282.5 -57t232 -153t155 -229.5t57.5 -279.5q0 -205 -96 -374.5t-263.5 -267t-369.5 -97.5q-151 0 -286.5 56.5t-232.5 153.5t-153.5 232.5t-56.5 286.5zM190 721q0 -181 88.5 -333t241 -240.5t334.5 -88.5 q181 0 333 88.5t240.5 240.5t88.5 333q0 138 -51 261.5t-138.5 212t-210 140t-260.5 51.5q-183 0 -336 -88t-241.5 -241t-88.5 -336zM455 707q0 220 117.5 356.5t306.5 136.5q138 0 227.5 -71.5t126.5 -210.5l-111 -25q-32 108 -92 156.5t-162 48.5q-138 0 -216.5 -100.5 t-78.5 -280.5q0 -175 77.5 -272t217.5 -97q103 0 171.5 59t93.5 171l108 -13q-35 -155 -133.5 -238t-247.5 -83q-184 0 -294.5 126.5t-110.5 336.5z" />
<glyph unicode="&#xaa;" horiz-adv-x="641" d="M53 993q0 26 8.5 49t20 40.5t34 34t40.5 28t49 23t50.5 18t54.5 14.5t51 11.5t50 9.5t42 8v22q0 66 -33.5 96.5t-100.5 30.5q-82 0 -114.5 -32.5t-32.5 -114.5l-102 18q12 99 72.5 156t158.5 57q202 0 236 -125q6 -23 6 -94v-229q0 -65 14 -84t76 -19v-80h-21 q-25 0 -48 3t-49.5 11t-42.5 26t-15 44q-32 -48 -87 -72t-118 -24q-86 0 -142.5 45t-56.5 129zM147 995q0 -45 31.5 -67.5t77.5 -22.5q55 0 107 29.5t73 77.5q17 38 17 98v33q-8 -2 -57.5 -15t-86.5 -22.5t-76.5 -23.5t-50.5 -23q-35 -27 -35 -64z" />
<glyph unicode="&#xab;" horiz-adv-x="768" d="M78 633l241 379l99 -62l-205 -317l205 -289l-99 -63zM354 633l244 379l96 -62l-202 -317l202 -289l-96 -63z" />
<glyph unicode="&#xac;" horiz-adv-x="1482" d="M145 539v123h1160v-662h-125v539h-1035z" />
<glyph unicode="&#xad;" horiz-adv-x="698" d="M78 541v123h543v-123h-543z" />
<glyph unicode="&#xae;" horiz-adv-x="1705" d="M125 727q0 120 36 231t103 200t156 155.5t201 102.5t233 36q200 0 367.5 -96t264.5 -262.5t97 -364.5l-2 -10q-2 -151 -60 -285t-155 -230.5t-231.5 -153t-284.5 -56.5t-284.5 57.5t-231 155t-153 233.5t-56.5 287zM188 721q0 -181 88.5 -333t241 -240.5t334.5 -88.5 q135 0 257.5 52t211.5 140.5t142 211t53 256.5q0 185 -87.5 338t-239.5 241t-335 88q-137 0 -260.5 -52t-212 -141t-141 -212t-52.5 -260zM584 262v922h252q99 0 154.5 -17t92.5 -59q60 -66 60 -182q0 -101 -46.5 -164t-135.5 -82l194 -418h-121l-188 406h-152v-406h-110z M694 764h160q97 0 137.5 37t40.5 125q0 89 -41.5 123t-150.5 34h-146v-319z" />
<glyph unicode="&#xaf;" horiz-adv-x="555" d="M39 1192v127h477v-127h-477z" />
<glyph unicode="&#xb0;" horiz-adv-x="724" d="M61 1231q0 125 88.5 213t212.5 88q123 0 212.5 -89t89.5 -212q0 -124 -88.5 -212.5t-213.5 -88.5q-124 0 -212.5 88t-88.5 213zM184 1231q0 -73 52 -125.5t126 -52.5q73 0 125 52t52 126t-52 126t-125 52q-74 0 -126 -52.5t-52 -125.5z" />
<glyph unicode="&#xb1;" horiz-adv-x="1482" d="M193 0v123h1097v-123h-1097zM193 713v123h487v467h123v-467h487v-123h-487v-469h-123v469h-487z" />
<glyph unicode="&#xb2;" horiz-adv-x="768" d="M82 1194q0 127 86 197.5t215 70.5q137 0 223 -78t86 -213q0 -49 -16 -98.5t-40 -90.5t-63 -85.5t-74 -77t-85 -70.5t-83.5 -61.5t-80.5 -54.5h414v-90h-580v86q125 78 254 177t184 177q66 92 66 193q0 91 -56.5 145.5t-148.5 54.5q-85 0 -146 -51.5t-61 -134.5t76 -166 l-135 16q-35 86 -35 154z" />
<glyph unicode="&#xb3;" horiz-adv-x="768" d="M61 813l107 35q0 -114 51.5 -172t163.5 -58q86 0 141.5 44.5t55.5 128.5q0 101 -56.5 138.5t-163.5 37.5h-135v90q17 0 52.5 -1t54.5 -1q38 0 67.5 2.5t62 12t54 25.5t35.5 45.5t14 69.5q0 77 -53 121.5t-131 44.5q-89 0 -143 -55t-50 -143l-112 28q32 129 104.5 192.5 t200.5 63.5q126 0 206.5 -65.5t80.5 -188.5q0 -148 -140 -192q75 -21 116.5 -79.5t41.5 -137.5q0 -128 -88 -200.5t-219 -72.5q-99 0 -178 46.5t-115 134.5q-13 33 -25 106z" />
<glyph unicode="&#xb4;" horiz-adv-x="555" d="M49 1143l230 287h227l-348 -287h-109z" />
<glyph unicode="&#xb5;" horiz-adv-x="1097" d="M166 -442v1407h125v-504q0 -111 10.5 -172t36.5 -101q29 -44 81 -71t109 -27q72 0 132.5 39.5t95.5 108.5q25 47 33 99.5t8 162.5l2 465h123v-732q0 -90 13 -119.5t54 -29.5q23 0 55 14v-102q-42 -12 -75 -12q-83 0 -121 39t-43 127q-51 -93 -116 -134t-161 -41 q-80 0 -136 28.5t-103 92.5l8 -538h-131z" />
<glyph unicode="&#xb6;" horiz-adv-x="1316" d="M162 1051q0 172 108 280q62 62 139.5 88.5t198.5 26.5h453v-90h-68v-1698h-94v1698h-321v-1698h-95v1020q-54 6 -96 20q-104 37 -164.5 132.5t-60.5 220.5z" />
<glyph unicode="&#xb7;" horiz-adv-x="382" d="M109 483v222h165v-222h-165z" />
<glyph unicode="&#xb8;" horiz-adv-x="555" d="M135 -143l84 143h49l-49 -96q60 6 62 6q60 0 99.5 -36t39.5 -95q0 -81 -62.5 -124.5t-146.5 -43.5q-39 0 -76 6v55h15q7 0 22.5 -2t22.5 -2q49 0 84.5 18.5t35.5 63.5q0 36 -31 56t-69 20q-36 0 -80 -21v52z" />
<glyph unicode="&#xb9;" horiz-adv-x="768" d="M209 1223v90q83 0 121.5 27t38.5 106h98v-903h-98v706q-46 -26 -129 -26h-31z" />
<glyph unicode="&#xba;" horiz-adv-x="681" d="M59 1135q0 140 75.5 233.5t211.5 93.5q129 0 203 -93.5t74 -225.5q0 -137 -76 -231.5t-209 -94.5q-132 0 -205.5 91.5t-73.5 226.5zM160 1133q0 -98 43.5 -164t136.5 -66t137.5 67t44.5 165q0 47 -8.5 88t-28 77t-55.5 57t-86 21q-97 0 -140.5 -70.5t-43.5 -174.5z" />
<glyph unicode="&#xbb;" horiz-adv-x="768" d="M74 342l202 317l-202 289l96 64l244 -353l-244 -378zM350 342l203 317l-203 289l99 64l241 -353l-241 -378z" />
<glyph unicode="&#xbc;" horiz-adv-x="1792" d="M209 1223v90q83 0 121.5 27t38.5 106h98v-903h-98v706q-46 -26 -129 -26h-31zM502 -43l719 1577l86 -39l-723 -1575zM1104 221v78l391 606h100v-594h136v-90h-136v-221h-98v221h-393zM1221 311h276v422z" />
<glyph unicode="&#xbd;" horiz-adv-x="1792" d="M209 1223v90q83 0 121.5 27t38.5 106h98v-903h-98v706q-46 -26 -129 -26h-31zM453 -43l721 1577l83 -39l-722 -1575zM1106 651q0 127 86 198t215 71q137 0 223 -78t86 -213q0 -57 -19.5 -113t-57.5 -107t-77 -93.5t-96.5 -87.5t-96.5 -73t-95 -65h414v-90h-580v86 q115 71 252 176t186 178q66 96 66 193q0 91 -56.5 146t-148.5 55q-85 0 -146 -52t-61 -135q0 -79 76 -166l-135 17q-35 86 -35 153z" />
<glyph unicode="&#xbe;" horiz-adv-x="1792" d="M61 813l107 35q0 -114 51.5 -172t163.5 -58q86 0 141.5 44.5t55.5 128.5q0 101 -56.5 138.5t-163.5 37.5h-135v90q17 0 52.5 -1t54.5 -1q38 0 67.5 2.5t62 12t54 25.5t35.5 45.5t14 69.5q0 77 -53 121.5t-131 44.5q-89 0 -143 -55t-50 -143l-112 28q32 129 104.5 192.5 t200.5 63.5q126 0 206.5 -65.5t80.5 -188.5q0 -148 -140 -192q75 -21 116.5 -79.5t41.5 -137.5q0 -128 -88 -200.5t-219 -72.5q-99 0 -178 46.5t-115 134.5q-13 33 -25 106zM573 -43l721 1577l84 -39l-723 -1575zM1104 221v78l391 606h100v-594h136v-90h-136v-221h-98v221 h-393zM1221 311h276v422z" />
<glyph unicode="&#xbf;" horiz-adv-x="980" d="M35 371q0 59 13.5 110.5t30.5 87.5t54.5 81t63 70t79.5 75q11 10 36 32.5t31.5 29t23.5 24.5t20.5 27t13 26.5t11 34.5t4 40t2.5 52v39h127v-70q0 -49 -6.5 -85t-14.5 -60t-32.5 -54t-41.5 -47t-61 -57q-98 -93 -131 -131q-90 -108 -90 -219q0 -123 77.5 -202t200.5 -79 q126 0 199.5 76t73.5 203q0 120 -51 196l153 -43q2 -13 7.5 -40t9 -44t6 -40t2.5 -42q0 -180 -110.5 -283.5t-291.5 -103.5q-174 0 -291.5 111.5t-117.5 284.5zM399 1208v238h160v-238h-160z" />
<glyph unicode="&#xc0;" horiz-adv-x="1323" d="M20 0l590 1446h115l575 -1446h-149l-166 436h-647l-166 -436h-152zM328 1833h217l200 -256h-116zM383 547h561l-278 739z" />
<glyph unicode="&#xc1;" horiz-adv-x="1323" d="M20 0l590 1446h115l575 -1446h-149l-166 436h-647l-166 -436h-152zM383 547h561l-278 739zM569 1577l203 256h217l-301 -256h-119z" />
<glyph unicode="&#xc2;" horiz-adv-x="1323" d="M20 0l590 1446h115l575 -1446h-149l-166 436h-647l-166 -436h-152zM383 547h561l-278 739zM410 1581l215 252h86l213 -252h-101l-159 115l-158 -115h-96z" />
<glyph unicode="&#xc3;" horiz-adv-x="1323" d="M20 0l590 1446h115l575 -1446h-149l-166 436h-647l-166 -436h-152zM324 1612q12 38 28.5 71t41 66.5t58 53.5t72.5 20q38 0 82 -18t76 -39.5t69.5 -39.5t63.5 -18q66 0 109 107l88 -39q-3 -6 -25 -54q-63 -137 -170 -137q-48 0 -107.5 28.5t-111.5 56.5t-84 28 q-41 0 -65.5 -32t-42.5 -81zM383 547h561l-278 739z" />
<glyph unicode="&#xc4;" horiz-adv-x="1323" d="M20 0l590 1446h115l575 -1446h-149l-166 436h-647l-166 -436h-152zM377 1606v198h137v-198h-137zM383 547h561l-278 739zM825 1606v198h138v-198h-138z" />
<glyph unicode="&#xc5;" horiz-adv-x="1323" d="M20 0l590 1446h115l575 -1446h-149l-166 436h-647l-166 -436h-152zM383 547h561l-278 739zM508 1694q0 68 48 116t116 48q66 0 115 -49t49 -115t-49 -114t-115 -48q-67 0 -115.5 47.5t-48.5 114.5zM582 1698q0 -35 25.5 -61.5t60.5 -26.5q37 0 62.5 25.5t25.5 62.5 q0 35 -26.5 60.5t-61.5 25.5q-34 0 -60 -26t-26 -60z" />
<glyph unicode="&#xc6;" horiz-adv-x="2048" d="M0 0l926 1446h1022v-125h-842v-520h758v-127h-758v-551h881v-123h-1016v418h-545l-264 -418h-162zM508 547h463v747z" />
<glyph unicode="&#xc7;" horiz-adv-x="1366" d="M102 713q0 124 20.5 234t67.5 209.5t117 171t176 113.5t238 42q346 0 502 -262q10 -19 28.5 -57t28.5 -56l-139 -70v4q0 29 -29 87t-53 90q-113 143 -334 143q-106 0 -189.5 -36t-137 -96t-88.5 -143t-49.5 -170.5t-14.5 -185.5q0 -107 14.5 -198t50 -175.5t91.5 -143 t145 -93.5t203 -35q103 0 178.5 36t136.5 116q64 87 76 155l129 -78q-154 -349 -527 -352l-30 -59q30 6 61 6q60 0 99.5 -35.5t39.5 -95.5q0 -81 -62 -124.5t-146 -43.5q-37 0 -74 6v55h14q7 0 22.5 -2t22.5 -2q49 0 84 18.5t35 63.5q0 37 -31 56.5t-69 19.5q-34 0 -78 -21 v52l61 108q-172 20 -252 60q-93 46 -161 122.5t-105.5 170.5t-54.5 191.5t-17 203.5z" />
<glyph unicode="&#xc8;" horiz-adv-x="1236" d="M166 0v1446h944v-125h-807v-516h731v-127h-731v-551h858v-127h-995zM285 1833h217l203 -256h-119z" />
<glyph unicode="&#xc9;" horiz-adv-x="1236" d="M166 0v1446h944v-125h-807v-516h731v-127h-731v-551h858v-127h-995zM528 1577l203 256h215l-301 -256h-117z" />
<glyph unicode="&#xca;" horiz-adv-x="1236" d="M166 0v1446h944v-125h-807v-516h731v-127h-731v-551h858v-127h-995zM367 1581l215 252h86l213 -252h-101l-159 115l-158 -115h-96z" />
<glyph unicode="&#xcb;" horiz-adv-x="1236" d="M166 0v1446h944v-125h-807v-516h731v-127h-731v-551h858v-127h-995zM328 1606v198h137v-198h-137zM776 1606v198h137v-198h-137z" />
<glyph unicode="&#xcc;" horiz-adv-x="468" d="M-100 1833h217l202 -256h-116zM166 0v1446h137v-1446h-137z" />
<glyph unicode="&#xcd;" horiz-adv-x="468" d="M143 1577l203 256h217l-303 -256h-117zM166 0v1446h137v-1446h-137z" />
<glyph unicode="&#xce;" horiz-adv-x="468" d="M-16 1581l213 252h86l215 -252h-101l-159 115l-158 -115h-96zM166 0v1446h137v-1446h-137z" />
<glyph unicode="&#xcf;" horiz-adv-x="468" d="M-57 1606v198h137v-198h-137zM166 0v1446h137v-1446h-137zM391 1606v198h137v-198h-137z" />
<glyph unicode="&#xd0;" horiz-adv-x="1409" d="M0 721v110h166v615h412q80 0 127 -1.5t120 -11.5t123 -30q92 -37 163.5 -112t112.5 -169t62 -194t21 -199q0 -103 -22 -206t-65.5 -200t-119 -173.5t-172.5 -110.5q-108 -39 -332 -39h-430v721h-166zM305 123h277q233 0 327 45q67 32 118.5 96t81 142t44 157t14.5 154 q0 84 -14.5 166t-45 163t-87.5 145.5t-133 96.5q-35 15 -81 23t-75.5 9t-83.5 1h-342v-490h453v-110h-453v-598z" />
<glyph unicode="&#xd1;" horiz-adv-x="1449" d="M166 0v1446h135l858 -1237l-10 1237h135v-1446h-135l-848 1249v-1249h-135zM387 1612q17 52 41 96t67.5 79.5t94.5 35.5q37 0 80.5 -18t76 -39.5t69.5 -39.5t63 -18q37 0 65 32t45 75l86 -39q-16 -37 -31.5 -65.5t-39.5 -60t-55.5 -48.5t-67.5 -17q-48 0 -107 28.5 t-111.5 56.5t-84.5 28q-22 0 -39.5 -10t-31 -29.5t-21 -34.5t-17.5 -39z" />
<glyph unicode="&#xd2;" horiz-adv-x="1449" d="M102 727q0 121 23.5 230.5t73.5 206t123.5 167t179 111.5t233.5 41q124 0 227 -40.5t173.5 -109.5t119 -164t71 -202t22.5 -224q0 -85 -10.5 -165.5t-34 -158.5t-57.5 -145.5t-84.5 -125t-112.5 -98.5t-142.5 -64t-173.5 -23q-128 0 -233.5 42t-178 114t-123 169.5 t-73.5 208t-23 230.5zM248 723q0 -94 15 -181.5t51 -171.5t89.5 -146t135.5 -100t184 -38q103 0 186 39t136.5 103t90 150t51.5 175.5t15 183.5q0 91 -15.5 177.5t-51.5 169t-89 144t-133.5 99t-179.5 37.5q-103 0 -186.5 -37.5t-138 -100t-91.5 -146.5t-53 -173t-16 -184z M391 1833h217l203 -256h-119z" />
<glyph unicode="&#xd3;" horiz-adv-x="1449" d="M102 727q0 121 23.5 230.5t73.5 206t123.5 167t179 111.5t233.5 41q124 0 227 -40.5t173.5 -109.5t119 -164t71 -202t22.5 -224q0 -85 -10.5 -165.5t-34 -158.5t-57.5 -145.5t-84.5 -125t-112.5 -98.5t-142.5 -64t-173.5 -23q-128 0 -233.5 42t-178 114t-123 169.5 t-73.5 208t-23 230.5zM248 723q0 -94 15 -181.5t51 -171.5t89.5 -146t135.5 -100t184 -38q103 0 186 39t136.5 103t90 150t51.5 175.5t15 183.5q0 91 -15.5 177.5t-51.5 169t-89 144t-133.5 99t-179.5 37.5q-103 0 -186.5 -37.5t-138 -100t-91.5 -146.5t-53 -173t-16 -184z M635 1577l203 256h215l-301 -256h-117z" />
<glyph unicode="&#xd4;" horiz-adv-x="1449" d="M102 727q0 121 23.5 230.5t73.5 206t123.5 167t179 111.5t233.5 41q124 0 227 -40.5t173.5 -109.5t119 -164t71 -202t22.5 -224q0 -85 -10.5 -165.5t-34 -158.5t-57.5 -145.5t-84.5 -125t-112.5 -98.5t-142.5 -64t-173.5 -23q-128 0 -233.5 42t-178 114t-123 169.5 t-73.5 208t-23 230.5zM248 723q0 -94 15 -181.5t51 -171.5t89.5 -146t135.5 -100t184 -38q103 0 186 39t136.5 103t90 150t51.5 175.5t15 183.5q0 91 -15.5 177.5t-51.5 169t-89 144t-133.5 99t-179.5 37.5q-103 0 -186.5 -37.5t-138 -100t-91.5 -146.5t-53 -173t-16 -184z M473 1581l215 252h86l213 -252h-100l-160 115l-156 -115h-98z" />
<glyph unicode="&#xd5;" horiz-adv-x="1449" d="M102 727q0 121 23.5 230.5t73.5 206t123.5 167t179 111.5t233.5 41q124 0 227 -40.5t173.5 -109.5t119 -164t71 -202t22.5 -224q0 -85 -10.5 -165.5t-34 -158.5t-57.5 -145.5t-84.5 -125t-112.5 -98.5t-142.5 -64t-173.5 -23q-128 0 -233.5 42t-178 114t-123 169.5 t-73.5 208t-23 230.5zM248 723q0 -94 15 -181.5t51 -171.5t89.5 -146t135.5 -100t184 -38q103 0 186 39t136.5 103t90 150t51.5 175.5t15 183.5q0 91 -15.5 177.5t-51.5 169t-89 144t-133.5 99t-179.5 37.5q-103 0 -186.5 -37.5t-138 -100t-91.5 -146.5t-53 -173t-16 -184z M387 1612q17 52 41 96t67.5 79.5t94.5 35.5q37 0 80.5 -18t76 -39.5t69.5 -39.5t63 -18q37 0 65 32t45 75l86 -39q-16 -37 -31.5 -65.5t-39.5 -60t-55.5 -48.5t-67.5 -17q-48 0 -107 28.5t-111.5 56.5t-84.5 28q-22 0 -39.5 -10t-31 -29.5t-21 -34.5t-17.5 -39z" />
<glyph unicode="&#xd6;" horiz-adv-x="1449" d="M102 727q0 121 23.5 230.5t73.5 206t123.5 167t179 111.5t233.5 41q124 0 227 -40.5t173.5 -109.5t119 -164t71 -202t22.5 -224q0 -85 -10.5 -165.5t-34 -158.5t-57.5 -145.5t-84.5 -125t-112.5 -98.5t-142.5 -64t-173.5 -23q-128 0 -233.5 42t-178 114t-123 169.5 t-73.5 208t-23 230.5zM248 723q0 -94 15 -181.5t51 -171.5t89.5 -146t135.5 -100t184 -38q103 0 186 39t136.5 103t90 150t51.5 175.5t15 183.5q0 91 -15.5 177.5t-51.5 169t-89 144t-133.5 99t-179.5 37.5q-103 0 -186.5 -37.5t-138 -100t-91.5 -146.5t-53 -173t-16 -184z M436 1606v198h137v-198h-137zM885 1606v198h137v-198h-137z" />
<glyph unicode="&#xd7;" horiz-adv-x="1482" d="M307 254l344 344l-344 344l88 88l344 -344l344 344l86 -88l-344 -344l346 -344l-88 -88l-344 346l-346 -344z" />
<glyph unicode="&#xd8;" horiz-adv-x="1449" d="M102 727q0 123 23 233t73.5 206.5t123.5 166t179.5 110t235.5 40.5q260 0 424 -172l123 151l80 -63l-137 -168q127 -205 127 -488q0 -125 -21 -236.5t-69 -212t-119.5 -173.5t-179 -115.5t-240.5 -42.5q-265 0 -410 160l-120 -143l-76 63l131 160q-78 123 -113 248.5 t-35 275.5zM248 729q0 -240 94 -416l725 887q-44 81 -134 120.5t-192 39.5q-135 0 -219 -43q-74 -37 -129.5 -104.5t-85.5 -150t-44.5 -165.5t-14.5 -168zM401 229q58 -73 143 -109t183 -36q125 0 220 51.5t150 139t82 192.5t27 223q0 256 -80 420z" />
<glyph unicode="&#xd9;" horiz-adv-x="1409" d="M164 590v856h135v-893q0 -47 1.5 -79t6 -74t15 -73t27.5 -64.5t44.5 -61t63.5 -49.5q100 -62 256 -62q96 0 166.5 23t114 63t69.5 103t35.5 132t9.5 162v873h137v-864q0 -73 -2.5 -122.5t-13.5 -113.5t-31 -110.5t-57 -95t-90 -85.5q-130 -92 -353 -92q-224 0 -366 117 q-57 47 -93 105t-51.5 131t-19.5 129.5t-4 144.5zM369 1833h217l202 -256h-116z" />
<glyph unicode="&#xda;" horiz-adv-x="1409" d="M164 590v856h135v-893q0 -47 1.5 -79t6 -74t15 -73t27.5 -64.5t44.5 -61t63.5 -49.5q100 -62 256 -62q96 0 166.5 23t114 63t69.5 103t35.5 132t9.5 162v873h137v-864q0 -73 -2.5 -122.5t-13.5 -113.5t-31 -110.5t-57 -95t-90 -85.5q-130 -92 -353 -92q-224 0 -366 117 q-57 47 -93 105t-51.5 131t-19.5 129.5t-4 144.5zM612 1577l203 256h217l-303 -256h-117z" />
<glyph unicode="&#xdb;" horiz-adv-x="1409" d="M164 590v856h135v-893q0 -47 1.5 -79t6 -74t15 -73t27.5 -64.5t44.5 -61t63.5 -49.5q100 -62 256 -62q96 0 166.5 23t114 63t69.5 103t35.5 132t9.5 162v873h137v-864q0 -73 -2.5 -122.5t-13.5 -113.5t-31 -110.5t-57 -95t-90 -85.5q-130 -92 -353 -92q-224 0 -366 117 q-57 47 -93 105t-51.5 131t-19.5 129.5t-4 144.5zM453 1581l215 252h86l213 -252h-101l-159 115l-158 -115h-96z" />
<glyph unicode="&#xdc;" horiz-adv-x="1409" d="M164 590v856h135v-893q0 -47 1.5 -79t6 -74t15 -73t27.5 -64.5t44.5 -61t63.5 -49.5q100 -62 256 -62q96 0 166.5 23t114 63t69.5 103t35.5 132t9.5 162v873h137v-864q0 -73 -2.5 -122.5t-13.5 -113.5t-31 -110.5t-57 -95t-90 -85.5q-130 -92 -353 -92q-224 0 -366 117 q-57 47 -93 105t-51.5 131t-19.5 129.5t-4 144.5zM414 1606v198h137v-198h-137zM862 1606v198h137v-198h-137z" />
<glyph unicode="&#xdd;" horiz-adv-x="1280" d="M20 1446h162l447 -719l465 719h166l-566 -848v-598h-135v598zM549 1577l203 256h217l-303 -256h-117z" />
<glyph unicode="&#xde;" horiz-adv-x="1280" d="M166 0v1446h131v-223q82 0 244.5 1t244.5 1q62 0 108.5 -4t101.5 -16.5t100 -40t78 -70.5q81 -104 81 -269q0 -153 -79 -256q-67 -85 -164.5 -114t-229.5 -29q-28 0 -83 1t-83 1h-319v-428h-131zM297 549q79 0 237.5 -1t237.5 -1q109 0 180 19.5t121 86.5q49 65 49 168 q0 160 -80 223.5t-245 63.5h-500v-559z" />
<glyph unicode="&#xdf;" horiz-adv-x="1024" d="M152 0v1020q0 65 3.5 108.5t14.5 98t37.5 99t68.5 79.5q94 78 238 78q155 0 249.5 -96t94.5 -250q0 -119 -64 -207t-178 -101q111 -15 186.5 -81.5t107.5 -158.5t32 -204q0 -79 -19.5 -151t-57.5 -132.5t-103 -96.5t-148 -36q-127 0 -225 64v139q123 -92 221 -92 q58 0 99.5 28.5t62.5 75.5t30 96t9 103q0 182 -100.5 277.5t-284.5 95.5h-64v118q5 0 14.5 -1t14.5 -1q71 0 128 12.5t106 40.5t76.5 81t27.5 127q0 105 -59.5 169t-163.5 64q-39 0 -71 -8.5t-55 -21t-41.5 -35.5t-30 -42.5t-19.5 -53t-12 -56t-6.5 -61.5t-2.5 -60v-61v-13 v-954h-116z" />
<glyph unicode="&#xe0;" horiz-adv-x="1024" d="M92 248q0 56 21 103t67.5 81t85.5 57.5t111 44.5t106 29.5t106 23.5q29 6 42 9l114 25v51q0 118 -59.5 170.5t-179.5 52.5q-126 0 -189 -56t-63 -180l-133 23q48 319 387 319q82 0 166.5 -24.5t126.5 -75.5q38 -46 49.5 -101t11.5 -134v-430q0 -84 31 -113t115 -27v-96 h-17q-45 0 -76.5 3t-66.5 13.5t-56 29t-34.5 52t-12.5 80.5q-31 -66 -73 -106q-49 -46 -123 -69t-150 -23q-132 0 -219.5 70t-87.5 198zM209 252q0 -79 56 -122.5t136 -43.5q97 0 192.5 53.5t129.5 139.5q22 56 22 163v74q-7 -2 -139 -36t-221 -62.5t-115 -50.5 q-61 -51 -61 -115zM215 1430h227l230 -287h-109z" />
<glyph unicode="&#xe1;" horiz-adv-x="1024" d="M92 248q0 56 21 103t67.5 81t85.5 57.5t111 44.5t106 29.5t106 23.5q29 6 42 9l114 25v51q0 118 -59.5 170.5t-179.5 52.5q-126 0 -189 -56t-63 -180l-133 23q48 319 387 319q82 0 166.5 -24.5t126.5 -75.5q38 -46 49.5 -101t11.5 -134v-430q0 -84 31 -113t115 -27v-96 h-17q-45 0 -76.5 3t-66.5 13.5t-56 29t-34.5 52t-12.5 80.5q-31 -66 -73 -106q-49 -46 -123 -69t-150 -23q-132 0 -219.5 70t-87.5 198zM209 252q0 -79 56 -122.5t136 -43.5q97 0 192.5 53.5t129.5 139.5q22 56 22 163v74q-7 -2 -139 -36t-221 -62.5t-115 -50.5 q-61 -51 -61 -115zM426 1143l227 287h230l-348 -287h-109z" />
<glyph unicode="&#xe2;" horiz-adv-x="1024" d="M92 248q0 56 21 103t67.5 81t85.5 57.5t111 44.5t106 29.5t106 23.5q29 6 42 9l114 25v51q0 118 -59.5 170.5t-179.5 52.5q-126 0 -189 -56t-63 -180l-133 23q48 319 387 319q82 0 166.5 -24.5t126.5 -75.5q38 -46 49.5 -101t11.5 -134v-430q0 -84 31 -113t115 -27v-96 h-17q-45 0 -76.5 3t-66.5 13.5t-56 29t-34.5 52t-12.5 80.5q-31 -66 -73 -106q-49 -46 -123 -69t-150 -23q-132 0 -219.5 70t-87.5 198zM209 252q0 -79 56 -122.5t136 -43.5q97 0 192.5 53.5t129.5 139.5q22 56 22 163v74q-7 -2 -139 -36t-221 -62.5t-115 -50.5 q-61 -51 -61 -115zM225 1143l262 282h54l274 -282h-104l-201 133l-182 -133h-103z" />
<glyph unicode="&#xe3;" horiz-adv-x="1024" d="M92 248q0 56 21 103t67.5 81t85.5 57.5t111 44.5t106 29.5t106 23.5q29 6 42 9l114 25v51q0 118 -59.5 170.5t-179.5 52.5q-126 0 -189 -56t-63 -180l-133 23q48 319 387 319q82 0 166.5 -24.5t126.5 -75.5q38 -46 49.5 -101t11.5 -134v-430q0 -84 31 -113t115 -27v-96 h-17q-45 0 -76.5 3t-66.5 13.5t-56 29t-34.5 52t-12.5 80.5q-31 -66 -73 -106q-49 -46 -123 -69t-150 -23q-132 0 -219.5 70t-87.5 198zM190 1208q15 38 30.5 66.5t38.5 56.5t54.5 43t69.5 15q42 0 92 -23.5t95.5 -47.5t76.5 -24q20 0 35 6.5t28 22.5t19.5 26t18.5 33 l81 -20q-18 -40 -32 -65.5t-37.5 -56.5t-54 -46.5t-68.5 -15.5q-51 0 -142.5 49t-123.5 49q-59 0 -95 -86zM209 252q0 -79 56 -122.5t136 -43.5q97 0 192.5 53.5t129.5 139.5q22 56 22 163v74q-7 -2 -139 -36t-221 -62.5t-115 -50.5q-61 -51 -61 -115z" />
<glyph unicode="&#xe4;" horiz-adv-x="1024" d="M92 248q0 56 21 103t67.5 81t85.5 57.5t111 44.5t106 29.5t106 23.5q29 6 42 9l114 25v51q0 118 -59.5 170.5t-179.5 52.5q-126 0 -189 -56t-63 -180l-133 23q48 319 387 319q82 0 166.5 -24.5t126.5 -75.5q38 -46 49.5 -101t11.5 -134v-430q0 -84 31 -113t115 -27v-96 h-17q-45 0 -76.5 3t-66.5 13.5t-56 29t-34.5 52t-12.5 80.5q-31 -66 -73 -106q-49 -46 -123 -69t-150 -23q-132 0 -219.5 70t-87.5 198zM209 252q0 -79 56 -122.5t136 -43.5q97 0 192.5 53.5t129.5 139.5q22 56 22 163v74q-7 -2 -139 -36t-221 -62.5t-115 -50.5 q-61 -51 -61 -115zM250 1192v188h125v-188h-125zM602 1192v188h125v-188h-125z" />
<glyph unicode="&#xe5;" horiz-adv-x="1024" d="M92 248q0 56 21 103t67.5 81t85.5 57.5t111 44.5t106 29.5t106 23.5q29 6 42 9l114 25v51q0 118 -59.5 170.5t-179.5 52.5q-126 0 -189 -56t-63 -180l-133 23q48 319 387 319q82 0 166.5 -24.5t126.5 -75.5q38 -46 49.5 -101t11.5 -134v-430q0 -84 31 -113t115 -27v-96 h-17q-45 0 -76.5 3t-66.5 13.5t-56 29t-34.5 52t-12.5 80.5q-31 -66 -73 -106q-49 -46 -123 -69t-150 -23q-132 0 -219.5 70t-87.5 198zM209 252q0 -79 56 -122.5t136 -43.5q97 0 192.5 53.5t129.5 139.5q22 56 22 163v74q-7 -2 -139 -36t-221 -62.5t-115 -50.5 q-61 -51 -61 -115zM330 1294q0 67 48 114.5t116 47.5q67 0 114 -47t47 -115t-47 -116t-114 -48q-68 0 -116 48t-48 116zM403 1296q0 -35 25.5 -60.5t60.5 -25.5t60.5 25.5t25.5 60.5t-25.5 60.5t-60.5 25.5q-37 0 -61.5 -24.5t-24.5 -61.5z" />
<glyph unicode="&#xe6;" horiz-adv-x="1705" d="M78 238q0 126 108 208q26 19 64.5 37t91 34t88.5 26t97 24.5t75 18.5l146 37v49q0 126 -47.5 171.5t-174.5 45.5q-137 0 -210 -50t-72 -180l-135 17q19 165 128.5 245t280.5 80q111 0 202 -37t130 -124q66 87 145.5 124t192.5 37q109 0 194 -42t136.5 -114.5t77.5 -163.5 t26 -196h-754v-49q0 -158 85.5 -256t240.5 -98q115 0 189 55.5t128 165.5l111 -22q-25 -73 -84 -146q-130 -160 -344 -160q-133 0 -244 61t-153 177q-58 -117 -163.5 -175t-240.5 -58q-86 0 -155 25t-114.5 85t-45.5 148zM197 244q0 -80 56 -117t140 -37q96 0 192.5 46 t135.5 124q27 51 27 152v102q-6 -2 -54 -13.5t-77 -18.5t-81.5 -20.5t-89 -24.5t-77.5 -24.5t-69 -26.5t-42 -24q-34 -27 -47.5 -52.5t-13.5 -65.5zM868 586h611q-12 97 -29 137q-34 85 -104.5 127.5t-165.5 42.5q-137 0 -218.5 -84t-93.5 -223z" />
<glyph unicode="&#xe7;" horiz-adv-x="980" d="M90 483q0 145 52.5 261t160 186.5t254.5 70.5q132 0 229.5 -62t143.5 -183l-113 -29q-30 77 -104 121.5t-160 44.5q-67 0 -122.5 -22.5t-93.5 -61t-64.5 -91t-39 -110.5t-12.5 -121q0 -80 17.5 -150t54.5 -128.5t101 -92.5t149 -34q92 0 155.5 40.5t108.5 123.5l123 -27 q-61 -123 -146.5 -178t-224.5 -66l-37 -71l60 6q60 0 100.5 -35.5t40.5 -95.5q0 -83 -62 -125.5t-149 -42.5q-36 0 -74 6v55h15q7 0 22.5 -2t22.5 -2q49 0 84.5 18.5t35.5 63.5q0 37 -31.5 56.5t-70.5 19.5q-34 0 -78 -21v52l70 120q-104 12 -156 33q-89 37 -150 115.5 t-86.5 168.5t-25.5 189z" />
<glyph unicode="&#xe8;" d="M90 498q0 100 30.5 190.5t86.5 160.5t142 111t190 41q139 0 241.5 -73.5t151.5 -188t49 -250.5h-758v-20q0 -173 83.5 -278t252.5 -105q209 0 309 205l113 -33q-63 -144 -167.5 -213.5t-260.5 -69.5q-113 0 -202.5 41t-145.5 112.5t-85.5 165.5t-29.5 204zM162 1430h227 l229 -287h-108zM225 588h617q-16 137 -92.5 221t-208.5 84q-133 0 -214.5 -84t-101.5 -221z" />
<glyph unicode="&#xe9;" d="M90 498q0 100 30.5 190.5t86.5 160.5t142 111t190 41q139 0 241.5 -73.5t151.5 -188t49 -250.5h-758v-20q0 -173 83.5 -278t252.5 -105q209 0 309 205l113 -33q-63 -144 -167.5 -213.5t-260.5 -69.5q-113 0 -202.5 41t-145.5 112.5t-85.5 165.5t-29.5 204zM225 588h617 q-16 137 -92.5 221t-208.5 84q-133 0 -214.5 -84t-101.5 -221zM446 1143l230 287h229l-350 -287h-109z" />
<glyph unicode="&#xea;" d="M90 498q0 100 30.5 190.5t86.5 160.5t142 111t190 41q139 0 241.5 -73.5t151.5 -188t49 -250.5h-758v-20q0 -173 83.5 -278t252.5 -105q209 0 309 205l113 -33q-63 -144 -167.5 -213.5t-260.5 -69.5q-113 0 -202.5 41t-145.5 112.5t-85.5 165.5t-29.5 204zM225 588h617 q-16 137 -92.5 221t-208.5 84q-133 0 -214.5 -84t-101.5 -221zM248 1143l260 282h55l275 -282h-105l-203 133l-182 -133h-100z" />
<glyph unicode="&#xeb;" d="M90 498q0 100 30.5 190.5t86.5 160.5t142 111t190 41q139 0 241.5 -73.5t151.5 -188t49 -250.5h-758v-20q0 -173 83.5 -278t252.5 -105q209 0 309 205l113 -33q-63 -144 -167.5 -213.5t-260.5 -69.5q-113 0 -202.5 41t-145.5 112.5t-85.5 165.5t-29.5 204zM225 588h617 q-16 137 -92.5 221t-208.5 84q-133 0 -214.5 -84t-101.5 -221zM297 1192v188h125v-188h-125zM649 1192v188h125v-188h-125z" />
<glyph unicode="&#xec;" horiz-adv-x="425" d="M-158 1430h228l229 -287h-109zM154 0v977h118v-977h-118z" />
<glyph unicode="&#xed;" horiz-adv-x="425" d="M127 1143l229 287h230l-350 -287h-109zM154 0v977h118v-977h-118z" />
<glyph unicode="&#xee;" horiz-adv-x="425" d="M-74 1143l262 282h54l276 -282h-106l-201 133l-182 -133h-103zM154 0v977h118v-977h-118z" />
<glyph unicode="&#xef;" horiz-adv-x="425" d="M-23 1192v188h123v-188h-123zM154 0v977h118v-977h-118zM328 1192v188h125v-188h-125z" />
<glyph unicode="&#xf0;" d="M90 477q0 104 27.5 197.5t80 169t138.5 120t194 44.5q95 0 160.5 -36t128.5 -114q-46 178 -137 320l-326 -105l-32 76l311 98q-63 84 -158 176l88 54q110 -118 168 -197l187 59l30 -77l-166 -54q193 -333 193 -663q0 -151 -31 -250q-44 -147 -154.5 -230t-263.5 -83 q-105 0 -189.5 39.5t-138 108t-82 157t-28.5 190.5zM219 481q0 -79 16.5 -146t51 -124t95.5 -90t144 -33q86 0 150 34t100.5 93t54 129.5t17.5 151.5q0 62 -9.5 119t-32.5 110.5t-57.5 93t-88 63t-121.5 23.5q-71 0 -127 -24.5t-91.5 -64.5t-59 -96t-33 -114.5t-9.5 -124.5z " />
<glyph unicode="&#xf1;" d="M154 0v977h120v-174q36 95 118 144.5t188 49.5q335 0 335 -393q0 -100 -1 -302t-1 -302h-120v578v12q0 47 -1.5 73.5t-8.5 66t-25 68.5t-47 50q-55 41 -146 41q-119 0 -194 -72q-20 -19 -36 -42t-26 -42.5t-17.5 -49t-11 -47t-5 -52.5t-2 -50t0 -54.5t0.5 -51.5v-428 h-120zM213 1208q16 38 30.5 65.5t37 56.5t53.5 44t69 15q43 0 93 -23.5t95 -47.5t77 -24q20 0 35.5 6t28 22t18.5 26t18 34l84 -20q-5 -9 -13.5 -29.5t-13.5 -29.5q-28 -54 -71 -89.5t-97 -35.5q-50 0 -142.5 49t-123.5 49q-35 0 -56 -23t-38 -63z" />
<glyph unicode="&#xf2;" d="M90 477q0 108 28 201.5t82.5 166t142.5 114.5t200 42q105 0 189.5 -42.5t137 -115t80 -163t27.5 -191.5q0 -102 -29.5 -193.5t-84.5 -163.5t-141 -114.5t-192 -42.5q-139 0 -241 70.5t-150.5 182.5t-48.5 249zM162 1430h227l229 -287h-108zM219 475q0 -61 10 -116.5 t33.5 -106.5t58 -88.5t87.5 -59.5t118 -22q87 0 151 34.5t100.5 94t53.5 130.5t17 153q0 79 -16.5 148t-51 128.5t-96.5 94t-145 34.5q-71 0 -127.5 -24.5t-92 -64.5t-58.5 -96t-32.5 -114.5t-9.5 -124.5z" />
<glyph unicode="&#xf3;" d="M90 477q0 108 28 201.5t82.5 166t142.5 114.5t200 42q105 0 189.5 -42.5t137 -115t80 -163t27.5 -191.5q0 -102 -29.5 -193.5t-84.5 -163.5t-141 -114.5t-192 -42.5q-139 0 -241 70.5t-150.5 182.5t-48.5 249zM219 475q0 -61 10 -116.5t33.5 -106.5t58 -88.5t87.5 -59.5 t118 -22q87 0 151 34.5t100.5 94t53.5 130.5t17 153q0 79 -16.5 148t-51 128.5t-96.5 94t-145 34.5q-71 0 -127.5 -24.5t-92 -64.5t-58.5 -96t-32.5 -114.5t-9.5 -124.5zM446 1143l230 287h229l-350 -287h-109z" />
<glyph unicode="&#xf4;" d="M90 477q0 108 28 201.5t82.5 166t142.5 114.5t200 42q105 0 189.5 -42.5t137 -115t80 -163t27.5 -191.5q0 -102 -29.5 -193.5t-84.5 -163.5t-141 -114.5t-192 -42.5q-139 0 -241 70.5t-150.5 182.5t-48.5 249zM219 475q0 -61 10 -116.5t33.5 -106.5t58 -88.5t87.5 -59.5 t118 -22q87 0 151 34.5t100.5 94t53.5 130.5t17 153q0 79 -16.5 148t-51 128.5t-96.5 94t-145 34.5q-71 0 -127.5 -24.5t-92 -64.5t-58.5 -96t-32.5 -114.5t-9.5 -124.5zM248 1143l260 282h55l275 -282h-105l-203 133l-182 -133h-100z" />
<glyph unicode="&#xf5;" d="M90 477q0 108 28 201.5t82.5 166t142.5 114.5t200 42q105 0 189.5 -42.5t137 -115t80 -163t27.5 -191.5q0 -102 -29.5 -193.5t-84.5 -163.5t-141 -114.5t-192 -42.5q-139 0 -241 70.5t-150.5 182.5t-48.5 249zM213 1208q16 38 30.5 65.5t37 56.5t53.5 44t69 15 q43 0 93 -23.5t95 -47.5t77 -24q20 0 35.5 6t28 22t18.5 26t18 34l84 -20q-5 -9 -13.5 -29.5t-13.5 -29.5q-28 -54 -71 -89.5t-97 -35.5q-50 0 -142.5 49t-123.5 49q-35 0 -56 -23t-38 -63zM219 475q0 -61 10 -116.5t33.5 -106.5t58 -88.5t87.5 -59.5t118 -22q87 0 151 34.5 t100.5 94t53.5 130.5t17 153q0 79 -16.5 148t-51 128.5t-96.5 94t-145 34.5q-71 0 -127.5 -24.5t-92 -64.5t-58.5 -96t-32.5 -114.5t-9.5 -124.5z" />
<glyph unicode="&#xf6;" d="M90 477q0 108 28 201.5t82.5 166t142.5 114.5t200 42q105 0 189.5 -42.5t137 -115t80 -163t27.5 -191.5q0 -102 -29.5 -193.5t-84.5 -163.5t-141 -114.5t-192 -42.5q-139 0 -241 70.5t-150.5 182.5t-48.5 249zM219 475q0 -61 10 -116.5t33.5 -106.5t58 -88.5t87.5 -59.5 t118 -22q87 0 151 34.5t100.5 94t53.5 130.5t17 153q0 79 -16.5 148t-51 128.5t-96.5 94t-145 34.5q-71 0 -127.5 -24.5t-92 -64.5t-58.5 -96t-32.5 -114.5t-9.5 -124.5zM295 1192v188h125v-188h-125zM647 1192v188h125v-188h-125z" />
<glyph unicode="&#xf7;" horiz-adv-x="1482" d="M162 537v122h1159v-122h-1159zM674 195v192h139v-192h-139zM674 811v193h139v-193h-139z" />
<glyph unicode="&#xf8;" d="M90 483q0 136 49 251.5t151.5 191t241.5 75.5q112 0 207 -53l47 84l80 -47l-53 -90q43 -43 57 -61q107 -130 107 -338q0 -103 -28 -195.5t-81 -166t-139 -116.5t-194 -43q-126 0 -213 54l-43 -74l-76 45l45 78q-158 168 -158 405zM213 479q0 -84 22.5 -153t69.5 -144 l385 674q-84 41 -151 41q-71 0 -140 -37q-50 -28 -87 -70t-58 -93t-31 -105t-10 -113zM373 123q72 -41 155 -41q84 0 148.5 33.5t101.5 91t55.5 127.5t18.5 151q0 195 -92 316z" />
<glyph unicode="&#xf9;" d="M154 408v569h122v-559q0 -43 1.5 -72.5t6.5 -66.5t14 -62t25.5 -51t40.5 -41.5t58.5 -25t79.5 -9.5q122 0 194 72q60 58 78.5 134.5t18.5 184.5v54v442h120v-977h-120v176q-78 -199 -318 -199q-118 0 -199 66q-40 32 -66 74.5t-37.5 94t-15 94t-3.5 102.5zM162 1430h227 l229 -287h-108z" />
<glyph unicode="&#xfa;" d="M154 408v569h122v-559q0 -43 1.5 -72.5t6.5 -66.5t14 -62t25.5 -51t40.5 -41.5t58.5 -25t79.5 -9.5q122 0 194 72q60 58 78.5 134.5t18.5 184.5v54v442h120v-977h-120v176q-78 -199 -318 -199q-118 0 -199 66q-40 32 -66 74.5t-37.5 94t-15 94t-3.5 102.5zM446 1143 l230 287h229l-350 -287h-109z" />
<glyph unicode="&#xfb;" d="M154 408v569h122v-559q0 -43 1.5 -72.5t6.5 -66.5t14 -62t25.5 -51t40.5 -41.5t58.5 -25t79.5 -9.5q122 0 194 72q60 58 78.5 134.5t18.5 184.5v54v442h120v-977h-120v176q-78 -199 -318 -199q-118 0 -199 66q-40 32 -66 74.5t-37.5 94t-15 94t-3.5 102.5zM248 1143 l260 282h55l275 -282h-105l-203 133l-182 -133h-100z" />
<glyph unicode="&#xfc;" d="M154 408v569h122v-559q0 -43 1.5 -72.5t6.5 -66.5t14 -62t25.5 -51t40.5 -41.5t58.5 -25t79.5 -9.5q122 0 194 72q60 58 78.5 134.5t18.5 184.5v54v442h120v-977h-120v176q-78 -199 -318 -199q-118 0 -199 66q-40 32 -66 74.5t-37.5 94t-15 94t-3.5 102.5zM295 1192v188 h125v-188h-125zM647 1192v188h125v-188h-125z" />
<glyph unicode="&#xfd;" horiz-adv-x="894" d="M23 -334q73 -47 129 -47q21 0 39.5 10.5t31 25t25.5 38t20 41t17 43t14 35.5q31 75 72 188l-338 977h117l284 -832l318 832h122l-440 -1118q-43 -114 -63 -160q-19 -47 -35 -76.5t-41.5 -59.5t-61 -44.5t-81.5 -14.5q-73 0 -129 39v123zM362 1143l228 287h229l-348 -287 h-109z" />
<glyph unicode="&#xfe;" d="M154 -518v1964h118v-629q40 89 117 134.5t178 45.5q82 0 150.5 -29t115.5 -78t80 -114.5t48.5 -138t15.5 -148.5q0 -93 -25.5 -182.5t-73.5 -164t-127 -120t-178 -45.5q-100 0 -185 49t-116 138v-682h-118zM272 459q0 -71 14 -132.5t44 -116t85.5 -86.5t131.5 -32 q79 0 140 36t96 96t52 129.5t17 144.5q0 61 -10 116t-33.5 105.5t-58 87.5t-87.5 58.5t-118 21.5q-70 0 -121 -27.5t-79.5 -68t-45.5 -101.5t-22 -113.5t-5 -117.5z" />
<glyph unicode="&#xff;" horiz-adv-x="894" d="M23 -334q73 -47 129 -47q21 0 39.5 10.5t31 25t25.5 38t20 41t17 43t14 35.5q31 75 72 188l-338 977h117l284 -832l318 832h122l-440 -1118q-43 -114 -63 -160q-19 -47 -35 -76.5t-41.5 -59.5t-61 -44.5t-81.5 -14.5q-73 0 -129 39v123zM211 1192v188h125v-188h-125z M563 1192v188h125v-188h-125z" />
<glyph unicode="&#x152;" horiz-adv-x="2174" d="M102 723q0 221 84 390.5t247.5 266.5t385.5 97q89 0 172 -15q9 -2 26.5 -6.5t31 -7t26.5 -2.5h975v-119h-836v-524h758v-127h-758v-553h887v-123h-1005q-18 0 -54 -10t-38 -10q-86 -17 -191 -17q-167 0 -302.5 57t-224.5 158.5t-136.5 240.5t-47.5 304zM246 705 q0 -285 158.5 -452t441.5 -167q119 0 229 37v1204q-175 23 -231 23q-200 0 -335.5 -81t-199 -223.5t-63.5 -340.5z" />
<glyph unicode="&#x153;" horiz-adv-x="1835" d="M90 487q0 143 50.5 258t155.5 185.5t251 70.5q127 0 227 -59t144 -172q62 113 160 172t225 59q168 0 282.5 -99t147.5 -265q7 -32 16 -148h-760q-2 -16 -2 -51q0 -153 85 -254.5t235 -101.5q219 0 325 211l117 -31q-66 -145 -174.5 -216t-267.5 -71q-224 0 -334 146 q-34 49 -55 90q-48 -116 -150 -176t-231 -60q-107 0 -193.5 41.5t-141 112.5t-83.5 163t-29 195zM221 492q0 -80 17 -150.5t53 -130t99 -94.5t147 -35t148 32.5t101.5 89.5t55.5 126.5t18 150.5q0 66 -9.5 124t-33 112t-59.5 93t-91.5 62t-125.5 23q-66 0 -120 -23 t-90.5 -61.5t-62 -90.5t-36.5 -109.5t-11 -118.5zM989 590h621q-11 136 -90 219.5t-213 83.5q-106 0 -187 -59.5t-112 -161.5q-4 -14 -9.5 -41.5t-9.5 -40.5z" />
<glyph unicode="&#x178;" horiz-adv-x="1280" d="M20 1446h162l447 -719l465 719h166l-566 -848v-598h-135v598zM348 1606v198h137v-198h-137zM797 1606v198h137v-198h-137z" />
<glyph unicode="&#x2c6;" horiz-adv-x="555" d="M-18 1143l262 282h53l276 -282h-104l-201 133l-182 -133h-104z" />
<glyph unicode="&#x2dc;" horiz-adv-x="555" d="M-43 1208q15 38 30.5 66.5t38.5 56.5t54.5 43t69.5 15q42 0 92 -23.5t95.5 -47.5t76.5 -24q20 0 35 6.5t28 22.5t18.5 25.5t18.5 33.5l84 -20q-18 -40 -32 -65.5t-37.5 -56.5t-54 -46.5t-68.5 -15.5q-50 0 -142.5 49t-124.5 49q-35 0 -56 -23t-38 -63z" />
<glyph unicode="&#x2000;" horiz-adv-x="929" />
<glyph unicode="&#x2001;" horiz-adv-x="1858" />
<glyph unicode="&#x2002;" horiz-adv-x="929" />
<glyph unicode="&#x2003;" horiz-adv-x="1858" />
<glyph unicode="&#x2004;" horiz-adv-x="619" />
<glyph unicode="&#x2005;" horiz-adv-x="464" />
<glyph unicode="&#x2006;" horiz-adv-x="309" />
<glyph unicode="&#x2007;" horiz-adv-x="309" />
<glyph unicode="&#x2008;" horiz-adv-x="232" />
<glyph unicode="&#x2009;" horiz-adv-x="371" />
<glyph unicode="&#x200a;" horiz-adv-x="103" />
<glyph unicode="&#x2010;" horiz-adv-x="698" d="M78 541v123h543v-123h-543z" />
<glyph unicode="&#x2011;" horiz-adv-x="698" d="M78 541v123h543v-123h-543z" />
<glyph unicode="&#x2012;" horiz-adv-x="698" d="M78 541v123h543v-123h-543z" />
<glyph unicode="&#x2013;" horiz-adv-x="1157" d="M78 541v123h1001v-123h-1001z" />
<glyph unicode="&#x2014;" horiz-adv-x="1726" d="M78 541v123h1571v-123h-1571z" />
<glyph unicode="&#x2018;" horiz-adv-x="342" d="M90 885v190q0 127 17 205t77 166l66 -45q-46 -78 -62 -133t-16 -144h78v-239h-160z" />
<glyph unicode="&#x2019;" horiz-adv-x="342" d="M90 932q47 76 62.5 131t15.5 145h-78v238h162v-201q0 -124 -17 -196.5t-77 -163.5z" />
<glyph unicode="&#x201a;" horiz-adv-x="342" d="M90 0v238h162v-201q0 -125 -17 -198.5t-77 -162.5l-68 48q47 76 62.5 131t15.5 145h-78z" />
<glyph unicode="&#x201c;" horiz-adv-x="598" d="M90 885v190q0 127 17 204t77 167l68 -45q-80 -100 -80 -277h80v-239h-162zM346 885v227q0 105 19.5 179t74.5 155l68 -45q-47 -76 -62.5 -131t-15.5 -146h78v-239h-162z" />
<glyph unicode="&#x201d;" horiz-adv-x="598" d="M90 932q47 77 62.5 131t15.5 145h-78v238h162v-205q0 -188 -53 -287q-6 -12 -20.5 -34.5t-20.5 -34.5zM346 932q7 8 33 55q27 55 36 102.5t9 118.5h-78v238h162v-246q0 -101 -19.5 -166.5t-74.5 -148.5z" />
<glyph unicode="&#x201e;" horiz-adv-x="598" d="M90 0v238h162v-207q0 -186 -53 -285q-6 -12 -20.5 -35t-20.5 -35l-68 48q47 77 62.5 131t15.5 145h-78zM346 0v238h162v-246q0 -99 -20 -165.5t-74 -150.5l-68 48q7 8 33 55q28 57 36.5 103.5t8.5 117.5h-78z" />
<glyph unicode="&#x2022;" horiz-adv-x="681" d="M115 506l2 446h450v-446h-452z" />
<glyph unicode="&#x2026;" horiz-adv-x="2048" d="M256 0v168h168v-168h-168zM938 0v168h170v-168h-170zM1622 0v168h170v-168h-170z" />
<glyph unicode="&#x202f;" horiz-adv-x="371" />
<glyph unicode="&#x2039;" horiz-adv-x="512" d="M88 633l244 379l96 -62l-203 -317l203 -289l-96 -63z" />
<glyph unicode="&#x203a;" horiz-adv-x="512" d="M84 342l203 317l-203 289l96 64l244 -353l-244 -378z" />
<glyph unicode="&#x205f;" horiz-adv-x="464" />
<glyph unicode="&#x20ac;" horiz-adv-x="1298" d="M43 555l41 109h106q0 18 5 120h-152l39 109h125q33 253 196.5 404t417.5 151q285 0 436 -178l-55 -135q-122 196 -401 196q-98 0 -177.5 -33t-134.5 -93t-90.5 -138.5t-52.5 -173.5h766l-39 -109h-737q-4 -20 -4 -59q0 -41 2 -61h692l-39 -109h-645q26 -212 149 -342.5 t330 -130.5q109 0 217.5 43t173.5 121v-158q-96 -69 -188.5 -97t-214.5 -28q-263 0 -420.5 161.5t-189.5 430.5h-156z" />
<glyph unicode="&#x2122;" horiz-adv-x="1398" d="M45 1362v84h504v-84h-201v-596h-98v596h-205zM625 766v680h137l176 -557l174 557h139v-680h-94l4 584l-182 -584h-86l-182 582l8 -582h-94z" />
<glyph unicode="&#xe000;" horiz-adv-x="972" d="M0 0v973h973v-973h-973z" />
<glyph unicode="&#xfb01;" d="M47 874v103h215v235q0 67 8.5 111.5t31 81t66.5 53.5t111 17q48 0 125 -15v-119q-52 27 -115 27q-61 0 -84.5 -37t-23.5 -102q0 -42 1 -126t1 -126h221v-103h-221v-874h-121v874h-215zM795 0v977h118v-977h-118zM795 1206v187h118v-187h-118z" />
<glyph unicode="&#xfb02;" d="M47 874v103h215v235q0 67 8.5 111.5t31 81t66.5 53.5t111 17q48 0 125 -15v-119q-52 27 -115 27q-61 0 -84.5 -37t-23.5 -102q0 -42 1 -126t1 -126h221v-103h-221v-874h-121v874h-215zM793 0v1446h120v-1446h-120z" />
</font>
</defs>
</svg>
