<?xml version="1.0" standalone="no"?>
<!DOCTYPE svg PUBLIC "-//W3C//DTD SVG 1.1//EN" "http://www.w3.org/Graphics/SVG/1.1/DTD/svg11.dtd" >
<svg xmlns="http://www.w3.org/2000/svg">
<metadata></metadata>
<defs>
<font id="nissanagbold_italic" horiz-adv-x="1236" >
<font-face units-per-em="2048" ascent="1536" descent="-512" />
<missing-glyph horiz-adv-x="598" />
<glyph horiz-adv-x="2048" />
<glyph horiz-adv-x="2048" />
<glyph unicode="&#xd;" horiz-adv-x="2048" />
<glyph unicode=" "  horiz-adv-x="598" />
<glyph unicode="&#x09;" horiz-adv-x="598" />
<glyph unicode="&#xa0;" horiz-adv-x="598" />
<glyph unicode="!" horiz-adv-x="598" d="M43 0l74 330h323l-73 -330h-324zM254 500l6 166l10 333q6 45 15.5 75t19.5 75l68 297h323l-67 -297q-10 -45 -13.5 -77t-19.5 -73l-139 -333l-70 -166h-133z" />
<glyph unicode="&#x22;" horiz-adv-x="651" d="M190 899l76 623h211l-211 -623h-76zM522 899l76 623h211l-211 -623h-76z" />
<glyph unicode="#" horiz-adv-x="1366" d="M55 381l45 254h230l59 194h-205l45 254h240l115 363h254l-115 -363h205l112 363h256l-112 -363h186l-45 -254h-223l-58 -194h199l-43 -254h-237l-121 -381h-258l123 381h-203l-121 -381h-254l119 381h-193zM584 635h202l62 194h-205z" />
<glyph unicode="$" horiz-adv-x="1404" d="M27 238l284 170q27 -37 51.5 -59.5t51 -38t59.5 -27t76 -21.5l90 326q-47 16 -97 32.5t-96.5 38t-87.5 52t-71 73.5q-61 86 -62 191q0 111 47 194.5t124 140t173.5 85t196.5 28.5q27 0 51.5 -1t50.5 -3l33 113h115l-35 -131q66 -16 118 -32.5t96 -41t85 -60.5t84 -89 l-262 -179q-41 59 -82 87t-111 49l-82 -293q59 -16 119 -36t111 -49.5t93 -71.5t67 -105q14 -35 22 -73t8 -79q0 -47 -13 -95t-36 -91q-39 -74 -99.5 -126.5t-132 -85t-152.5 -48t-161 -15.5h-63l-58 -198h-118l57 213q-82 16 -141.5 35.5t-108.5 49t-94 70.5t-100 101z M569 1006q0 -31 14.5 -51.5t37 -36t49 -24.5t49.5 -17l72 272q-35 -2 -74 -7t-72 -20.5t-54.5 -43t-21.5 -72.5zM666 252q57 4 111 18.5t91 61.5q31 41 31 84q0 33 -13.5 56.5t-35 39.5t-48 27.5t-52.5 17.5z" />
<glyph unicode="%" horiz-adv-x="1705" d="M109 825q0 86 24.5 187.5t73.5 189.5t125 146.5t176 58.5q72 0 123 -28.5t82.5 -75t47 -106t15.5 -122.5q0 -84 -24.5 -184t-74.5 -187.5t-125 -145.5t-175 -58q-70 0 -121 27.5t-84 72.5t-48 103.5t-15 121.5zM307 760q0 -37 12.5 -73t59.5 -36t85 59.5t63.5 139.5 t40 161t14.5 122q0 18 -3.5 39.5t-11.5 40t-22.5 30.5t-38.5 12q-51 0 -88 -62.5t-61.5 -145t-37 -164.5t-12.5 -123zM313 0l944 1389h177l-945 -1389h-176zM971 315q0 84 25.5 184.5t74.5 186.5t124 143.5t173 57.5q72 0 123 -29t84 -76t48 -106.5t15 -122.5 q0 -82 -25.5 -182.5t-74.5 -187.5t-124 -145t-173 -58q-72 0 -123 28.5t-84 75.5t-48 107.5t-15 123.5zM1167 242q0 -37 13.5 -74t60.5 -37t85 60.5t63.5 140.5t40 160.5t14.5 121.5q0 18 -3 40t-11.5 40.5t-23.5 30.5t-38 12q-49 0 -87 -62.5t-63.5 -145.5t-38 -164.5 t-12.5 -122.5z" />
<glyph unicode="&#x26;" horiz-adv-x="1449" d="M35 367q0 78 25.5 144.5t68.5 120.5t100.5 98t120.5 79q37 20 74 35.5t76 32.5q-16 51 -29.5 103t-13.5 105q0 82 33.5 151t91 118t130 76.5t150.5 27.5q100 0 184 -40t130 -134q14 -29 22 -61.5t8 -65.5q0 -76 -32.5 -135t-84 -104.5t-114 -79t-123.5 -62.5 q29 -72 59.5 -140.5t65.5 -135.5q49 55 82 106t67 117l232 -94q-31 -57 -56.5 -102.5t-53 -87.5t-60.5 -82t-78 -89q29 -27 58.5 -42t68.5 -15q23 0 43 5t41 9l-51 -225q-74 -6 -148 -6q-80 0 -128 17.5t-105 74.5q-98 -59 -190.5 -87t-209.5 -28q-94 0 -177 23.5t-144.5 73 t-97 124t-35.5 175.5zM352 393q0 -86 54.5 -132t138.5 -46q66 0 114 23.5t101 58.5q-47 90 -89 181t-83 184q-41 -18 -83 -44t-76 -59t-55.5 -74t-21.5 -92zM739 1133q0 -33 11.5 -76t21.5 -74q25 12 56.5 26.5t59 33t46 44t18.5 60.5q0 45 -31.5 71.5t-72.5 26.5 q-47 0 -78 -33.5t-31 -78.5z" />
<glyph unicode="'" horiz-adv-x="319" d="M190 899l76 623h211l-211 -623h-76z" />
<glyph unicode="(" horiz-adv-x="686" d="M63 471q0 399 246 725q102 137 227.5 244.5t290.5 206.5l101 -140q-125 -94 -209 -174t-150 -166q-113 -152 -173 -338t-60 -380q0 -129 26.5 -257.5t75.5 -236.5q23 -47 41.5 -78t55.5 -82l-140 -131q-27 33 -45 55.5t-32.5 42t-26.5 36t-25 36.5q-104 152 -153.5 307.5 t-49.5 329.5z" />
<glyph unicode=")" horiz-adv-x="686" d="M-238 -195q129 96 211 175t148 165q113 154 173 340.5t60 378.5q0 131 -26.5 259t-75.5 235q-12 25 -21.5 43t-19.5 35.5t-23.5 37t-31.5 44.5l139 131q27 -31 45 -54.5t32.5 -42t27 -35t26.5 -36.5q102 -152 151.5 -307.5t49.5 -329.5q0 -131 -29 -264 q-29 -129 -80 -239t-137 -224q-102 -137 -225 -245t-291 -206z" />
<glyph unicode="*" horiz-adv-x="841" d="M160 1174l106 192l191 -104l47 211l215 -50l-47 -211l223 23l23 -219l-213 -23l86 -182l-199 -96l-94 198l-162 -141l-146 166l152 133z" />
<glyph unicode="+" horiz-adv-x="1482" d="M190 532l62 267h373l96 411h340l-96 -411h383l-60 -267h-383l-94 -417h-342l96 417h-375z" />
<glyph unicode="," horiz-adv-x="512" d="M-131 -360l35 149q41 25 67.5 44.5t44 42t31.5 51t31 73.5h-123l76 332h327q-20 -92 -39.5 -182.5t-51 -172t-86 -151.5t-144.5 -121q-41 -23 -83 -37t-85 -28z" />
<glyph unicode="-" horiz-adv-x="770" d="M53 485l68 293h612l-67 -293h-613z" />
<glyph unicode="." horiz-adv-x="512" d="M-41 0l76 338h323l-75 -338h-324z" />
<glyph unicode="/" horiz-adv-x="937" d="M-143 0l985 1446h291l-983 -1446h-293z" />
<glyph unicode="0" horiz-adv-x="1150" d="M61 487q0 43 5.5 87t11.5 88q12 86 36.5 175t61.5 174t89 159.5t120 132.5q68 57 143.5 88.5t165.5 31.5q88 0 178.5 -41t147.5 -108q63 -76 85.5 -172.5t22.5 -192.5q0 -92 -17 -197.5t-51 -210t-87 -200.5t-125 -169t-163 -117t-202 -44q-45 0 -91 11.5t-87 31.5 q-68 35 -115 85.5t-75.5 112.5t-41 133t-12.5 142zM377 381q0 -31 5 -60.5t17.5 -53t36 -39t60.5 -15.5q33 0 59.5 17.5t48 43t37.5 55t29 54.5q31 61 57.5 135t46 152t30.5 155.5t11 147.5q0 31 -4 67.5t-16.5 67.5t-36 52.5t-64.5 21.5q-43 0 -82 -37t-71.5 -95.5 t-58 -129t-45 -140t-32 -130t-16.5 -95.5q-12 -86 -12 -174z" />
<glyph unicode="1" horiz-adv-x="1150" d="M242 977l49 223q74 2 133 8t110.5 24.5t96.5 55.5t88 101h248l-314 -1389h-329l229 1012q-45 -10 -82 -17.5t-73 -11.5t-73.5 -5t-82.5 -1z" />
<glyph unicode="2" horiz-adv-x="1150" d="M-23 0l50 217l596 490q33 27 66.5 58.5t61 68t46 77.5t18.5 86q0 72 -44 123t-118 51q-51 0 -88 -24.5t-59.5 -62t-33.5 -85t-11 -90.5q0 -16 1 -30.5t1 -30.5l-305 37q4 53 10 104t22 101q55 160 180.5 246.5t293.5 86.5q92 0 177 -27.5t150.5 -80.5t104.5 -131t39 -178 q0 -80 -28 -151t-73 -131t-102.5 -112.5t-118.5 -97.5l-350 -254h571l-59 -260h-998z" />
<glyph unicode="3" horiz-adv-x="1150" d="M-33 406v26t2 27l334 35q-10 -45 -10 -80q0 -82 52 -137.5t136 -55.5q96 0 146.5 67.5t50.5 155.5q0 76 -47 116t-119 44q-12 0 -23.5 -1t-23.5 -1l45 213q18 -4 37.5 -6t38.5 -2q49 0 88 18.5t65.5 51t41 74.5t14.5 89q0 66 -39 104t-105 38q-49 0 -85 -18.5 t-59.5 -49.5t-35.5 -72t-16 -84l-318 37q4 41 11.5 77t23.5 75q31 66 83 118t117.5 86.5t138.5 53t142 18.5h9q104 0 196 -32q55 -20 104.5 -56.5t85 -82.5t56 -101.5t20.5 -116.5q0 -86 -41 -156.5t-112 -115.5q-27 -16 -58.5 -27.5t-60.5 -21.5q23 -16 44.5 -29.5 t39.5 -32.5q47 -45 70.5 -105.5t23.5 -123.5q0 -109 -50 -193t-130 -142t-179.5 -88t-195.5 -30q-72 0 -141.5 12.5t-131 42t-111.5 76.5t-83 117q-41 84 -41 189z" />
<glyph unicode="4" horiz-adv-x="1150" d="M-18 340l61 262l705 787h378l-184 -818h203l-53 -231h-203l-78 -340h-324l78 340h-583zM291 571h330l124 514z" />
<glyph unicode="5" horiz-adv-x="1150" d="M18 434l330 15q0 -10 -1 -21.5t-1 -21.5q0 -33 9.5 -66t27.5 -58.5t46 -41t65 -15.5q57 0 100 31t71.5 77t43 100t14.5 104q0 37 -9 73.5t-27.5 65.5t-49.5 46t-74 17q-66 0 -109.5 -36.5t-78.5 -86.5l-279 48l174 725h828l-60 -259h-546l-62 -239q57 37 106.5 55.5 t120.5 18.5q193 0 300.5 -112t107.5 -302q0 -78 -22.5 -155t-64.5 -145.5t-99.5 -123.5t-126.5 -92q-63 -35 -131 -49.5t-140 -14.5q-68 0 -134 17.5t-125.5 51.5t-104.5 84t-70 116q-16 47 -20 96t-9 98z" />
<glyph unicode="6" horiz-adv-x="1150" d="M96 532q0 86 18.5 187.5t52.5 200t84 186.5t111 149q82 82 184.5 125t219.5 43q113 0 204 -48t142 -152q20 -41 30.5 -84t18.5 -86l-307 -41q-4 31 -12 60.5t-23.5 53t-40 37t-63.5 13.5q-61 0 -106.5 -40t-78 -97.5t-52 -121t-29.5 -112.5q51 63 110 100t146 37h18 q80 -6 143.5 -39t108.5 -87t69.5 -122.5t24.5 -146.5q0 -63 -15.5 -129t-44 -127.5t-68.5 -115.5t-89 -95q-63 -53 -143 -82t-162 -29q-117 0 -202 49.5t-140 128t-82 180t-27 205.5zM424 414q0 -29 6 -63t21.5 -63.5t40 -49t59.5 -19.5q47 0 82 33t58.5 79t34.5 96t11 87 q0 29 -6 62.5t-19.5 62.5t-38 48.5t-61.5 19.5q-47 0 -81.5 -32t-58 -77t-36 -95t-12.5 -89z" />
<glyph unicode="7" horiz-adv-x="1150" d="M90 0q45 176 112.5 324.5t155.5 282.5t192.5 261t221.5 260h-661l57 261h1020l-55 -246q-55 -61 -110.5 -120.5t-107.5 -125.5q-55 -70 -110 -150.5t-106.5 -166.5t-95.5 -174.5t-75 -172.5q-23 -57 -38 -115.5t-31 -117.5h-369z" />
<glyph unicode="8" horiz-adv-x="1150" d="M63 385q0 98 40 184t126 140q35 23 79 34t83 21q-16 10 -33.5 20.5t-31.5 22.5q-51 43 -74 101.5t-23 123.5q0 90 40 163t104.5 123t146.5 77.5t164 27.5q84 0 161 -22.5t136 -68.5t94 -114.5t35 -158.5q0 -72 -28.5 -141.5t-86.5 -116.5q-27 -23 -65.5 -39.5 t-73.5 -26.5q18 -10 35.5 -18t34.5 -19q70 -45 104.5 -114.5t34.5 -151.5q0 -96 -45 -190q-70 -145 -200 -209t-283 -64q-92 0 -177.5 28t-152 81t-105.5 131t-39 176zM387 358q0 -72 43 -121t115 -49q45 0 78.5 21.5t56 54.5t34 74t11.5 80q0 74 -42 126t-120 52 q-43 0 -76.5 -22.5t-55 -58.5t-33 -78t-11.5 -79zM532 993q0 -27 7.5 -55.5t21.5 -52t37 -39t53 -15.5q39 0 66.5 23t45 55.5t26 70.5t8.5 69q0 27 -7.5 54t-21.5 50t-36.5 37t-53.5 14q-37 0 -64.5 -21.5t-45 -53t-27 -68.5t-9.5 -68z" />
<glyph unicode="9" horiz-adv-x="1150" d="M29 338l309 43q4 -31 12 -60.5t23.5 -53t40 -37t63.5 -13.5q61 0 106.5 40t78 97.5t52 121t29.5 112.5q-51 -66 -111.5 -101.5t-146.5 -35.5h-16q-80 0 -144.5 32.5t-108.5 87t-68.5 126t-24.5 149.5q0 63 15.5 128.5t44 127t67.5 116t88 95.5q61 53 143 80.5t164 27.5 q117 0 202 -49t140 -128t82 -179.5t27 -204.5q0 -92 -19.5 -196.5t-56.5 -206t-91.5 -191.5t-121.5 -151q-78 -72 -177.5 -109t-203.5 -37q-113 0 -204 48.5t-142 152.5q-18 41 -29.5 83t-21.5 85zM455 879q0 -29 6 -63t19.5 -63.5t38 -49t61.5 -19.5q47 0 81.5 32t58 78 t36 96t12.5 89q0 29 -6 62.5t-21.5 62.5t-40 48t-59.5 19q-47 0 -82 -31.5t-58.5 -76.5t-34.5 -96.5t-11 -87.5z" />
<glyph unicode=":" horiz-adv-x="598" d="M41 0l76 338h323l-73 -338h-326zM207 731l72 324h323l-72 -324h-323z" />
<glyph unicode=";" horiz-adv-x="598" d="M-45 -360l35 149q41 25 66.5 44.5t44 42t31.5 51t30 73.5h-121l76 332h325q-20 -92 -38.5 -183.5t-50 -172t-85 -150.5t-145.5 -121q-41 -23 -83 -37t-85 -28zM213 727l76 328h321l-75 -328h-322z" />
<glyph unicode="&#x3c;" horiz-adv-x="1482" d="M209 526l76 314l1052 432l-84 -342l-706 -273l579 -297l-75 -317z" />
<glyph unicode="=" horiz-adv-x="1482" d="M186 276l62 269h1077l-61 -269h-1078zM289 721l61 268h1077l-61 -268h-1077z" />
<glyph unicode="&#x3e;" horiz-adv-x="1482" d="M160 37l84 340l706 272l-579 297l75 318l842 -484l-76 -311z" />
<glyph unicode="?" horiz-adv-x="1150" d="M152 1063q20 53 41.5 104.5t56.5 96.5q84 113 210 157.5t261 44.5q86 0 174 -19.5t160.5 -63.5t119 -113.5t46.5 -171.5q0 -84 -35 -156t-99 -127q-39 -35 -99 -63.5t-121.5 -56t-117 -57.5t-85.5 -69q-12 -16 -21.5 -32.5t-19.5 -32.5h-287q8 51 21.5 86t45.5 76 q25 31 62 60.5t78 56t84 51t75 45.5q29 16 59 34.5t54.5 41t39.5 51t15 65.5q0 35 -15 59.5t-39.5 41t-54.5 24.5t-61 8q-104 0 -156 -62.5t-75 -152.5zM209 0l76 324h323l-71 -324h-328z" />
<glyph unicode="@" horiz-adv-x="1724" d="M84 455q0 207 78 389t210 320.5t309 218t376 79.5q135 0 244.5 -41t187.5 -115.5t120 -180t42 -234.5q0 -143 -43 -279.5t-115 -241t-164 -168t-190 -63.5q-76 0 -124 37t-59 103q-117 -139 -262 -140q-127 0 -199.5 87t-72.5 239q0 121 38 230.5t102.5 193.5t148.5 134 t176 50q53 0 98 -18q35 -14 58.5 -36t54.5 -69l24 82h185l-80 -325q-39 -158 -54.5 -235t-15.5 -107q0 -53 39 -54q25 0 55.5 23.5t65.5 64.5q74 92 118 222.5t44 257.5q0 197 -118 308t-325 111q-156 0 -298 -67.5t-249.5 -182t-172 -265t-64.5 -314.5q0 -125 39 -226.5 t110 -170.5q80 -78 199 -120t250 -42q180 0 353 75.5t327 223.5l90 -127q-43 -39 -76 -66.5t-60.5 -49t-55 -39t-62.5 -38.5q-123 -72 -252 -106.5t-270 -34.5q-170 0 -320.5 57.5t-255.5 161.5q-184 180 -184 488zM633 487q0 -78 32.5 -120.5t92.5 -42.5q41 0 86 27.5 t82 78.5q41 53 68.5 137t27.5 152v4q0 78 -36 123t-95 45q-55 0 -106.5 -41t-88.5 -117q-29 -59 -46 -123.5t-17 -122.5z" />
<glyph unicode="A" horiz-adv-x="1449" d="M-141 0l882 1446h406l153 -1446h-352l-18 287h-533l-159 -287h-379zM545 549h368l-39 594z" />
<glyph unicode="B" horiz-adv-x="1449" d="M-2 0l328 1446h651q55 0 108.5 -6t100.5 -23.5t88 -49.5t72 -83q23 -39 34 -87t11 -93q0 -141 -81 -227t-216 -115q35 -16 76.5 -36.5t70.5 -47.5q53 -47 75.5 -111.5t22.5 -134.5q0 -66 -22.5 -130t-63.5 -118q-86 -111 -200.5 -147.5t-249.5 -36.5h-805zM410 266h325 q66 0 119 18.5t88 84.5q23 45 23 96q0 80 -50.5 114.5t-121.5 34.5h-306zM547 877h268q43 0 84 8t71.5 28.5t49 54.5t18.5 85q0 74 -47 103.5t-112 29.5h-263z" />
<glyph unicode="C" horiz-adv-x="1492" d="M111 631q0 170 55 324.5t158.5 271t248 185.5t322.5 69q68 0 139.5 -12.5t139 -38t127 -65.5t104.5 -93q39 -47 61.5 -96.5t44.5 -104.5l-346 -78q-35 94 -95 150.5t-165 56.5q-102 0 -179 -55t-129 -140t-78.5 -184.5t-26.5 -185.5q0 -61 15 -128t47 -121t84 -89 t126 -35q41 0 77 11.5t70 31.5q80 47 120 104.5t79 137.5l301 -168q-104 -193 -265 -305.5t-386 -112.5q-59 0 -118.5 9.5t-115.5 29.5q-217 78 -316 243t-99 388z" />
<glyph unicode="D" horiz-adv-x="1536" d="M0 0l330 1446h571q274 0 429 -144.5t155 -429.5q0 -129 -31 -253.5t-93.5 -233.5t-156.5 -194t-219 -132q-104 -41 -223 -50t-232 -9h-530zM416 279h159q74 0 147 9t138 44q66 35 113 98.5t79.5 139t48 155t15.5 147.5q0 164 -84 230.5t-235 66.5h-181z" />
<glyph unicode="E" horiz-adv-x="1366" d="M0 0l330 1446h1040l-63 -277h-686l-64 -280h662l-60 -264h-661l-80 -351h788l-59 -274h-1147z" />
<glyph unicode="F" horiz-adv-x="1280" d="M0 0l330 1446h1042l-59 -270h-686l-72 -316h662l-64 -276h-661l-134 -584h-358z" />
<glyph unicode="G" horiz-adv-x="1662" d="M109 614v23q0 111 26.5 218.5t77.5 204.5t126 180t171 140q92 55 197.5 80t212.5 25q72 0 148.5 -13.5t148 -41t134 -71.5t107.5 -106q33 -45 49.5 -84t32.5 -90l-344 -90q-6 20 -16.5 51t-22.5 47q-43 61 -106.5 87t-135.5 26q-106 0 -186 -55t-132 -141t-77.5 -187.5 t-25.5 -193.5q0 -76 18 -146.5t58 -123t100.5 -84t144.5 -31.5q80 0 151.5 33.5t118.5 99.5q20 29 35 65.5t25 69.5h-301l61 276h635l-176 -782h-324l27 121q-84 -80 -166 -120t-203 -40q-127 0 -249.5 55.5t-200.5 155.5q-33 41 -55.5 84t-40.5 90q-23 63 -33 133t-10 135z " />
<glyph unicode="H" horiz-adv-x="1536" d="M0 0l330 1446h358l-119 -526h537l119 526h360l-328 -1446h-360l145 641h-538l-146 -641h-358z" />
<glyph unicode="I" horiz-adv-x="641" d="M4 0l324 1446h360l-323 -1446h-361z" />
<glyph unicode="J" horiz-adv-x="811" d="M-117 0l70 301h124t95 15.5t68.5 54.5t46.5 118l215 957h358l-242 -1079q-20 -90 -48.5 -157t-104.5 -126q-72 -55 -144.5 -69.5t-158.5 -14.5h-279z" />
<glyph unicode="K" horiz-adv-x="1492" d="M-2 0l326 1446h342l-134 -594l631 594h430l-632 -578l417 -868h-379l-294 641l-277 -252l-86 -389h-344z" />
<glyph unicode="L" horiz-adv-x="1150" d="M2 0l326 1446h358l-260 -1153h610l-67 -293h-967z" />
<glyph unicode="M" horiz-adv-x="1835" d="M4 0l324 1446h534l25 -948l448 948h543l-326 -1446h-335l258 1118l-541 -1118h-303l-41 1135l-248 -1135h-338z" />
<glyph unicode="N" horiz-adv-x="1449" d="M-2 0l332 1446h356l289 -932l196 932h330l-330 -1446h-352l-284 928l-205 -928h-332z" />
<glyph unicode="O" horiz-adv-x="1622" d="M98 590q0 104 23.5 210.5t70 206t113 186.5t152.5 148q98 72 222 108t247 36q143 0 262 -41t205 -120t134 -194t48 -262q0 -119 -31 -239.5t-90 -230t-143 -201t-193 -146.5q-88 -47 -183 -66.5t-194 -19.5q-147 0 -266 41t-203 121t-129 196.5t-45 266.5zM463 578 q0 -70 19.5 -129.5t57.5 -103.5t93 -69.5t129 -25.5q113 0 197.5 59.5t141 150.5t85 199.5t28.5 204.5q0 152 -80.5 239t-232.5 87q-115 0 -209 -68q-55 -41 -98 -105.5t-71.5 -140t-44 -153.5t-15.5 -145z" />
<glyph unicode="P" horiz-adv-x="1409" d="M0 0l326 1446h620q104 0 192.5 -25.5t152 -78t99 -133t35.5 -193.5q0 -180 -97 -315.5t-267 -188.5q-68 -23 -137.5 -29t-141.5 -6h-315l-109 -477h-358zM526 737h256q31 0 63 3t60 16q72 31 115 98t43 145q0 98 -55.5 143.5t-147.5 45.5h-231z" />
<glyph unicode="Q" horiz-adv-x="1662" d="M98 590q0 104 23.5 210.5t70 206t113 186.5t152.5 148q98 72 222 108t247 36q143 0 262 -41t205 -120t134 -193.5t48 -262.5q0 -160 -44 -291t-128 -266q72 -45 130 -72.5t144 -33.5l-131 -264q-55 4 -100 16t-85 32.5t-78 49.5t-83 61q-111 -70 -218.5 -102.5 t-240.5 -32.5q-147 0 -266 41t-203 120t-129 195.5t-45 268.5zM463 578q0 -70 19.5 -129.5t57.5 -103.5t93 -69.5t129 -25.5q113 0 197.5 59.5t141 150.5t85 199.5t28.5 204.5q0 152 -80.5 239t-232.5 87q-115 0 -209 -68q-55 -41 -98 -105.5t-71.5 -140t-44 -153.5 t-15.5 -145z" />
<glyph unicode="R" horiz-adv-x="1449" d="M0 0l328 1446h637q47 0 93 -3t93 -16q147 -37 220 -148.5t73 -258.5q0 -100 -40 -192.5t-118 -155.5q-43 -35 -99.5 -58.5t-109.5 -40.5l236 -573h-393l-191 518h-252l-119 -518h-358zM539 786h301q74 0 123 19.5t88 85.5q34 55 34 127q0 49 -17 80.5t-47 50t-69 26 t-80 7.5h-243z" />
<glyph unicode="S" horiz-adv-x="1366" d="M-33 297l318 199q10 -23 18 -44.5t23 -41.5q55 -82 140 -119t181 -37q35 0 78 9t80 28.5t62.5 50.5t25.5 74q0 57 -53.5 93t-133 65.5t-174 61.5t-174 80t-133 120.5t-53.5 187.5q0 66 22.5 129.5t63.5 116.5q47 63 105.5 104t126 65.5t140 34t148.5 9.5q121 0 245 -32 t216 -114q39 -35 69.5 -75.5t61.5 -81.5l-301 -174q-8 23 -16.5 44t-22.5 40q-51 66 -133 92t-162 26q-29 0 -63.5 -7t-65.5 -23.5t-51 -42t-20 -62.5q0 -53 54 -86t136 -60.5t176 -59t176 -83t136.5 -130.5t54.5 -201q0 -109 -49 -201q-43 -80 -107.5 -135.5t-142.5 -89 t-164 -49t-172 -15.5q-74 0 -153 11.5t-153.5 35t-143 62.5t-122.5 94q-29 29 -50 62.5t-44 68.5z" />
<glyph unicode="T" horiz-adv-x="1280" d="M193 1165l71 281h1135l-72 -281h-375l-262 -1165h-362l262 1165h-397z" />
<glyph unicode="U" horiz-adv-x="1492" d="M121 418q0 57 9 112.5t22 110.5l180 805h362l-196 -881q-6 -27 -10.5 -53.5t-4.5 -54.5q0 -45 18.5 -80t48.5 -56.5t68.5 -33t79.5 -11.5q66 0 113 23t79 60.5t52.5 88t32.5 107.5l209 891h360l-213 -948q-18 -86 -46 -163t-81 -149q-43 -57 -104.5 -98t-130 -67.5 t-142 -39t-143.5 -12.5q-106 0 -207.5 24.5t-180.5 78t-127 138.5t-48 208z" />
<glyph unicode="V" horiz-adv-x="1366" d="M188 1446h359l96 -1057l526 1057h379l-764 -1446h-422z" />
<glyph unicode="W" horiz-adv-x="2004" d="M203 1446h348v-1040l463 1040h344l-17 -1047l486 1047h352l-721 -1446h-409l24 934l-414 -934h-409z" />
<glyph unicode="X" horiz-adv-x="1449" d="M-145 0l700 782l-330 664h387l193 -412l360 412h424l-631 -705l363 -741h-381l-229 483l-414 -483h-442z" />
<glyph unicode="Y" horiz-adv-x="1366" d="M199 1446h358l201 -520l379 520h407l-682 -836l-137 -610h-358l145 655z" />
<glyph unicode="Z" horiz-adv-x="1366" d="M-37 0l68 297l884 866h-696l66 283h1145l-70 -297l-887 -868h748l-64 -281h-1194z" />
<glyph unicode="[" horiz-adv-x="598" d="M-78 -295l436 1890h457l-39 -172h-186l-357 -1546h187l-39 -172h-459z" />
<glyph unicode="\" horiz-adv-x="937" d="M190 1446h293l314 -1446h-289z" />
<glyph unicode="]" horiz-adv-x="598" d="M-207 -293l39 172h186l357 1544h-187l41 172h457l-436 -1888h-457z" />
<glyph unicode="^" horiz-adv-x="1482" d="M143 575l619 871h319l248 -871h-332l-120 572l-369 -572h-365z" />
<glyph unicode="_" horiz-adv-x="1024" d="M76 -231h1065v-261h-1065v261z" />
<glyph unicode="`" horiz-adv-x="641" d="M55 1520h338l193 -332h-193z" />
<glyph unicode="a" d="M20 264q0 59 19.5 115.5t56.5 101.5q57 68 143.5 105t183.5 53t194.5 21.5t179.5 9.5q8 29 14 56.5t6 55.5q0 33 -13 53.5t-34.5 33t-48.5 16.5t-53 4q-80 0 -121 -38t-64 -110l-315 9q10 35 23.5 71.5t33.5 69.5q41 63 94.5 102t115 60.5t130 29t137.5 7.5 q74 0 150 -11.5t137.5 -43t100 -89t38.5 -147.5q0 -37 -6 -74t-14 -74l-125 -555q-6 -27 -6 -55q0 -10 2 -20.5t4 -20.5h-303q-4 12 -7 24.5t-3 24.5q0 23 7 49.5t11 48.5q-25 -49 -62.5 -82.5t-84.5 -55t-99.5 -31t-101.5 -9.5q-137 0 -228.5 77t-91.5 218zM338 305 q0 -61 36 -85.5t93 -24.5q66 0 113 23.5t79.5 61t54.5 89t36 106.5q-41 -2 -111 -6t-136.5 -20.5t-115.5 -49t-49 -94.5z" />
<glyph unicode="b" horiz-adv-x="1280" d="M-6 0l325 1446h320l-107 -461q72 45 133.5 72.5t147.5 27.5q98 0 168 -36.5t116 -99t67.5 -143.5t21.5 -169q0 -115 -40 -233.5t-111.5 -215t-174 -158t-229.5 -61.5q-90 0 -170 34t-127 114l-27 -117h-313zM412 426q0 -39 11 -77t32.5 -67.5t54.5 -48t76 -18.5 q74 0 126 45t87 111.5t51 141.5t16 134q0 39 -10 76t-30.5 65.5t-53.5 46t-76 17.5q-70 0 -123 -45t-88.5 -110.5t-54 -139.5t-18.5 -131z" />
<glyph unicode="c" horiz-adv-x="1150" d="M57 471q0 78 20.5 157t59.5 146q90 156 225.5 236t315.5 80q123 0 233.5 -50.5t180.5 -154.5q23 -35 38 -75t29 -81l-282 -61q-23 80 -69 127t-136 47q-70 0 -124 -37t-91 -94.5t-56.5 -125t-19.5 -128.5q0 -104 53 -169t160 -65q92 0 138 49.5t81 122.5l287 -88 q-78 -162 -208 -250t-314 -88q-111 0 -206.5 36t-165 102.5t-109.5 158.5t-40 205z" />
<glyph unicode="d" horiz-adv-x="1280" d="M59 420q0 121 39 240.5t112 215t178.5 155t236.5 59.5q186 0 293 -144l112 500h318l-328 -1446h-315l16 74q-72 -49 -132.5 -76t-152.5 -27q-90 0 -168 41q-117 59 -163 171t-46 237zM377 426q0 -43 9 -82t29.5 -68.5t53.5 -47t82 -17.5q78 0 132 42t90 104.5t52.5 136.5 t16.5 137q0 84 -44 147.5t-134 63.5q-74 0 -128.5 -42t-89 -105.5t-52 -135.5t-17.5 -133z" />
<glyph unicode="e" d="M59 475q0 76 19.5 153t56.5 145.5t88 128t115 99.5q72 47 156 69t170 22q111 0 198.5 -34t151 -97.5t97.5 -151.5t34 -199q0 -35 -2 -69.5t-6 -69.5h-768v-37q0 -104 54 -162.5t159 -58.5q88 0 146 42t103 114l265 -93q-16 -29 -34 -56t-38 -52q-86 -104 -201.5 -151.5 t-249.5 -47.5q-113 0 -208 36t-162.5 102.5t-105.5 159.5t-38 208zM410 670h452q0 92 -54 146t-146 54q-100 0 -156.5 -58t-95.5 -142z" />
<glyph unicode="f" horiz-adv-x="681" d="M37 0l192 870h-145l43 191h149q12 57 24.5 113.5t35 105.5t58.5 91t93 71q43 23 93.5 32t97.5 9q53 0 104.5 -9.5t104.5 -19.5l-45 -209q-68 0 -111 -3t-69.5 -19.5t-42 -54.5t-27.5 -107h188l-45 -191h-186l-197 -870h-315z" />
<glyph unicode="g" horiz-adv-x="1280" d="M-59 -92q0 23 4 46l8 46h328q-10 -35 -11 -63q0 -35 18.5 -58.5t46 -38t59.5 -20.5t61 -6q74 0 121 28.5t76.5 74.5t45 104.5t25.5 117.5q-63 -51 -119.5 -77.5t-142.5 -26.5q-96 0 -171 33.5t-125 92t-77 138.5t-27 172q0 115 40 226.5t112 199.5t173 142.5t224 54.5 q63 0 129 -17.5t115 -58.5q16 -14 29.5 -29.5t27.5 -32.5l25 99h305l-205 -903q-18 -80 -36.5 -152t-50 -134.5t-82 -113.5t-132.5 -90q-72 -35 -151.5 -47t-159.5 -12q-70 0 -154 14t-157.5 50t-122.5 94.5t-49 146.5zM373 465q0 -90 48 -149.5t142 -59.5q74 0 125 39 t85 98.5t49.5 128t15.5 129.5q0 90 -49.5 147.5t-141.5 57.5q-66 0 -117 -40t-85.5 -99.5t-53 -128t-18.5 -123.5z" />
<glyph unicode="h" d="M2 0l330 1446h317l-117 -516q66 70 137.5 109.5t170.5 39.5q59 0 112.5 -18.5t93 -53t62 -84t22.5 -112.5q0 -59 -16 -125l-160 -686h-315l127 561q10 39 18.5 77t8.5 77q0 53 -34 88t-87 35q-31 0 -54.5 -9.5t-48.5 -25.5q-55 -39 -77.5 -94.5t-36.5 -116.5l-136 -592 h-317z" />
<glyph unicode="i" horiz-adv-x="598" d="M2 0l240 1055h317l-240 -1055h-317zM276 1206l56 240h315l-53 -240h-318z" />
<glyph unicode="j" horiz-adv-x="641" d="M-246 -365l58 254q23 0 42 -1t42 -1q68 0 101.5 29t47.5 92l240 1047h317l-248 -1073q-23 -98 -58.5 -166t-88.5 -109t-128 -58.5t-175 -17.5q-37 0 -75 1t-75 3zM319 1206l56 240h317l-55 -240h-318z" />
<glyph unicode="k" horiz-adv-x="1193" d="M2 0l328 1446h313l-164 -731l393 340h418l-479 -398l287 -657h-340l-193 463l-178 -148l-70 -315h-315z" />
<glyph unicode="l" horiz-adv-x="598" d="M4 0l322 1446h317l-324 -1446h-315z" />
<glyph unicode="m" horiz-adv-x="1878" d="M2 0l242 1055h319l-33 -150q70 86 142.5 133t189.5 47q68 0 128.5 -22.5t103.5 -75.5q12 -16 20 -33.5t19 -33.5q16 20 32.5 39.5t36.5 35.5q53 47 117.5 68.5t134.5 21.5q61 0 116.5 -19t97.5 -54t66.5 -86t24.5 -117q0 -53 -10 -104.5t-20 -102.5l-134 -602h-319 l135 592q8 33 17.5 67.5t9.5 67.5q0 55 -35 85t-88 30q-51 0 -87 -20.5t-60.5 -53.5t-40 -74t-25.5 -84l-144 -610h-317l143 627q6 27 12.5 53.5t6.5 54.5q0 53 -36 81t-85 28q-43 0 -79 -18.5t-62.5 -48t-44 -66.5t-27.5 -76l-147 -635h-320z" />
<glyph unicode="n" d="M2 0l242 1055h315l-29 -127q61 70 133 111.5t171 41.5q61 0 115.5 -17t94 -52t62 -86t22.5 -117q0 -31 -5 -60.5t-11 -58.5l-156 -690h-317l139 621q12 49 13 98q0 59 -35 89t-90 30q-27 0 -48.5 -8.5t-42.5 -22.5q-55 -39 -80.5 -95.5t-39.5 -119.5l-136 -592h-317z" />
<glyph unicode="o" horiz-adv-x="1280" d="M59 455v18q0 84 23.5 165t65.5 153.5t102.5 132t134.5 98.5q66 35 142.5 52.5t150.5 17.5q113 0 207 -35t161.5 -99.5t105.5 -155.5t38 -206q0 -129 -48 -243.5t-132 -199.5t-197 -134.5t-244 -49.5q-115 0 -209 34t-160.5 96.5t-103.5 152.5t-37 203zM379 465 q0 -49 12 -94t38 -79t66 -53.5t95 -19.5q74 0 126 37t86 94.5t49 125t15 128.5q0 98 -48 169t-156 71q-70 0 -123.5 -36t-89 -92.5t-53 -123t-17.5 -127.5z" />
<glyph unicode="p" horiz-adv-x="1280" d="M-84 -385l328 1440h282l-22 -107q59 66 124.5 100.5t155.5 34.5q102 0 179 -36.5t128.5 -100t77 -149t25.5 -181.5q0 -80 -18.5 -162.5t-55.5 -158.5t-90 -141.5t-123 -108.5q-59 -39 -128.5 -56.5t-141.5 -17.5q-90 0 -165 32t-128 108l-113 -496h-315zM412 420 q0 -92 49 -156.5t147 -64.5q68 0 119 41t85 101t51.5 131t17.5 128q0 49 -8.5 95t-30 82t-58 58.5t-94.5 22.5q-55 0 -105 -31.5t-81 -74.5q-18 -27 -35.5 -70t-30 -90t-19.5 -92t-7 -80z" />
<glyph unicode="q" horiz-adv-x="1280" d="M63 401q0 121 39 243t112 220.5t177.5 160.5t237.5 62q92 0 166.5 -35.5t128.5 -107.5l26 111h310l-326 -1440h-318l101 453q-66 -49 -131.5 -74t-147.5 -25q-90 0 -159.5 37t-117.5 97.5t-73 138t-25 159.5zM383 424q0 -88 40 -151.5t136 -63.5q74 0 128 42t90 105.5 t53.5 136.5t17.5 134q0 41 -11.5 79.5t-34 68.5t-56 47.5t-78.5 17.5q-74 0 -127.5 -42t-89 -105.5t-52 -135.5t-16.5 -133z" />
<glyph unicode="r" horiz-adv-x="811" d="M6 0l240 1055h313l-33 -154q59 74 139 122t179 48q14 0 28.5 -1t28.5 -3l-63 -274q-92 -4 -159 -18.5t-115 -48.5t-79.5 -93.5t-54.5 -155.5l-108 -477h-316z" />
<glyph unicode="s" horiz-adv-x="1110" d="M-45 248l264 131q12 -23 26.5 -44.5t33.5 -39.5q41 -37 99 -55.5t111 -18.5q23 0 52.5 4t56.5 14.5t46.5 29t19.5 46.5q0 20 -10.5 33.5t-24.5 26.5q-10 8 -48 22.5t-83 28.5t-86 27.5t-60 19.5q-49 18 -94 44t-79 60.5t-54.5 79.5t-20.5 103q0 43 14.5 84t39.5 76 q35 49 83 82.5t102 54t112.5 29t115.5 8.5q158 0 289 -57.5t207 -200.5l-240 -119q-51 78 -107 110.5t-153 32.5q-18 0 -41.5 -3t-44 -12t-34 -25.5t-13.5 -41.5q0 -35 41 -56.5t103.5 -39.5t135 -41t135 -58.5t103.5 -93t41 -145.5q0 -68 -26.5 -125t-71.5 -101t-101.5 -76 t-117.5 -48q-94 -27 -199 -27h-6q-174 0 -302 64.5t-214 216.5z" />
<glyph unicode="t" horiz-adv-x="724" d="M66 870l43 191h141l67 293h320l-68 -293h183l-43 -191h-183l-100 -440q-4 -23 -9 -46.5t-5 -45.5q0 -43 17 -62.5t43 -26.5t57.5 -6t62.5 1l-53 -242q-45 -8 -90.5 -12t-90.5 -4q-57 0 -109 11t-91 37.5t-61.5 71t-22.5 109.5q0 29 5 57.5t11 57.5l119 540h-143z" />
<glyph unicode="u" d="M74 250q0 35 5 68.5t13 68.5l152 668h315l-139 -621q-4 -16 -6 -33.5t-2 -33.5q0 -129 123 -129q51 0 86.5 21.5t61.5 56t42 77.5t25 86l129 576h317l-240 -1055h-315l33 139q-66 -70 -134.5 -108.5t-168.5 -38.5q-57 0 -110.5 16.5t-95.5 49t-66.5 80.5t-24.5 112z" />
<glyph unicode="v" horiz-adv-x="1067" d="M98 1055h316l43 -721l358 721h352l-616 -1055h-328z" />
<glyph unicode="w" horiz-adv-x="1622" d="M106 1055h291l17 -688l334 688h294l17 -688l323 688h334l-579 -1055h-316l-10 647l-324 -647h-315z" />
<glyph unicode="x" horiz-adv-x="1067" d="M-137 0l493 557l-206 498h331l99 -271l217 271h362l-465 -518l234 -537h-332l-115 319l-264 -319h-354z" />
<glyph unicode="y" horiz-adv-x="1024" d="M-139 -371l55 256q29 -4 54.5 -9t54.5 -5q53 0 91 17.5t72 60.5l-108 1106h319l33 -738l371 738h350l-688 -1172q-43 -74 -85 -124t-93 -80.5t-116 -44t-153 -13.5q-41 0 -78.5 2t-78.5 6z" />
<glyph unicode="z" horiz-adv-x="1067" d="M-61 0l51 233l643 596h-510l51 226h916l-52 -226l-639 -596h531l-53 -233h-938z" />
<glyph unicode="{" horiz-adv-x="649" d="M20 561l41 178q55 0 93.5 9.5t63 33t40.5 65.5t31 109l67 304q16 74 27.5 110.5t28.5 71.5q23 49 67 90q23 20 45.5 33.5t50 21.5t65.5 11.5t89 3.5h131l-39 -172h-33q-57 0 -92 -31q-25 -25 -34 -45q-6 -12 -9.5 -22.5t-8.5 -26t-10 -38t-13 -59.5l-68 -290 q-31 -129 -68 -183q-55 -76 -166 -96q117 -41 117 -166q0 -31 -3 -64.5t-13 -72.5l-58 -246q-16 -68 -20 -91.5t-4 -43.5q0 -88 100 -88h23l-39 -170h-131q-111 0 -172.5 57.5t-61.5 161.5q0 29 5.5 63.5t21.5 100.5l63 264q6 27 10.5 56.5t4.5 45.5q0 55 -32 81t-110 34z " />
<glyph unicode="|" horiz-adv-x="524" d="M-88 -293l436 1888h273l-437 -1888h-272z" />
<glyph unicode="}" horiz-adv-x="649" d="M-213 -303l39 172h33q59 0 94 31q20 20 33 45q6 12 9 22t8 25.5t10 38t14 59.5l67 291q31 129 68 180q53 78 166 98q-117 41 -117 166q0 61 18 138l56 245q16 68 20 91.5t4 43.5q0 88 -98 89h-25l39 170h131q113 0 173.5 -57.5t60.5 -162.5q0 -29 -5 -63.5t-22 -99.5 l-61 -265q-6 -27 -11.5 -56.5t-5.5 -45.5q0 -55 32 -81t112 -34l-41 -178q-57 -2 -94 -11t-61.5 -32.5t-40 -64.5t-32.5 -109l-69 -303q-16 -74 -27.5 -111t-27.5 -71q-25 -53 -66 -90q-23 -20 -45.5 -34t-51 -22t-66.5 -11t-89 -3h-131z" />
<glyph unicode="~" horiz-adv-x="1482" d="M156 713q43 53 64.5 75.5t53.5 49.5q94 78 218 77q43 0 83 -10q25 -6 67 -23.5t83 -35.5l125 -58q70 -33 99.5 -42t60.5 -9q33 0 69.5 12.5t67.5 34.5q29 20 52.5 42t68.5 73l94 -268q-51 -59 -83 -87t-75 -57q-92 -59 -188 -59q-49 0 -102.5 17.5t-143.5 60.5l-72 35 q-68 33 -114.5 48t-94.5 15q-37 0 -67 -12q-37 -14 -66.5 -39t-83.5 -88l-20 -25z" />
<glyph unicode="&#xa1;" horiz-adv-x="598" d="M-49 0l69 299q10 43 14.5 76t20.5 74l140 333l69 166h133l-6 -166l-12 -333q-6 -45 -15.5 -76t-19.5 -74l-68 -299h-325zM209 1120l76 326h323l-73 -326h-326z" />
<glyph unicode="&#xa2;" horiz-adv-x="1150" d="M57 473q0 127 48.5 239.5t131 196.5t194.5 132.5t241 48.5h6h19.5t19.5 -3l43 158l114 -4l-47 -172q90 -27 160 -74t117 -131q18 -31 30.5 -65.5t24.5 -69.5l-282 -61q-14 55 -38 94t-79 61l-168 -600q92 0 140 47t81 125l287 -88q-20 -35 -40 -70.5t-46 -68.5 q-90 -109 -222.5 -160t-269.5 -37l-55 -204l-119 4l62 221q-168 49 -260.5 178t-92.5 303zM381 463q0 -61 21.5 -120.5t78.5 -92.5l166 590q-63 -4 -112.5 -42t-83 -94.5t-52 -121t-18.5 -119.5z" />
<glyph unicode="&#xa3;" horiz-adv-x="1536" d="M-4 219q0 66 26.5 113t69.5 77.5t98.5 45t112.5 14.5q53 0 105.5 -10t103.5 -23q-4 66 -12 112t-31 107h-301l39 179h190q-8 41 -15 79.5t-7 79.5q0 131 76 238q41 59 95 97t115.5 60.5t129 32t135.5 9.5q57 0 117.5 -8.5t115.5 -28t104.5 -52t86.5 -81.5 q31 -41 49 -90.5t35 -98.5l-299 -115q-4 27 -9.5 52.5t-19.5 48.5q-31 53 -86 83.5t-115 30.5q-92 0 -142 -63.5t-50 -149.5q0 -33 7 -63.5t17 -60.5h336l-41 -179h-227q10 -39 20.5 -76.5t10.5 -78.5q0 -45 -14.5 -86t-30.5 -82q41 -29 86 -53.5t98 -24.5q45 0 72.5 21.5 t45 55.5t24.5 72.5t11 73.5h306q-10 -68 -23.5 -137.5t-40.5 -131t-68.5 -112.5t-111.5 -86q-74 -35 -156 -35q-57 0 -107 13.5t-96.5 36t-90.5 51t-89 59.5q-86 -70 -171 -116t-201 -46q-55 0 -106.5 15.5t-90.5 46.5t-62.5 77t-23.5 107zM209 209q0 -31 28.5 -50.5 t57.5 -19.5q53 0 100 35t76 76q-35 16 -72 29.5t-77 13.5q-41 0 -77 -19.5t-36 -64.5z" />
<glyph unicode="&#xa5;" horiz-adv-x="1366" d="M123 362l51 211h324l14 70l-23 59h-286l49 209h154l-207 512h358l199 -512h4l377 512h407l-424 -512h148l-54 -209h-268l-84 -102l-4 -27h332l-53 -211h-328l-84 -362h-358l82 362h-326z" />
<glyph unicode="&#xa6;" horiz-adv-x="524" d="M-90 -295l188 821h275l-189 -821h-274zM156 770l190 823h272l-188 -823h-274z" />
<glyph unicode="&#xa7;" horiz-adv-x="1280" d="M10 -70l191 187q78 -59 150.5 -98t174.5 -39q39 0 70 9t55 40q6 10 10.5 18t4.5 19q0 43 -44 74.5t-110 63.5t-142.5 67.5t-142 83.5t-109.5 115t-44 159q0 86 43 161.5t112 124.5q33 23 70 39.5t74 32.5q-23 41 -36 77t-13 83q0 49 17 94t46 86q66 88 169 121t208 33 q80 0 143.5 -12.5t120.5 -36t112.5 -59.5t114.5 -85l-188 -176q-68 51 -152 96t-170 45q-39 0 -74.5 -16t-35.5 -61q0 -31 23.5 -54.5t56.5 -43t67.5 -34t55.5 -24.5q63 -31 127.5 -70t118 -89t87 -112.5t33.5 -142.5q0 -90 -41 -165.5t-112 -129.5q-29 -23 -61 -37t-62 -30 q16 -41 31.5 -82t15.5 -86q0 -59 -23.5 -109.5t-61.5 -89.5t-87 -67.5t-103 -45.5q-82 -27 -176 -26h-12q-147 0 -270 48t-232 144zM342 709q0 -43 26.5 -76t64.5 -59.5t80 -47t73 -37.5q53 -29 107.5 -58.5t107.5 -61.5q53 25 97 63.5t44 104.5q0 47 -26.5 81.5t-64.5 61.5 t-82 47.5t-79 38.5q-51 27 -100 53.5t-98 54.5q-27 -12 -53.5 -27.5t-48 -33.5t-35 -44t-13.5 -60z" />
<glyph unicode="&#xa8;" horiz-adv-x="641" d="M-119 1184l51 237h330l-49 -237h-332zM373 1184l53 237h334l-53 -237h-334z" />
<glyph unicode="&#xa9;" horiz-adv-x="1685" d="M137 723q0 152 57.5 285t156 231t231.5 155.5t284 57.5q150 0 283 -56.5t232.5 -153.5t156.5 -227.5t57 -277.5q0 -160 -55 -295t-153.5 -235.5t-231.5 -156.5t-291 -56q-152 0 -283.5 57.5t-230 155.5t-156 231t-57.5 285zM238 721q0 -133 49 -250t134 -204t198.5 -137 t244.5 -50q129 0 244 50t201 136t136 201t50 244q0 139 -48 259t-133 208t-200 138t-250 50q-129 0 -243.5 -50t-199.5 -138t-134 -206t-49 -251zM422 653q0 115 38 212.5t104.5 170t155.5 113.5t193 41q61 0 109.5 -10.5t91.5 -34t84 -62.5t84 -98l-174 -145q-29 41 -38 53 t-19 22q-27 29 -64 44.5t-78 15.5q-51 0 -94 -23.5t-75.5 -65.5t-51 -97.5t-18.5 -120.5q0 -98 49 -152.5t141 -54.5q51 0 88 16.5t99 65.5l112 -181q-88 -72 -157.5 -101.5t-161.5 -29.5t-169 31t-132.5 87.5t-86 134t-30.5 169.5z" />
<glyph unicode="&#xaa;" horiz-adv-x="768" d="M133 950q0 78 49 133q37 43 90.5 65.5t113.5 34t120.5 14.5t111.5 5q4 16 8.5 34.5t4.5 35.5q0 41 -29 54t-63 13q-53 0 -77 -23.5t-40 -68.5l-197 4q2 20 18.5 55t28.5 52q53 70 132 89t161 19q47 0 93.5 -7t83 -27.5t60 -56.5t23.5 -93q0 -23 -4 -46.5t-8 -45.5 l-78 -346q-2 -10 -3 -17.5t-1 -17.5q0 -8 4 -25h-188q-6 12 -6 25q0 16 3 33.5t7 34.5q-35 -63 -93.5 -87t-125.5 -24q-86 0 -142.5 48t-56.5 136zM332 975q0 -39 23.5 -54.5t58.5 -15.5q84 0 121 52t55 122q-25 0 -69 -2t-86 -13t-72.5 -31.5t-30.5 -57.5z" />
<glyph unicode="&#xab;" horiz-adv-x="854" d="M57 502l74 323l361 234l-66 -285l-211 -137l145 -145l-57 -252zM430 496l76 331l362 230l-67 -291l-213 -133l147 -148l-57 -249z" />
<glyph unicode="&#xac;" horiz-adv-x="1482" d="M137 524l62 275h1159l-170 -750h-342l110 475h-819z" />
<glyph unicode="&#xad;" horiz-adv-x="770" d="M53 485l68 293h612l-67 -293h-613z" />
<glyph unicode="&#xae;" horiz-adv-x="1677" d="M135 723q0 152 57.5 285t155.5 231t231.5 155.5t284.5 57.5q150 0 283 -56.5t232.5 -153.5t156.5 -227.5t57 -277.5q0 -160 -55 -295t-153.5 -235.5t-231.5 -156.5t-291 -56q-152 0 -285 56t-231 154.5t-154.5 231.5t-56.5 287zM236 721q0 -135 49 -252t133 -203 t198.5 -136t245.5 -50q129 0 244 50t201 136t136 201t50 244q0 139 -48 259t-133 208t-200 138t-250 50q-129 0 -243.5 -50t-199.5 -138t-134 -206t-49 -251zM463 281l180 905h229q61 0 100.5 -1t66 -4t46 -10.5t43.5 -17.5q66 -29 99 -88t33 -143q0 -104 -47.5 -172 t-151.5 -111l143 -358h-237l-113 323h-109l-65 -323h-217zM784 786h111q72 0 104.5 28t32.5 91q0 96 -106 96h-101z" />
<glyph unicode="&#xaf;" horiz-adv-x="641" d="M-113 1184l39 182h828l-41 -182h-826z" />
<glyph unicode="&#xb0;" horiz-adv-x="724" d="M106 1174q0 74 28 138t75 111t111.5 75t138.5 28t138.5 -28t111.5 -75t74.5 -111t27.5 -138t-27.5 -138.5t-76 -113t-112 -76t-136.5 -27.5q-74 0 -137.5 27.5t-111.5 76t-76 113t-28 138.5zM346 1178q0 -47 34 -81t81 -34t80.5 34t33.5 81t-33.5 79.5t-80.5 32.5 t-81 -32.5t-34 -79.5z" />
<glyph unicode="&#xb1;" horiz-adv-x="1482" d="M61 0l62 268h1098l-62 -268h-1098zM236 766l61 266h373l88 379h340l-88 -379h383l-60 -266h-383l-88 -389h-340l88 389h-374z" />
<glyph unicode="&#xb2;" horiz-adv-x="724" d="M61 516l29 137l373 305q41 33 81 79t40 102q0 45 -27 77.5t-74 32.5q-37 0 -62.5 -20.5t-38.5 -51t-17.5 -65.5t0.5 -65l-193 22q4 35 7 67.5t16 67.5q35 98 113.5 149.5t180.5 51.5q61 0 114.5 -17.5t93.5 -51t62.5 -83t22.5 -112.5q0 -49 -17 -92t-45 -81t-63.5 -71 t-72.5 -59l-219 -158h356l-39 -164h-621z" />
<glyph unicode="&#xb3;" horiz-adv-x="724" d="M53 770v16.5t2 16.5l209 22q-6 -25 -6 -49q0 -51 32 -86t85 -35q61 0 92 41t31 99q0 47 -29 72.5t-74 25.5h-30l28 133q25 -6 51 -6q63 0 95 46t32 103q0 41 -25.5 63.5t-64.5 22.5q-61 0 -90 -43t-33 -96l-198 23q10 41 22.5 81t38.5 72q47 57 121 85t145 28 q55 0 106.5 -16.5t92.5 -47t65.5 -77t24.5 -105.5q0 -84 -49 -129t-121 -67q53 -35 83 -76t30 -107q0 -68 -32 -120t-82 -88.5t-112.5 -55t-121.5 -18.5q-63 0 -122 16t-102 50t-68.5 85t-25.5 121z" />
<glyph unicode="&#xb4;" horiz-adv-x="641" d="M55 1188l193 332h338l-338 -332h-193z" />
<glyph unicode="&#xb5;" horiz-adv-x="1304" d="M-68 -442l334 1497h318l-115 -496q-4 -16 -8 -40.5t-12 -57.5q-10 -45 -13.5 -70.5t-3.5 -46.5q0 -61 33 -99t88 -38q66 0 115 59q43 51 75 146q14 37 24.5 74.5t27.5 113.5l106 455h322l-164 -740q-4 -12 -5 -25.5t-1 -23.5q0 -53 51 -53q16 0 26.5 3t36.5 13l-53 -229 q-41 -10 -89 -17.5t-83 -7.5q-82 0 -145 43q-25 16 -36 40t-26 77q-23 -39 -37 -57.5t-34 -36.5q-31 -29 -70 -44t-80 -15q-119 0 -143 116l-119 -540h-320z" />
<glyph unicode="&#xb6;" horiz-adv-x="1306" d="M270 979q0 117 51.5 216t143.5 163q72 47 162 67.5t241 20.5h490l-39 -170h-72l-373 -1618h-182l375 1618h-233l-373 -1618h-182l221 958q-229 111 -230 363z" />
<glyph unicode="&#xb7;" horiz-adv-x="512" d="M84 537l76 337h323l-75 -337h-324z" />
<glyph unicode="&#xb8;" horiz-adv-x="641" d="M98 -430l21 92q18 -2 37.5 -3t38.5 -1q12 0 29.5 3t32.5 10t25.5 18.5t10.5 27.5q0 20 -19.5 29.5t-35.5 9.5q-27 0 -51.5 -5t-49.5 -13l17 72l194 227h94l-114 -180q51 10 92 10q47 0 85 -27t38 -80q0 -47 -33 -90q-49 -66 -121 -86t-149 -20q-70 0 -142 6z" />
<glyph unicode="&#xb9;" horiz-adv-x="724" d="M225 1126l31 140q47 2 84 6t68.5 16t60.5 35t55 61h154l-197 -868h-205l144 633q-57 -14 -96 -18.5t-99 -4.5z" />
<glyph unicode="&#xba;" horiz-adv-x="724" d="M123 1077q0 84 30.5 155t83 123t124 81.5t153.5 29.5q70 0 127 -22.5t99 -63.5t65.5 -97t23.5 -126q0 -84 -30.5 -155.5t-83.5 -125t-125 -83t-156 -29.5q-141 0 -226 87t-85 226zM322 1075q0 -61 30.5 -108t100.5 -47q47 0 79.5 23.5t53 59t31 78.5t10.5 82 q0 66 -33 107t-102 41q-41 0 -73 -23.5t-53.5 -58.5t-32.5 -77t-11 -77z" />
<glyph unicode="&#xbb;" horiz-adv-x="854" d="M-4 236l67 290l209 131l-145 150l57 248l248 -258l-74 -330zM373 233l65 287l211 137l-147 144l59 252l246 -260l-74 -324z" />
<glyph unicode="&#xbc;" horiz-adv-x="1705" d="M225 1126l31 140q47 2 84 6t68.5 16t60.5 35t55 61h154l-197 -868h-205l144 633q-57 -14 -96 -18.5t-99 -4.5zM313 0l944 1389h177l-945 -1389h-176zM922 213l36 164l441 491h237l-114 -512h125l-33 -143h-127l-47 -213h-203l49 213h-364zM1114 356h205l80 322z" />
<glyph unicode="&#xbd;" horiz-adv-x="1705" d="M225 1126l31 140q47 2 84 6t68.5 16t60.5 35t55 61h154l-197 -868h-205l144 633q-57 -14 -96 -18.5t-99 -4.5zM264 0l944 1389h178l-944 -1389h-178zM920 0l28 137l373 305q41 35 81 79t40 102q0 45 -26.5 76.5t-74.5 31.5q-39 0 -63.5 -20.5t-37.5 -50t-17 -65.5t0 -67 l-193 25q4 35 7 67.5t16 67.5q35 96 114.5 148.5t180.5 52.5q59 0 111 -17.5t93 -50.5t64.5 -81t23.5 -111q0 -51 -17 -94t-45 -81t-63.5 -71t-74.5 -61l-217 -158h356l-39 -164h-620z" />
<glyph unicode="&#xbe;" horiz-adv-x="1705" d="M53 770v16.5t2 16.5l209 22q-6 -25 -6 -49q0 -51 32 -86t85 -35q61 0 92 41t31 99q0 47 -29 72.5t-74 25.5h-30l28 133q25 -6 51 -6q63 0 95 46t32 103q0 41 -25.5 63.5t-64.5 22.5q-61 0 -90 -43t-33 -96l-198 23q10 41 22.5 81t38.5 72q47 57 121 85t145 28 q55 0 106.5 -16.5t92.5 -47t65.5 -77t24.5 -105.5q0 -84 -49 -129t-121 -67q53 -35 83 -76t30 -107q0 -68 -32 -120t-82 -88.5t-112.5 -55t-121.5 -18.5q-63 0 -122 16t-102 50t-68.5 85t-25.5 121zM367 0l944 1389h178l-944 -1389h-178zM922 213l36 164l441 491h237 l-114 -512h125l-33 -143h-127l-47 -213h-203l49 213h-364zM1114 356h205l80 322z" />
<glyph unicode="&#xbf;" horiz-adv-x="1150" d="M-12 348q0 84 35.5 157t97.5 126q53 47 119.5 75.5t132 58.5t123 69.5t92.5 109.5h286q-10 -53 -21 -85t-46 -77q-25 -31 -61.5 -60.5t-77.5 -57t-83 -52t-77 -45.5q-27 -16 -56.5 -34.5t-54 -41t-41 -50t-16.5 -64.5q0 -33 15.5 -58.5t39 -43t53 -25.5t60.5 -8 q104 0 157.5 61.5t73.5 153.5l320 -74q-20 -53 -42 -104.5t-56 -96.5q-84 -111 -209 -155.5t-260 -44.5q-86 0 -175.5 19t-162 62t-119.5 114t-47 171zM602 1122l72 324h325l-73 -324h-324z" />
<glyph unicode="&#xc0;" horiz-adv-x="1449" d="M-141 0l882 1446h406l153 -1446h-352l-18 287h-533l-159 -287h-379zM545 549h368l-39 594zM575 1866h386l155 -269h-207z" />
<glyph unicode="&#xc1;" horiz-adv-x="1449" d="M-141 0l882 1446h406l153 -1446h-352l-18 287h-533l-159 -287h-379zM545 549h368l-39 594zM821 1597l154 269h385l-332 -269h-207z" />
<glyph unicode="&#xc2;" horiz-adv-x="1449" d="M-141 0l882 1446h406l153 -1446h-352l-18 287h-533l-159 -287h-379zM545 549h368l-39 594zM545 1602l278 237h394l137 -237h-236l-100 157l-144 -157h-329z" />
<glyph unicode="&#xc3;" horiz-adv-x="1449" d="M-141 0l882 1446h406l153 -1446h-352l-18 287h-533l-159 -287h-379zM526 1610q18 51 41 95t53.5 77t74.5 52t106 19q61 0 125.5 -18t124.5 -37q33 -10 65.5 -20.5t67.5 -10.5q41 0 60.5 20.5t29.5 57.5h149q-18 -53 -41.5 -98t-57.5 -79t-80 -52.5t-109 -18.5 q-47 0 -95.5 12.5t-95.5 28t-93 27.5t-89 12q-39 0 -56.5 -18.5t-33.5 -48.5h-146zM545 549h368l-39 594z" />
<glyph unicode="&#xc4;" horiz-adv-x="1449" d="M-141 0l882 1446h406l153 -1446h-352l-18 287h-533l-159 -287h-379zM545 549h368l-39 596zM547 1604l53 233h330l-53 -233h-330zM1081 1604l52 233h329l-51 -233h-330z" />
<glyph unicode="&#xc5;" horiz-adv-x="1449" d="M-141 0l880 1446h408l153 -1446h-352l-18 287h-533l-159 -287h-379zM543 549h370l-41 594zM786 1765q0 43 18.5 76t48.5 54.5t67.5 32.5t76.5 11t77 -11t67.5 -32.5t48 -54.5t18.5 -76t-18.5 -75.5t-48 -54t-67.5 -33t-77 -11.5t-76.5 11.5t-67.5 33t-48.5 54t-18.5 75.5 zM901 1765q0 -41 30 -59t66 -18q37 0 66 18t29 59t-29 59.5t-66 18.5q-39 0 -67.5 -18.5t-28.5 -59.5z" />
<glyph unicode="&#xc6;" horiz-adv-x="2174" d="M-141 0l1108 1446h1202l-62 -277h-620l-64 -280h598l-57 -264h-600l-78 -349h735l-63 -276h-1088l76 338h-430l-242 -338h-415zM707 600h301l135 604z" />
<glyph unicode="&#xc7;" horiz-adv-x="1492" d="M111 631q0 170 56 324.5t158.5 271t247 185.5t322.5 69q68 0 139.5 -13.5t139 -39t127 -64.5t104.5 -92q39 -45 61.5 -96.5t44.5 -104.5l-346 -78q-35 94 -94 150.5t-166 56.5q-102 0 -179 -55t-129 -140t-78.5 -184.5t-26.5 -185.5q0 -49 9 -101.5t28.5 -100.5t53 -87 t83.5 -61q45 -23 98 -23q63 0 116.5 24.5t96.5 64.5t75.5 91.5t57.5 104.5l301 -168q-106 -199 -270 -308.5t-393 -109.5l-68 -104q23 4 45.5 7t44.5 3q49 0 87 -26.5t38 -80.5q0 -29 -10.5 -51t-26.5 -45q-47 -61 -121.5 -80.5t-146.5 -19.5q-68 0 -139 6l20 92 q18 -2 37.5 -3t38.5 -1q12 0 28.5 3t32 10t25.5 18.5t10 27.5q0 23 -18.5 31t-34.5 8q-27 0 -51.5 -5t-49.5 -13l15 72l141 161q-131 20 -231.5 76.5t-168 142.5t-101 198t-33.5 243z" />
<glyph unicode="&#xc8;" horiz-adv-x="1366" d="M0 0l330 1446h1040l-63 -277h-686l-64 -280h662l-60 -264h-661l-80 -351h788l-59 -274h-1147zM553 1866h385l156 -269h-205z" />
<glyph unicode="&#xc9;" horiz-adv-x="1366" d="M0 0l330 1446h1040l-63 -277h-686l-64 -280h662l-60 -264h-661l-80 -351h788l-59 -274h-1147zM725 1597l154 269h385l-332 -269h-207z" />
<glyph unicode="&#xca;" horiz-adv-x="1366" d="M0 0l330 1446h1040l-63 -277h-686l-64 -280h662l-60 -264h-661l-80 -351h788l-59 -274h-1147zM502 1602l280 237h394l135 -237h-236l-100 157l-144 -157h-329z" />
<glyph unicode="&#xcb;" horiz-adv-x="1366" d="M0 0l330 1446h1040l-63 -277h-686l-64 -280h662l-60 -264h-661l-80 -351h788l-59 -274h-1147zM479 1604l51 233h332l-53 -233h-330zM1012 1604l51 233h332l-54 -233h-329z" />
<glyph unicode="&#xcc;" horiz-adv-x="641" d="M4 0l324 1446h360l-323 -1446h-361zM160 1866h383l155 -269h-204z" />
<glyph unicode="&#xcd;" horiz-adv-x="641" d="M4 0l324 1446h360l-323 -1446h-361zM383 1597l156 269h383l-332 -269h-207z" />
<glyph unicode="&#xce;" horiz-adv-x="641" d="M4 0l324 1446h360l-323 -1446h-361zM139 1602l281 237h391l137 -237h-235l-101 157l-143 -157h-330z" />
<glyph unicode="&#xcf;" horiz-adv-x="641" d="M4 0l324 1446h360l-323 -1446h-361zM117 1604l51 233h332l-54 -233h-329zM649 1604l51 233h332l-53 -233h-330z" />
<glyph unicode="&#xd1;" horiz-adv-x="1449" d="M-2 0l332 1446h356l289 -932l196 932h330l-330 -1446h-352l-284 928l-205 -928h-332zM526 1610q18 51 41 95t53.5 77t74.5 52t106 19q61 0 125.5 -18t124.5 -37q33 -10 65.5 -20.5t67.5 -10.5q41 0 60.5 20.5t29.5 57.5h149q-18 -53 -41.5 -98t-57.5 -79t-80 -52.5 t-109 -18.5q-47 0 -95.5 12.5t-95.5 28t-93 27.5t-89 12q-39 0 -56.5 -18.5t-33.5 -48.5h-146z" />
<glyph unicode="&#xd2;" horiz-adv-x="1622" d="M98 590q0 104 23.5 210.5t70 206t113 186.5t152.5 148q98 72 222 108t247 36q143 0 262 -41t205 -120t134 -194t48 -262q0 -119 -31 -239.5t-90 -230t-143 -201t-193 -146.5q-88 -47 -183 -66.5t-194 -19.5q-147 0 -266 41t-203 121t-129 196.5t-45 266.5zM463 578 q0 -70 19.5 -129.5t57.5 -103.5t93 -69.5t129 -25.5q113 0 197.5 59.5t141 150.5t85 199.5t28.5 204.5q0 152 -80.5 239t-232.5 87q-115 0 -209 -68q-55 -41 -98 -105.5t-71.5 -140t-44 -153.5t-15.5 -145zM682 1866h385l156 -269h-207z" />
<glyph unicode="&#xd3;" horiz-adv-x="1622" d="M98 590q0 104 23.5 210.5t70 206t113 186.5t152.5 148q98 72 222 108t247 36q143 0 262 -41t205 -120t134 -194t48 -262q0 -119 -31 -239.5t-90 -230t-143 -201t-193 -146.5q-88 -47 -183 -66.5t-194 -19.5q-147 0 -266 41t-203 121t-129 196.5t-45 266.5zM463 578 q0 -70 19.5 -129.5t57.5 -103.5t93 -69.5t129 -25.5q113 0 197.5 59.5t141 150.5t85 199.5t28.5 204.5q0 152 -80.5 239t-232.5 87q-115 0 -209 -68q-55 -41 -98 -105.5t-71.5 -140t-44 -153.5t-15.5 -145zM852 1597l156 269h385l-334 -269h-207z" />
<glyph unicode="&#xd4;" horiz-adv-x="1622" d="M98 590q0 104 23.5 210.5t70 206t113 186.5t152.5 148q98 72 222 108t247 36q143 0 262 -41t205 -120t134 -194t48 -262q0 -119 -31 -239.5t-90 -230t-143 -201t-193 -146.5q-88 -47 -183 -66.5t-194 -19.5q-147 0 -266 41t-203 121t-129 196.5t-45 266.5zM463 578 q0 -70 19.5 -129.5t57.5 -103.5t93 -69.5t129 -25.5q113 0 197.5 59.5t141 150.5t85 199.5t28.5 204.5q0 152 -80.5 239t-232.5 87q-115 0 -209 -68q-55 -41 -98 -105.5t-71.5 -140t-44 -153.5t-15.5 -145zM631 1602l278 237h394l135 -237h-236l-100 157l-141 -157h-330z " />
<glyph unicode="&#xd5;" horiz-adv-x="1622" d="M98 590q0 104 23.5 210.5t70 206t113 186.5t152.5 148q98 72 222 108t247 36q143 0 262 -41t205 -120t134 -194t48 -262q0 -119 -31 -239.5t-90 -230t-143 -201t-193 -146.5q-88 -47 -183 -66.5t-194 -19.5q-147 0 -266 41t-203 121t-129 196.5t-45 266.5zM463 578 q0 -70 19.5 -129.5t57.5 -103.5t93 -69.5t129 -25.5q113 0 197.5 59.5t141 150.5t85 199.5t28.5 204.5q0 152 -80.5 239t-232.5 87q-115 0 -209 -68q-55 -41 -98 -105.5t-71.5 -140t-44 -153.5t-15.5 -145zM612 1610q18 51 41 95t53.5 77t74.5 52t106 19q61 0 124.5 -18 t123.5 -37q33 -10 65.5 -20.5t67.5 -10.5q41 0 61.5 20.5t30.5 57.5h149q-18 -53 -41.5 -98t-57.5 -79t-80 -52.5t-109 -18.5q-49 0 -97.5 12.5t-95.5 28t-92 27.5t-88 12q-39 0 -56.5 -18.5t-33.5 -48.5h-146z" />
<glyph unicode="&#xd6;" horiz-adv-x="1622" d="M98 590q0 104 23.5 210.5t70 206t113 186.5t152.5 148q98 72 222 108t247 36q143 0 262 -41t205 -120t134 -194t48 -262q0 -119 -31 -239.5t-90 -230t-143 -201t-193 -146.5q-88 -47 -183 -66.5t-194 -19.5q-147 0 -266 41t-203 121t-129 196.5t-45 266.5zM463 578 q0 -70 19.5 -129.5t57.5 -103.5t93 -69.5t129 -25.5q113 0 197.5 59.5t141 150.5t85 199.5t28.5 204.5q0 152 -80.5 239t-232.5 87q-115 0 -209 -68q-55 -41 -98 -105.5t-71.5 -140t-44 -153.5t-15.5 -145zM602 1604l53 235h332l-53 -235h-332zM1137 1604l51 235h332 l-54 -235h-329z" />
<glyph unicode="&#xd7;" horiz-adv-x="1482" d="M190 385l340 277l-241 299l258 208l241 -297l345 279l165 -205l-342 -278l244 -303l-258 -209l-246 301l-340 -277z" />
<glyph unicode="&#xd8;" horiz-adv-x="1622" d="M100 588q0 176 60.5 342t177.5 299q117 135 267.5 195.5t330.5 60.5q104 0 185 -18.5t173 -69.5l111 131l115 -96l-107 -125q45 -53 77 -102.5t51.5 -101.5t27.5 -110.5t8 -130.5q0 -113 -28.5 -228.5t-83 -222t-133.5 -194.5t-179 -147q-94 -55 -200.5 -81t-215.5 -26 q-113 0 -199.5 23.5t-185.5 74.5l-139 -161l-111 96l136 164q-82 98 -110 201.5t-28 226.5zM455 575q0 -35 5 -69.5t15 -69.5l610 715q-47 27 -87 38t-95 11q-117 0 -202 -60.5t-139 -153.5t-80.5 -202.5t-26.5 -208.5zM559 307q49 -35 100.5 -53t112.5 -18q115 0 200 62 t140 157.5t83 207t28 207.5q0 53 -7.5 89t-27.5 83z" />
<glyph unicode="&#xd9;" horiz-adv-x="1492" d="M121 418q0 57 9 112.5t22 110.5l180 805h362l-196 -881q-6 -27 -10.5 -53.5t-4.5 -54.5q0 -45 18.5 -80t48.5 -56.5t68.5 -33t79.5 -11.5q66 0 113 23t79 60.5t52.5 88t32.5 107.5l209 891h360l-213 -948q-18 -86 -46 -163t-81 -149q-43 -57 -104.5 -98t-130 -67.5 t-142 -39t-143.5 -12.5q-106 0 -207.5 24.5t-180.5 78t-127 138.5t-48 208zM586 1866h385l155 -269h-206z" />
<glyph unicode="&#xda;" horiz-adv-x="1492" d="M121 418q0 57 9 112.5t22 110.5l180 805h362l-196 -881q-6 -27 -10.5 -53.5t-4.5 -54.5q0 -45 18.5 -80t48.5 -56.5t68.5 -33t79.5 -11.5q66 0 113 23t79 60.5t52.5 88t32.5 107.5l209 891h360l-213 -948q-18 -86 -46 -163t-81 -149q-43 -57 -104.5 -98t-130 -67.5 t-142 -39t-143.5 -12.5q-106 0 -207.5 24.5t-180.5 78t-127 138.5t-48 208zM821 1597l154 269h385l-332 -269h-207z" />
<glyph unicode="&#xdb;" horiz-adv-x="1492" d="M121 418q0 57 9 112.5t22 110.5l180 805h362l-196 -881q-6 -27 -10.5 -53.5t-4.5 -54.5q0 -45 18.5 -80t48.5 -56.5t68.5 -33t79.5 -11.5q66 0 113 23t79 60.5t52.5 88t32.5 107.5l209 891h360l-213 -948q-18 -86 -46 -163t-81 -149q-43 -57 -104.5 -98t-130 -67.5 t-142 -39t-143.5 -12.5q-106 0 -207.5 24.5t-180.5 78t-127 138.5t-48 208zM567 1602l279 237h393l135 -237h-235l-101 157l-141 -157h-330z" />
<glyph unicode="&#xdc;" horiz-adv-x="1492" d="M121 418q0 57 9 112.5t22 110.5l180 805h362l-196 -881q-6 -27 -10.5 -53.5t-4.5 -54.5q0 -45 18.5 -80t48.5 -56.5t68.5 -33t79.5 -11.5q66 0 113 23t79 60.5t52.5 88t32.5 107.5l209 891h360l-213 -948q-18 -86 -46 -163t-81 -149q-43 -57 -104.5 -98t-130 -67.5 t-142 -39t-143.5 -12.5q-106 0 -207.5 24.5t-180.5 78t-127 138.5t-48 208zM541 1599l53 236h330l-54 -236h-329zM1075 1599l51 236h332l-53 -236h-330z" />
<glyph unicode="&#xdd;" horiz-adv-x="1366" d="M199 1446h358l201 -520l379 520h407l-682 -836l-137 -610h-358l145 655zM725 1597l154 269h385l-332 -269h-207z" />
<glyph unicode="&#xde;" horiz-adv-x="1409" d="M0 0l324 1446h358l-43 -205h264q45 0 90 -5t88 -15q152 -39 226.5 -148.5t74.5 -263.5q0 -184 -102 -319.5t-281 -188.5q-63 -18 -128.5 -24.5t-131.5 -6.5h-317l-64 -270h-358zM483 532h256q29 0 56.5 3.5t54.5 13.5q76 29 123 97.5t47 148.5q0 104 -62.5 146t-156.5 42 h-217z" />
<glyph unicode="&#xdf;" horiz-adv-x="1280" d="M0 0l223 985q14 59 31.5 118.5t46.5 115.5q72 133 190.5 192t266.5 59q84 0 159.5 -18t134 -59t93.5 -107t35 -158q0 -70 -31 -145.5t-90 -116.5q-23 -16 -51.5 -24t-55.5 -17q23 -10 44.5 -19t39.5 -24q63 -47 94 -117.5t31 -148.5q0 -111 -34.5 -209t-99 -173 t-158 -118t-210.5 -43q-57 0 -113.5 12.5t-109.5 26.5l53 232q33 -10 64 -17.5t65 -7.5q57 0 99.5 24.5t69 63.5t40 89t13.5 102q0 117 -53.5 166t-163.5 49h-27l49 221q16 -10 35.5 -13t38.5 -3q80 0 122 55t42 129q0 68 -39 102.5t-105 34.5q-49 0 -81.5 -17.5t-52 -47 t-31 -67.5t-21.5 -79l-236 -1028h-317z" />
<glyph unicode="&#xe0;" d="M20 264q0 59 19.5 115.5t56.5 101.5q57 68 143.5 105t183.5 53t194.5 21.5t179.5 9.5q8 29 14 56.5t6 55.5q0 33 -13 53.5t-34.5 33t-48.5 16.5t-53 4q-80 0 -121 -38t-64 -110l-315 9q10 35 23.5 71.5t33.5 69.5q41 63 94.5 102t115 60.5t130 29t137.5 7.5 q74 0 150 -11.5t137.5 -43t100 -89t38.5 -147.5q0 -37 -6 -74t-14 -74l-125 -555q-6 -27 -6 -55q0 -10 2 -20.5t4 -20.5h-303q-4 12 -7 24.5t-3 24.5q0 23 7 49.5t11 48.5q-25 -49 -62.5 -82.5t-84.5 -55t-99.5 -31t-101.5 -9.5q-137 0 -228.5 77t-91.5 218zM338 305 q0 -61 36 -85.5t93 -24.5q66 0 113 23.5t79.5 61t54.5 89t36 106.5q-41 -2 -111 -6t-136.5 -20.5t-115.5 -49t-49 -94.5zM422 1520h338l192 -332h-192z" />
<glyph unicode="&#xe1;" d="M20 264q0 59 19.5 115.5t56.5 101.5q57 68 143.5 105t183.5 53t194.5 21.5t179.5 9.5q8 29 14 56.5t6 55.5q0 33 -13 53.5t-34.5 33t-48.5 16.5t-53 4q-80 0 -121 -38t-64 -110l-315 9q10 35 23.5 71.5t33.5 69.5q41 63 94.5 102t115 60.5t130 29t137.5 7.5 q74 0 150 -11.5t137.5 -43t100 -89t38.5 -147.5q0 -37 -6 -74t-14 -74l-125 -555q-6 -27 -6 -55q0 -10 2 -20.5t4 -20.5h-303q-4 12 -7 24.5t-3 24.5q0 23 7 49.5t11 48.5q-25 -49 -62.5 -82.5t-84.5 -55t-99.5 -31t-101.5 -9.5q-137 0 -228.5 77t-91.5 218zM338 305 q0 -61 36 -85.5t93 -24.5q66 0 113 23.5t79.5 61t54.5 89t36 106.5q-41 -2 -111 -6t-136.5 -20.5t-115.5 -49t-49 -94.5zM598 1188l193 332h337l-337 -332h-193z" />
<glyph unicode="&#xe2;" d="M20 264q0 59 19.5 115.5t56.5 101.5q57 68 143.5 105t183.5 53t194.5 21.5t179.5 9.5q8 29 14 56.5t6 55.5q0 33 -13 53.5t-34.5 33t-48.5 16.5t-53 4q-80 0 -121 -38t-64 -110l-315 9q10 35 23.5 71.5t33.5 69.5q41 63 94.5 102t115 60.5t130 29t137.5 7.5 q74 0 150 -11.5t137.5 -43t100 -89t38.5 -147.5q0 -37 -6 -74t-14 -74l-125 -555q-6 -27 -6 -55q0 -10 2 -20.5t4 -20.5h-303q-4 12 -7 24.5t-3 24.5q0 23 7 49.5t11 48.5q-25 -49 -62.5 -82.5t-84.5 -55t-99.5 -31t-101.5 -9.5q-137 0 -228.5 77t-91.5 218zM338 305 q0 -61 36 -85.5t93 -24.5q66 0 113 23.5t79.5 61t54.5 89t36 106.5q-41 -2 -111 -6t-136.5 -20.5t-115.5 -49t-49 -94.5zM362 1188l259 258h346l141 -258h-225l-97 151l-143 -151h-281z" />
<glyph unicode="&#xe3;" d="M20 264q0 59 19.5 115.5t56.5 101.5q57 68 143.5 105t183.5 53t194.5 21.5t179.5 9.5q8 29 14 56.5t6 55.5q0 33 -13 53.5t-34.5 33t-48.5 16.5t-53 4q-80 0 -121 -38t-64 -110l-315 9q10 35 23.5 71.5t33.5 69.5q41 63 94.5 102t115 60.5t130 29t137.5 7.5 q74 0 150 -11.5t137.5 -43t100 -89t38.5 -147.5q0 -37 -6 -74t-14 -74l-125 -555q-6 -27 -6 -55q0 -10 2 -20.5t4 -20.5h-303q-4 12 -7 24.5t-3 24.5q0 23 7 49.5t11 48.5q-25 -49 -62.5 -82.5t-84.5 -55t-99.5 -31t-101.5 -9.5q-137 0 -228.5 77t-91.5 218zM338 305 q0 -61 36 -85.5t93 -24.5q66 0 113 23.5t79.5 61t54.5 89t36 106.5q-41 -2 -111 -6t-136.5 -20.5t-115.5 -49t-49 -94.5zM381 1182q14 49 34.5 97t50.5 86t73 61.5t102 23.5q49 0 89 -15.5t76 -33t69.5 -32.5t66.5 -15q39 0 59.5 24.5t32.5 55.5h152q-18 -47 -41 -95.5 t-53.5 -87.5t-73.5 -63.5t-105 -24.5q-47 0 -87 15.5t-74.5 34t-66.5 34t-64 15.5q-43 0 -62.5 -22.5t-34.5 -57.5h-143z" />
<glyph unicode="&#xe4;" d="M20 264q0 59 19.5 115.5t56.5 101.5q57 68 143.5 105t183.5 53t194.5 21.5t179.5 9.5q8 29 14 56.5t6 55.5q0 33 -13 53.5t-34.5 33t-48.5 16.5t-53 4q-80 0 -121 -38t-64 -110l-315 9q10 35 23.5 71.5t33.5 69.5q41 63 94.5 102t115 60.5t130 29t137.5 7.5 q74 0 150 -11.5t137.5 -43t100 -89t38.5 -147.5q0 -37 -6 -74t-14 -74l-125 -555q-6 -27 -6 -55q0 -10 2 -20.5t4 -20.5h-303q-4 12 -7 24.5t-3 24.5q0 23 7 49.5t11 48.5q-25 -49 -62.5 -82.5t-84.5 -55t-99.5 -31t-101.5 -9.5q-137 0 -228.5 77t-91.5 218zM328 1180 l51 237h328l-50 -237h-329zM338 305q0 -61 36 -85.5t93 -24.5q66 0 113 23.5t79.5 61t54.5 89t36 106.5q-41 -2 -111 -6t-136.5 -20.5t-115.5 -49t-49 -94.5zM819 1180l53 237h332l-53 -237h-332z" />
<glyph unicode="&#xe5;" d="M20 264q0 59 19.5 115.5t56.5 101.5q57 68 143.5 105t183.5 53t194.5 21.5t179.5 9.5q8 29 14 56.5t6 55.5q0 33 -13 53.5t-34.5 33t-48.5 16.5t-53 4q-80 0 -121 -38t-64 -110l-315 9q10 35 23.5 71.5t33.5 69.5q41 63 94.5 102t115 60.5t130 29t137.5 7.5 q74 0 150 -11.5t137.5 -43t100 -89t38.5 -147.5q0 -37 -6 -74t-14 -74l-125 -555q-6 -27 -6 -55q0 -10 2 -20.5t4 -20.5h-303q-4 12 -7 24.5t-3 24.5q0 23 7 49.5t11 48.5q-25 -49 -62.5 -82.5t-84.5 -55t-99.5 -31t-101.5 -9.5q-137 0 -228.5 77t-91.5 218zM338 305 q0 -61 36 -85.5t93 -24.5q66 0 113 23.5t79.5 61t54.5 89t36 106.5q-41 -2 -111 -6t-136.5 -20.5t-115.5 -49t-49 -94.5zM557 1378q0 45 17.5 85t48 71t70.5 48t85 17t85 -17t71 -48t48 -71t17 -85t-17 -86t-47 -70.5t-70 -47t-87 -17.5q-45 0 -86 17.5t-70.5 47t-47 70.5 t-17.5 86zM692 1378q0 -35 25.5 -60.5t60.5 -25.5t59.5 25.5t24.5 60.5t-24.5 59.5t-59.5 24.5t-60.5 -24.5t-25.5 -59.5z" />
<glyph unicode="&#xe6;" horiz-adv-x="1921" d="M18 266q0 41 12.5 86t32.5 80q37 61 87.5 100t108.5 61.5t124 35t129 18.5q70 8 137.5 11.5t136.5 7.5q4 29 12.5 55.5t8.5 54.5q0 63 -45 88t-98 25q-74 0 -120 -41t-63 -109l-315 11q10 35 22.5 69.5t32.5 67.5q37 61 88 100t109.5 61.5t123 32t132.5 9.5 q102 0 180 -18.5t164 -78.5q78 47 152.5 72t166.5 25q111 0 202 -33t154.5 -95.5t98.5 -151.5t35 -204q0 -35 -2 -68.5t-6 -68.5h-760q0 -37 1 -69.5t10 -60.5t27.5 -52.5t53.5 -44.5q55 -33 117 -33q86 0 145.5 43t99.5 115l265 -93q-76 -150 -209 -227.5t-299 -77.5 q-94 0 -187.5 24.5t-164.5 88.5q-23 20 -43.5 44t-40.5 48q-88 -104 -219.5 -155.5t-266.5 -51.5q-143 0 -236.5 76t-93.5 223zM336 299q0 -55 35 -79.5t86 -24.5q68 0 113.5 22.5t78.5 59t53.5 87t36.5 105.5h-34q-41 0 -103.5 -5t-122 -21.5t-101.5 -50.5t-42 -93z M1100 666h446q-2 20 -5 44.5t-11 43.5q-25 57 -74 85.5t-108 28.5q-49 0 -88 -16t-68 -45t-51.5 -64.5t-40.5 -76.5z" />
<glyph unicode="&#xe7;" horiz-adv-x="1150" d="M57 459v12q0 78 20.5 154.5t59.5 146.5q86 156 224.5 237t316.5 81q117 0 228.5 -48.5t178.5 -146.5q27 -37 42.5 -81t31.5 -85l-282 -61q-23 80 -68 127t-137 47q-70 0 -124 -37t-91 -94.5t-56.5 -126t-19.5 -129.5q0 -104 54 -168t159 -64q92 0 138 48t81 124l287 -88 q-20 -39 -42 -75.5t-50 -71.5q-78 -92 -187.5 -141.5t-230.5 -49.5l-72 -112q23 4 45.5 7t44.5 3q49 0 87 -26.5t38 -80.5q0 -33 -14 -60.5t-37 -50t-50.5 -39t-56.5 -26.5q-35 -12 -74.5 -16t-76.5 -4q-68 0 -135 6l20 92q18 -2 37 -3t37 -1q12 0 29.5 3t33 10t25.5 18.5 t10 27.5q0 23 -18.5 31t-34.5 8q-27 0 -51.5 -5t-48.5 -13l14 72l143 165q-61 6 -119.5 31t-108.5 61.5t-91 85t-66 103.5q-43 98 -43 203z" />
<glyph unicode="&#xe8;" d="M59 475q0 76 19.5 153t56.5 145.5t88 128t115 99.5q72 47 156 69t170 22q111 0 198.5 -34t151 -97.5t97.5 -151.5t34 -199q0 -35 -2 -69.5t-6 -69.5h-768v-37q0 -104 54 -162.5t159 -58.5q88 0 146 42t103 114l265 -93q-16 -29 -34 -56t-38 -52q-86 -104 -201.5 -151.5 t-249.5 -47.5q-113 0 -208 36t-162.5 102.5t-105.5 159.5t-38 208zM379 1520h338l192 -332h-192zM410 670h452q0 92 -54 146t-146 54q-100 0 -156.5 -58t-95.5 -142z" />
<glyph unicode="&#xe9;" d="M59 475q0 76 19.5 153t56.5 145.5t88 128t115 99.5q72 47 156 69t170 22q111 0 198.5 -34t151 -97.5t97.5 -151.5t34 -199q0 -35 -2 -69.5t-6 -69.5h-768v-37q0 -104 54 -162.5t159 -58.5q88 0 146 42t103 114l265 -93q-16 -29 -34 -56t-38 -52q-86 -104 -201.5 -151.5 t-249.5 -47.5q-113 0 -208 36t-162.5 102.5t-105.5 159.5t-38 208zM410 670h452q0 92 -54 146t-146 54q-100 0 -156.5 -58t-95.5 -142zM565 1188l193 332h338l-338 -332h-193z" />
<glyph unicode="&#xea;" d="M59 475q0 76 19.5 153t56.5 145.5t88 128t115 99.5q72 47 156 69t170 22q111 0 198.5 -34t151 -97.5t97.5 -151.5t34 -199q0 -35 -2 -69.5t-6 -69.5h-768v-37q0 -104 54 -162.5t159 -58.5q88 0 146 42t103 114l265 -93q-16 -29 -34 -56t-38 -52q-86 -104 -201.5 -151.5 t-249.5 -47.5q-113 0 -208 36t-162.5 102.5t-105.5 159.5t-38 208zM362 1188l259 258h346l141 -258h-225l-97 151l-143 -151h-281zM410 670h452q0 92 -54 146t-146 54q-100 0 -156.5 -58t-95.5 -142z" />
<glyph unicode="&#xeb;" d="M59 475q0 76 19.5 153t56.5 145.5t88 128t115 99.5q72 47 156 69t170 22q111 0 198.5 -34t151 -97.5t97.5 -151.5t34 -199q0 -35 -2 -69.5t-6 -69.5h-768v-37q0 -104 54 -162.5t159 -58.5q88 0 146 42t103 114l265 -93q-16 -29 -34 -56t-38 -52q-86 -104 -201.5 -151.5 t-249.5 -47.5q-113 0 -208 36t-162.5 102.5t-105.5 159.5t-38 208zM342 1184l51 237h330l-49 -237h-332zM410 670h452q0 92 -54 146t-146 54q-100 0 -156.5 -58t-95.5 -142zM834 1184l53 237h334l-54 -237h-333z" />
<glyph unicode="&#xec;" horiz-adv-x="598" d="M0 0l244 1055h315l-240 -1055h-319zM59 1520h338l193 -332h-193z" />
<glyph unicode="&#xed;" horiz-adv-x="598" d="M0 0l244 1055h315l-240 -1055h-319zM279 1188l190 332h340l-340 -332h-190z" />
<glyph unicode="&#xee;" horiz-adv-x="598" d="M0 0l244 1055h315l-240 -1055h-319zM43 1188l256 258h348l141 -258h-225l-96 151l-145 -151h-279z" />
<glyph unicode="&#xef;" horiz-adv-x="598" d="M0 0l244 1055h315l-240 -1055h-319zM23 1184l49 237h329l-49 -237h-329zM514 1184l53 237h332l-53 -237h-332z" />
<glyph unicode="&#xf0;" horiz-adv-x="1280" d="M59 459q0 100 29 193t81 172t129 139.5t171 93.5q45 16 91 25.5t93 9.5q59 0 112.5 -19.5t94.5 -62.5q-12 66 -30.5 102.5t-43.5 91.5l-315 -74l-33 113l279 66q-20 29 -42 53t-44 49l250 78q49 -55 96 -121l178 43l35 -113l-148 -34q37 -61 66 -134t48.5 -150 t29.5 -154.5t10 -149.5q0 -145 -41 -273.5t-122 -224.5t-199.5 -152.5t-274.5 -56.5q-106 0 -198.5 36t-159 100.5t-104.5 154.5t-38 199zM379 465q0 -49 13.5 -94t39 -79t65.5 -54.5t93 -20.5q74 0 126 38t86 95.5t49 126t15 129.5q0 98 -49 168t-155 70q-70 0 -123.5 -36 t-89 -92.5t-53 -123t-17.5 -127.5z" />
<glyph unicode="&#xf1;" d="M2 0l242 1055h315l-29 -127q61 70 133 111.5t171 41.5q61 0 115.5 -17t94 -52t62 -86t22.5 -117q0 -31 -5 -60.5t-11 -58.5l-156 -690h-317l139 621q12 49 13 98q0 59 -35 89t-90 30q-27 0 -48.5 -8.5t-42.5 -22.5q-55 -39 -80.5 -95.5t-39.5 -119.5l-136 -592h-317z M381 1182q14 49 34.5 97t50.5 86t73 61.5t102 23.5q49 0 89 -15.5t76 -33t69.5 -32.5t66.5 -15q39 0 59.5 24.5t32.5 55.5h152q-18 -47 -41 -95.5t-53.5 -87.5t-73.5 -63.5t-105 -24.5q-47 0 -87 15.5t-74.5 34t-66.5 34t-64 15.5q-43 0 -62.5 -22.5t-34.5 -57.5h-143z" />
<glyph unicode="&#xf2;" horiz-adv-x="1280" d="M59 455v18q0 84 23.5 165t65.5 153.5t102.5 132t134.5 98.5q66 35 142.5 52.5t150.5 17.5q113 0 207 -35t161.5 -99.5t105.5 -155.5t38 -206q0 -129 -48 -243.5t-132 -199.5t-197 -134.5t-244 -49.5q-115 0 -209 34t-160.5 96.5t-103.5 152.5t-37 203zM379 465 q0 -49 12 -94t38 -79t66 -53.5t95 -19.5q74 0 126 37t86 94.5t49 125t15 128.5q0 98 -48 169t-156 71q-70 0 -123.5 -36t-89 -92.5t-53 -123t-17.5 -127.5zM401 1520h336l193 -332h-193z" />
<glyph unicode="&#xf3;" horiz-adv-x="1280" d="M59 455v18q0 84 23.5 165t65.5 153.5t102.5 132t134.5 98.5q66 35 142.5 52.5t150.5 17.5q113 0 207 -35t161.5 -99.5t105.5 -155.5t38 -206q0 -129 -48 -243.5t-132 -199.5t-197 -134.5t-244 -49.5q-115 0 -209 34t-160.5 96.5t-103.5 152.5t-37 203zM379 465 q0 -49 12 -94t38 -79t66 -53.5t95 -19.5q74 0 126 37t86 94.5t49 125t15 128.5q0 98 -48 169t-156 71q-70 0 -123.5 -36t-89 -92.5t-53 -123t-17.5 -127.5zM621 1188l190 332h338l-338 -332h-190z" />
<glyph unicode="&#xf4;" horiz-adv-x="1280" d="M59 455v18q0 84 23.5 165t65.5 153.5t102.5 132t134.5 98.5q66 35 142.5 52.5t150.5 17.5q113 0 207 -35t161.5 -99.5t105.5 -155.5t38 -206q0 -129 -48 -243.5t-132 -199.5t-197 -134.5t-244 -49.5q-115 0 -209 34t-160.5 96.5t-103.5 152.5t-37 203zM379 465 q0 -49 12 -94t38 -79t66 -53.5t95 -19.5q74 0 126 37t86 94.5t49 125t15 128.5q0 98 -48 169t-156 71q-70 0 -123.5 -36t-89 -92.5t-53 -123t-17.5 -127.5zM383 1188l258 258h346l141 -258h-225l-94 151l-145 -151h-281z" />
<glyph unicode="&#xf5;" horiz-adv-x="1280" d="M59 455v18q0 84 23.5 165t65.5 153.5t102.5 132t134.5 98.5q66 35 142.5 52.5t150.5 17.5q113 0 207 -35t161.5 -99.5t105.5 -155.5t38 -206q0 -129 -48 -243.5t-132 -199.5t-197 -134.5t-244 -49.5q-115 0 -209 34t-160.5 96.5t-103.5 152.5t-37 203zM379 465 q0 -49 12 -94t38 -79t66 -53.5t95 -19.5q74 0 126 37t86 94.5t49 125t15 128.5q0 98 -48 169t-156 71q-70 0 -123.5 -36t-89 -92.5t-53 -123t-17.5 -127.5zM403 1182q10 49 31 97t51.5 86t74.5 61.5t102 23.5q49 0 89 -15.5t75.5 -33t69.5 -32.5t69 -15q41 0 58 24.5 t34 55.5h151q-18 -47 -40.5 -95.5t-54.5 -87.5t-75 -63.5t-104 -24.5q-47 0 -86 15.5t-74 34t-67.5 34t-65.5 15.5q-41 0 -61.5 -22.5t-32.5 -57.5h-144z" />
<glyph unicode="&#xf6;" horiz-adv-x="1280" d="M59 455v18q0 84 23.5 165t65.5 153.5t102.5 132t134.5 98.5q66 35 142.5 52.5t150.5 17.5q113 0 207 -35t161.5 -99.5t105.5 -155.5t38 -206q0 -129 -48 -243.5t-132 -199.5t-197 -134.5t-244 -49.5q-115 0 -209 34t-160.5 96.5t-103.5 152.5t-37 203zM340 1184l49 237 h330l-49 -237h-330zM379 465q0 -49 12 -94t38 -79t66 -53.5t95 -19.5q74 0 126 37t86 94.5t49 125t15 128.5q0 98 -48 169t-156 71q-70 0 -123.5 -36t-89 -92.5t-53 -123t-17.5 -127.5zM831 1184l54 237h332l-54 -237h-332z" />
<glyph unicode="&#xf7;" horiz-adv-x="1482" d="M141 518l66 285h1157l-64 -285h-1159zM467 96l72 312h315l-72 -312h-315zM655 913l72 312h315l-71 -312h-316z" />
<glyph unicode="&#xf8;" horiz-adv-x="1280" d="M59 463q0 127 47.5 241.5t128 200.5t192.5 137.5t241 51.5q63 0 120.5 -13.5t116.5 -31.5l96 143h152l-139 -205q45 -45 77.5 -87t54 -87t32 -97t10.5 -118q0 -90 -24.5 -177t-70.5 -162t-112 -136.5t-150 -97.5q-66 -29 -137 -42.5t-143 -13.5q-63 0 -105.5 9.5 t-101.5 31.5l-98 -145h-152l139 207q-45 45 -77.5 87t-54 87t-32 98t-10.5 119zM365 457q0 -76 32 -148l361 525q-25 10 -46.5 17t-49.5 7q-76 0 -131.5 -39t-92.5 -97t-55 -129t-18 -136zM487 219q25 -6 50.5 -12t52.5 -6q76 0 129 40t88 100t51 132t16 133q0 45 -6 72 t-20 67z" />
<glyph unicode="&#xf9;" d="M74 250q0 35 5 68.5t13 68.5l152 668h315l-139 -621q-4 -16 -6 -33.5t-2 -33.5q0 -129 123 -129q51 0 86.5 21.5t61.5 56t42 77.5t25 86l129 576h317l-240 -1055h-315l33 139q-66 -70 -134.5 -108.5t-168.5 -38.5q-57 0 -110.5 16.5t-95.5 49t-66.5 80.5t-24.5 112z M379 1520h338l192 -332h-192z" />
<glyph unicode="&#xfa;" d="M74 250q0 35 5 68.5t13 68.5l152 668h315l-139 -621q-4 -16 -6 -33.5t-2 -33.5q0 -129 123 -129q51 0 86.5 21.5t61.5 56t42 77.5t25 86l129 576h317l-240 -1055h-315l33 139q-66 -70 -134.5 -108.5t-168.5 -38.5q-57 0 -110.5 16.5t-95.5 49t-66.5 80.5t-24.5 112z M598 1188l193 332h337l-337 -332h-193z" />
<glyph unicode="&#xfb;" d="M74 250q0 35 5 68.5t13 68.5l152 668h315l-139 -621q-4 -16 -6 -33.5t-2 -33.5q0 -129 123 -129q51 0 86.5 21.5t61.5 56t42 77.5t25 86l129 576h317l-240 -1055h-315l33 139q-66 -70 -134.5 -108.5t-168.5 -38.5q-57 0 -110.5 16.5t-95.5 49t-66.5 80.5t-24.5 112z M362 1188l259 258h346l141 -258h-225l-97 151l-143 -151h-281z" />
<glyph unicode="&#xfc;" d="M74 250q0 35 5 68.5t13 68.5l152 668h315l-139 -621q-4 -16 -6 -33.5t-2 -33.5q0 -129 123 -129q51 0 86.5 21.5t61.5 56t42 77.5t25 86l129 576h317l-240 -1055h-315l33 139q-66 -70 -134.5 -108.5t-168.5 -38.5q-57 0 -110.5 16.5t-95.5 49t-66.5 80.5t-24.5 112z M336 1186l49 237h330l-47 -237h-332zM827 1186l54 237h331l-53 -237h-332z" />
<glyph unicode="&#xfd;" horiz-adv-x="1024" d="M-139 -371l55 256q29 -4 54.5 -9t54.5 -5q53 0 91 17.5t72 60.5l-108 1106h319l33 -738l371 738h350l-688 -1172q-43 -74 -85 -124t-93 -80.5t-116 -44t-153 -13.5q-41 0 -78.5 2t-78.5 6zM492 1188l192 332h338l-338 -332h-192z" />
<glyph unicode="&#xfe;" horiz-adv-x="1280" d="M-84 -385l410 1831h284l-106 -498q59 68 127.5 101.5t161.5 33.5q100 0 175.5 -37.5t126 -101t75 -148t24.5 -178.5q0 -119 -37 -234.5t-107.5 -207.5t-172 -148.5t-230.5 -56.5q-98 0 -171 31t-132 109l-113 -496h-315zM412 420q0 -92 49 -156.5t147 -64.5q72 0 123 42 t84 104.5t49.5 134t16.5 128.5q0 45 -9.5 89t-31 80t-56 58.5t-88.5 22.5q-51 0 -99 -25.5t-81 -64.5q-23 -27 -42 -71t-32.5 -94t-21.5 -99t-8 -84z" />
<glyph unicode="&#xff;" horiz-adv-x="1024" d="M-139 -371l55 256q29 -4 54.5 -9t54.5 -5q53 0 91 17.5t72 60.5l-108 1106h319l33 -738l371 738h350l-688 -1172q-43 -74 -85 -124t-93 -80.5t-116 -44t-153 -13.5q-41 0 -78.5 2t-78.5 6zM236 1184l51 237h329l-51 -237h-329zM727 1184l53 237h332l-51 -237h-334z" />
<glyph unicode="&#x152;" horiz-adv-x="2217" d="M96 580q0 121 32 244.5t93.5 235t149.5 203t198 146.5q72 35 158 52.5t166 17.5q106 0 185 -21.5t171 -68.5l13 57h956l-61 -279h-615l-63 -278h587l-57 -262h-590l-82 -351h729l-65 -276h-1069l14 57q-84 -37 -155.5 -60.5t-165.5 -23.5q-131 0 -229.5 49.5t-165 133.5 t-100.5 193.5t-34 230.5zM465 621q0 -68 14.5 -131.5t47 -112.5t86 -80t128.5 -31q158 0 256 133q4 4 10.5 15.5t13.5 24t13 23.5t6 15l117 504q-16 100 -80.5 158.5t-167.5 58.5q-104 0 -187 -56.5t-140.5 -141.5t-87 -186t-29.5 -193z" />
<glyph unicode="&#x153;" horiz-adv-x="1961" d="M59 463q0 131 47.5 245.5t130 198.5t196.5 133.5t245 49.5q104 0 191 -34t167 -100q76 66 161 100t185 34q63 0 128 -14.5t123.5 -44.5t106.5 -73t79 -100q29 -53 40 -117t11 -123q0 -37 -3 -73.5t-7 -73.5h-742q0 -37 2 -70.5t11.5 -62.5t29 -53.5t56.5 -44.5 q49 -27 106 -27q53 0 99 21.5t81 60.5q16 16 27.5 35.5t23.5 38.5l265 -95q-29 -43 -58.5 -85t-66.5 -78q-76 -74 -178.5 -108t-206.5 -34q-57 0 -104.5 8.5t-88.5 25.5t-81 43t-85 60q-88 -72 -174 -105.5t-201 -33.5q-113 0 -208 35t-163.5 99.5t-106.5 155.5t-38 206z M381 461q0 -47 11 -90t36 -77t62.5 -54.5t89.5 -20.5q59 0 112 33q43 27 74 66.5t50.5 86t27.5 95.5t8 98q0 66 -16.5 120t-75.5 93q-45 31 -105 31q-70 0 -122 -37t-85.5 -93.5t-50 -124t-16.5 -126.5zM1161 668h426q0 82 -50 140t-136 58q-57 0 -105.5 -29.5t-83.5 -72.5 q-16 -23 -28.5 -47.5t-22.5 -48.5z" />
<glyph unicode="&#x178;" horiz-adv-x="1366" d="M199 1446h358l201 -520l379 520h407l-682 -836l-137 -610h-358l145 655zM479 1604l51 233h332l-53 -233h-330zM1012 1604l51 233h332l-54 -233h-329z" />
<glyph unicode="&#x2c6;" horiz-adv-x="641" d="M-53 1188l258 258h346l143 -258h-225l-96 151l-144 -151h-282z" />
<glyph unicode="&#x2dc;" horiz-adv-x="641" d="M-82 1182q14 49 34.5 97t50.5 86t73 61.5t102 23.5q49 0 89 -15.5t76 -33t69.5 -32.5t66.5 -15q39 0 59.5 24.5t32.5 55.5h152q-18 -47 -41 -95.5t-53.5 -87.5t-73.5 -63.5t-104 -24.5q-47 0 -87 15.5t-75 34t-67 34t-64 15.5q-43 0 -62.5 -22.5t-34.5 -57.5h-143z" />
<glyph unicode="&#x2000;" horiz-adv-x="969" />
<glyph unicode="&#x2001;" horiz-adv-x="1939" />
<glyph unicode="&#x2002;" horiz-adv-x="969" />
<glyph unicode="&#x2003;" horiz-adv-x="1939" />
<glyph unicode="&#x2004;" horiz-adv-x="646" />
<glyph unicode="&#x2005;" horiz-adv-x="484" />
<glyph unicode="&#x2006;" horiz-adv-x="323" />
<glyph unicode="&#x2007;" horiz-adv-x="323" />
<glyph unicode="&#x2008;" horiz-adv-x="242" />
<glyph unicode="&#x2009;" horiz-adv-x="387" />
<glyph unicode="&#x200a;" horiz-adv-x="107" />
<glyph unicode="&#x2010;" horiz-adv-x="770" d="M53 485l68 293h612l-67 -293h-613z" />
<glyph unicode="&#x2011;" horiz-adv-x="770" d="M53 485l68 293h612l-67 -293h-613z" />
<glyph unicode="&#x2012;" horiz-adv-x="770" d="M53 485l68 293h612l-67 -293h-613z" />
<glyph unicode="&#x2013;" horiz-adv-x="1282" d="M53 485l68 293h1124l-67 -293h-1125z" />
<glyph unicode="&#x2014;" horiz-adv-x="1880" d="M53 485l68 293h1722l-67 -293h-1723z" />
<glyph unicode="&#x2018;" horiz-adv-x="512" d="M137 776q20 92 39 182.5t50.5 172t85 150.5t145.5 120q41 23 83 37t85 30l-35 -149q-41 -27 -67.5 -46.5t-44 -41t-32 -51t-30.5 -74.5h123l-76 -330h-326z" />
<glyph unicode="&#x2019;" horiz-adv-x="512" d="M111 756l34 149q41 25 68 44.5t44 42t31.5 51t30.5 73.5h-120l73 330h328q-20 -92 -39.5 -182t-51.5 -171t-86 -151t-144 -121q-41 -23 -83 -37t-85 -28z" />
<glyph unicode="&#x201a;" horiz-adv-x="512" d="M-131 -360l35 149q41 25 67.5 44.5t44 42t31.5 51t31 73.5h-123l76 332h327q-20 -92 -39.5 -182.5t-51 -172t-86 -151.5t-144.5 -121q-41 -23 -83 -37t-85 -28z" />
<glyph unicode="&#x201c;" horiz-adv-x="980" d="M135 772q20 92 39 182t50.5 172t84.5 151t146 120q41 23 83 37t85 30l-35 -149q-41 -25 -66.5 -44.5t-44 -42t-32 -52t-29.5 -74.5h121l-76 -330h-326zM608 772q23 92 41.5 182t51 172t86 151t143.5 120q41 23 83 37t85 30l-35 -149q-41 -27 -67.5 -46.5t-44 -41t-32 -51 t-30.5 -74.5h123l-76 -330h-328z" />
<glyph unicode="&#x201d;" horiz-adv-x="980" d="M117 756l35 149q41 25 67.5 44.5t44 42t31.5 51t31 73.5h-123l76 330h327q-20 -92 -39.5 -182t-51.5 -171t-86 -151t-144 -121q-41 -23 -83 -37t-85 -28zM594 756l35 149q41 25 67.5 44.5t44 42t31.5 51t31 73.5h-121l74 330h327q-20 -92 -39.5 -182t-51 -171t-86 -151 t-144.5 -121q-41 -23 -83 -37t-85 -28z" />
<glyph unicode="&#x201e;" horiz-adv-x="980" d="M-131 -360l35 149q41 25 67.5 44.5t44 42t31.5 51t31 73.5h-123l76 332h327q-20 -92 -39.5 -182.5t-51 -172t-86 -151.5t-144.5 -121q-41 -23 -83 -37t-85 -28zM332 -360l35 149q41 25 67.5 44.5t44 42t31.5 51t31 73.5h-121l74 332h327q-20 -92 -39.5 -182.5t-51.5 -172 t-86 -151.5t-144 -121q-41 -23 -83 -37t-85 -28z" />
<glyph unicode="&#x2022;" horiz-adv-x="681" d="M51 451l121 528h526l-120 -528h-527z" />
<glyph unicode="&#x2026;" horiz-adv-x="2048" d="M74 0h276l66 279h-279zM760 0h276l66 279h-279zM1442 0h278l64 279h-277z" />
<glyph unicode="&#x202f;" horiz-adv-x="387" />
<glyph unicode="&#x2039;" horiz-adv-x="468" d="M51 496l76 331l360 230l-65 -291l-213 -133l147 -148l-57 -249z" />
<glyph unicode="&#x203a;" horiz-adv-x="468" d="M-6 233l65 287l211 137l-147 144l59 252l244 -260l-72 -324z" />
<glyph unicode="&#x205f;" horiz-adv-x="484" />
<glyph unicode="&#x20ac;" horiz-adv-x="1533" d="M18 516l97 154h96q0 20 2 39.5t8 40.5h-151l96 159h96q84 262 277.5 391.5t461.5 129.5q152 0 278 -38t237 -147l-152 -262q-74 84 -160 128t-198 44q-129 0 -221.5 -64.5t-139.5 -181.5h682l-92 -159l-633 2q-12 -43 -12 -82h598l-88 -154h-510q8 -68 37.5 -117 t75 -81.5t102.5 -49t121 -16.5q129 0 222 40t191 124l-71 -377q-94 -41 -189.5 -58.5t-197.5 -17.5q-131 0 -248 34t-207 102.5t-145.5 173t-63.5 243.5h-199z" />
<glyph unicode="&#x2122;" horiz-adv-x="1507" d="M162 1307l31 139h552l-28 -139h-187l-116 -539h-174l116 539h-194zM678 768l147 678h254l19 -434l205 434h253l-143 -678h-166l117 516l-246 -516h-143l-25 524l-106 -524h-166z" />
<glyph unicode="&#xe000;" horiz-adv-x="1054" d="M0 0v1055h1055v-1055h-1055z" />
<glyph unicode="&#xfb01;" horiz-adv-x="1280" d="M37 0l192 870h-145l43 191h149q12 57 24.5 113.5t35 105.5t58.5 91t93 71q43 23 93.5 32t97.5 9q53 0 104.5 -9.5t104.5 -19.5l-45 -209q-68 0 -111 -3t-69.5 -19.5t-42 -54.5t-27.5 -107h188l-45 -191h-186l-197 -870h-315zM684 0l242 1055h315l-237 -1055h-320z M958 1206l56 240h315l-53 -240h-318z" />
<glyph unicode="&#xfb02;" horiz-adv-x="1280" d="M37 0l192 870h-145l43 191h149q12 57 24.5 113.5t35 105.5t58.5 91t93 71q43 23 93.5 32t97.5 9q53 0 104.5 -9.5t104.5 -19.5l-45 -209q-68 0 -111 -3t-69.5 -19.5t-42 -54.5t-27.5 -107h188l-45 -191h-186l-197 -870h-315zM686 0l324 1446h317l-326 -1446h-315z" />
</font>
</defs>
</svg>
